LambdaSerif-Bold.ufo
<glyph name="exclam" format="2">
  <advance width="266"/>
  <unicode hex="0021"/>
  <outline>
    <component base="period" xOffset="11"/>
    <contour>
      <point x="133" y="658" type="line"/>
      <point x="170" y="658"/>
      <point x="205" y="634"/>
      <point x="205" y="583" type="curve" smooth="yes"/>
      <point x="205" y="548"/>
      <point x="197" y="510"/>
      <point x="191" y="477" type="curve" smooth="yes"/>
      <point x="175" y="379"/>
      <point x="162" y="279"/>
      <point x="161" y="230" type="curve" smooth="yes"/>
      <point x="161" y="211"/>
      <point x="156" y="188"/>
      <point x="133" y="188" type="curve" smooth="yes"/>
      <point x="107" y="188"/>
      <point x="104" y="208"/>
      <point x="103" y="242" type="curve" smooth="yes"/>
      <point x="102" y="290"/>
      <point x="88" y="410"/>
      <point x="75" y="480" type="curve" smooth="yes"/>
      <point x="68" y="515"/>
      <point x="61" y="544"/>
      <point x="61" y="583" type="curve" smooth="yes"/>
      <point x="61" y="639"/>
      <point x="102" y="658"/>
      <point x="133" y="658" type="curve"/>
    </contour>
  </outline>
</glyph>
<glyph name="numbersign" format="2">
  <advance width="514"/>
  <unicode hex="0023"/>
  <outline>
    <contour>
      <point x="288.5" y="253.0" type="line"/>
      <point x="305.5" y="360.0" type="line"/>
      <point x="211.5" y="360.0" type="line"/>
      <point x="205.5" y="323.0"/>
      <point x="198.5" y="290.0"/>
      <point x="192.5" y="253.0" type="curve"/>
    </contour>
    <contour>
      <point x="358.5" y="360.0" type="line"/>
      <point x="341.5" y="253.0" type="line"/>
      <point x="459.5" y="253.0" type="line"/>
      <point x="451.5" y="187.0" type="line"/>
      <point x="332.5" y="187.0" type="line"/>
      <point x="322.5" y="127.0"/>
      <point x="314.5" y="72.0"/>
      <point x="304.5" y="14.0" type="curve"/>
      <point x="251.5" y="14.0" type="line"/>
      <point x="280.5" y="187.0" type="line"/>
      <point x="184.5" y="187.0" type="line"/>
      <point x="173.5" y="127.0"/>
      <point x="165.5" y="72.0"/>
      <point x="154.5" y="14.0" type="curve"/>
      <point x="99.5" y="14.0" type="line"/>
      <point x="127.5" y="187.0" type="line"/>
      <point x="28.5" y="187.0" type="line"/>
      <point x="37.5" y="253.0" type="line"/>
      <point x="137.5" y="253.0" type="line"/>
      <point x="143.5" y="290.0"/>
      <point x="149.5" y="323.0"/>
      <point x="154.5" y="360.0" type="curve"/>
      <point x="54.5" y="360.0" type="line"/>
      <point x="63.5" y="426.0" type="line"/>
      <point x="163.5" y="426.0" type="line"/>
      <point x="173.5" y="484.0"/>
      <point x="182.5" y="541.0"/>
      <point x="192.5" y="599.0" type="curve"/>
      <point x="248.5" y="599.0" type="line"/>
      <point x="218.5" y="426.0" type="line"/>
      <point x="315.5" y="426.0" type="line"/>
      <point x="325.5" y="484.0"/>
      <point x="333.5" y="541.0"/>
      <point x="343.5" y="599.0" type="curve"/>
      <point x="395.5" y="599.0" type="line"/>
      <point x="368.5" y="426.0" type="line"/>
      <point x="485.5" y="426.0" type="line"/>
      <point x="476.5" y="360.0" type="line"/>
    </contour>
  </outline>
</glyph>
<glyph name="dollar" format="2">
  <advance width="514"/>
  <unicode hex="0024"/>
  <outline>
    <contour>
      <point x="246.5" y="392.3" type="curve"/>
      <point x="256.3" y="571.6" type="line"/>
      <point x="214.0" y="567.6"/>
      <point x="182.0" y="537.4"/>
      <point x="182.0" y="489.0" type="curve" smooth="yes"/>
      <point x="182.0" y="453.3"/>
      <point x="214.2" y="417.6"/>
    </contour>
    <contour>
      <point x="277.5" y="216.1" type="curve"/>
      <point x="267.3" y="31.1" type="line"/>
      <point x="315.1" y="37.0"/>
      <point x="350.0" y="66.1"/>
      <point x="350.0" y="107.0" type="curve" smooth="yes"/>
      <point x="350.0" y="152.4"/>
      <point x="315.0" y="187.8"/>
    </contour>
    <contour>
      <point x="423.0" y="585.0" type="curve"/>
      <point x="429.0" y="531.0"/>
      <point x="433.0" y="493.0"/>
      <point x="433.0" y="444.0" type="curve"/>
      <point x="423.0" y="436.0"/>
      <point x="400.0" y="435.0"/>
      <point x="387.0" y="439.0" type="curve"/>
      <point x="372.4" y="491.3"/>
      <point x="352.0" y="551.6"/>
      <point x="296.8" y="567.8" type="curve"/>
      <point x="285.7" y="366.3" type="line"/>
      <point x="290.0" y="364.0" type="line" smooth="yes"/>
      <point x="326.0" y="345.0"/>
      <point x="383.0" y="317.0"/>
      <point x="419.0" y="277.0" type="curve" smooth="yes"/>
      <point x="446.0" y="247.0"/>
      <point x="467.0" y="219.0"/>
      <point x="467.0" y="171.0" type="curve" smooth="yes"/>
      <point x="467.0" y="114.0"/>
      <point x="436.9" y="70.1"/>
      <point x="404.0" y="41.0" type="curve" smooth="yes"/>
      <point x="367.2" y="8.4"/>
      <point x="319.5" y="-7.8"/>
      <point x="265.1" y="-8.9" type="curve"/>
      <point x="260.5" y="-93.2" type="line"/>
      <point x="253.2" y="-97.4"/>
      <point x="229.6" y="-98.3"/>
      <point x="219.6" y="-98.3" type="curve"/>
      <point x="224.5" y="-8.5" type="line"/>
      <point x="130.1" y="-5.6"/>
      <point x="123.7" y="9.0"/>
      <point x="76.0" y="9.0" type="curve"/>
      <point x="66.0" y="43.0"/>
      <point x="58.0" y="92.0"/>
      <point x="58.0" y="162.0" type="curve"/>
      <point x="73.0" y="166.0"/>
      <point x="88.0" y="171.0"/>
      <point x="104.0" y="165.0" type="curve"/>
      <point x="120.7" y="91.1"/>
      <point x="172.3" y="42.7"/>
      <point x="226.7" y="32.2" type="curve"/>
      <point x="238.2" y="242.3" type="line"/>
      <point x="195.3" y="267.3"/>
      <point x="132.9" y="297.4"/>
      <point x="97.0" y="345.0" type="curve" smooth="yes"/>
      <point x="76.0" y="373.0"/>
      <point x="66.0" y="414.0"/>
      <point x="66.0" y="450.0" type="curve" smooth="yes"/>
      <point x="66.0" y="495.0"/>
      <point x="91.0" y="538.0"/>
      <point x="126.0" y="566.0" type="curve" smooth="yes"/>
      <point x="162.4" y="594.9"/>
      <point x="217.1" y="608.3"/>
      <point x="258.4" y="609.9" type="curve"/>
      <point x="262.8" y="689.5" type="line"/>
      <point x="272.0" y="693.0"/>
      <point x="291.0" y="694.5"/>
      <point x="303.8" y="694.5" type="curve"/>
      <point x="299.1" y="609.0" type="line"/>
      <point x="358.9" y="605.2"/>
      <point x="379.0" y="591.0"/>
    </contour>
  </outline>
</glyph>
<glyph name="percent" format="2">
  <advance width="637"/>
  <unicode hex="0025"/>
  <outline>
    <contour>
      <point x="144.0" y="369.0" type="curve" smooth="yes"/>
      <point x="144.0" y="355.7"/>
      <point x="147.0" y="336.0"/>
      <point x="164.0" y="336.0" type="curve" smooth="yes"/>
      <point x="184.7" y="336.0"/>
      <point x="204.4" y="352.7"/>
      <point x="218.0" y="376.0" type="curve" smooth="yes"/>
      <point x="234.6" y="404.4"/>
      <point x="243.0" y="442.8"/>
      <point x="243.0" y="473.0" type="curve" smooth="yes"/>
      <point x="243.0" y="525.0"/>
      <point x="218.0" y="530.0"/>
      <point x="204.0" y="530.0" type="curve" smooth="yes"/>
      <point x="184.1" y="530.0"/>
      <point x="165.7" y="507.7"/>
      <point x="156.0" y="478.0" type="curve" smooth="yes"/>
      <point x="144.8" y="443.7"/>
      <point x="144.0" y="399.6"/>
    </contour>
    <contour>
      <point x="51.0" y="407.0" type="curve" smooth="yes"/>
      <point x="51.0" y="487.0"/>
      <point x="104.0" y="566.0"/>
      <point x="193.0" y="566.0" type="curve" smooth="yes"/>
      <point x="219.0" y="566.0"/>
      <point x="243.8" y="560.4"/>
      <point x="261.1" y="543.9" type="curve"/>
      <point x="302.9" y="542.4"/>
      <point x="346.6" y="519.0"/>
      <point x="364.0" y="519.0" type="curve" smooth="yes"/>
      <point x="406.0" y="519.0"/>
      <point x="473.0" y="525.0"/>
      <point x="514.0" y="569.0" type="curve"/>
      <point x="561.0" y="548.0" type="line"/>
      <point x="150.0" y="-16.0" type="line"/>
      <point x="96.0" y="-4.0" type="line"/>
      <point x="462.0" y="497.0" type="line"/>
      <point x="423.0" y="481.0"/>
      <point x="384.0" y="474.0"/>
      <point x="354.0" y="474.0" type="curve" smooth="yes"/>
      <point x="332.5" y="474.0"/>
      <point x="303.3" y="482.7"/>
      <point x="284.0" y="492.8" type="curve"/>
      <point x="284.7" y="487.3"/>
      <point x="285.0" y="481.3"/>
      <point x="285.0" y="475.0" type="curve" smooth="yes"/>
      <point x="285.0" y="376.0"/>
      <point x="231.0" y="297.0"/>
      <point x="152.0" y="297.0" type="curve" smooth="yes"/>
      <point x="119.7" y="297.0"/>
      <point x="90.7" y="305.5"/>
      <point x="74.0" y="327.0" type="curve" smooth="yes"/>
      <point x="60.0" y="345.0"/>
      <point x="51.0" y="370.0"/>
    </contour>
    <component base="uniE01F" xOffset="350.0"/>
  </outline>
</glyph>
<glyph name="ampersand" format="2">
  <advance width="729"/>
  <unicode hex="0026"/>
  <outline>
    <contour>
      <point x="236" y="317" type="line"/>
      <point x="175" y="266"/>
      <point x="167" y="218"/>
      <point x="167" y="170" type="curve" smooth="yes"/>
      <point x="167" y="88"/>
      <point x="215" y="42"/>
      <point x="256" y="42" type="curve" smooth="yes"/>
      <point x="305" y="42"/>
      <point x="341" y="53"/>
      <point x="385" y="101" type="curve"/>
      <point x="338" y="164"/>
      <point x="262" y="276"/>
      <point x="236" y="317" type="curve"/>
    </contour>
    <contour>
      <point x="601" y="324" type="line" smooth="yes"/>
      <point x="580" y="287"/>
      <point x="530" y="212"/>
      <point x="485" y="156" type="curve"/>
      <point x="513" y="111"/>
      <point x="551" y="51"/>
      <point x="601" y="51" type="curve" smooth="yes"/>
      <point x="633" y="51"/>
      <point x="660" y="72"/>
      <point x="681" y="97" type="curve"/>
      <point x="691" y="97"/>
      <point x="699" y="76"/>
      <point x="699" y="61" type="curve"/>
      <point x="661" y="10"/>
      <point x="611" y="-10"/>
      <point x="566" y="-10" type="curve" smooth="yes"/>
      <point x="510" y="-10"/>
      <point x="466" y="-1"/>
      <point x="416" y="66" type="curve"/>
      <point x="373" y="24"/>
      <point x="311" y="-10"/>
      <point x="232" y="-10" type="curve" smooth="yes"/>
      <point x="118" y="-10"/>
      <point x="39" y="28"/>
      <point x="39" y="144" type="curve" smooth="yes"/>
      <point x="39" y="213"/>
      <point x="80" y="285"/>
      <point x="214" y="350" type="curve"/>
      <point x="171" y="411"/>
      <point x="151" y="445"/>
      <point x="151" y="491" type="curve" smooth="yes"/>
      <point x="151" y="520"/>
      <point x="160" y="565"/>
      <point x="192" y="600" type="curve" smooth="yes"/>
      <point x="223" y="634"/>
      <point x="277" y="658"/>
      <point x="342" y="658" type="curve" smooth="yes"/>
      <point x="434" y="658"/>
      <point x="485" y="597"/>
      <point x="485" y="547" type="curve" smooth="yes"/>
      <point x="485" y="466"/>
      <point x="421" y="410"/>
      <point x="335" y="376" type="curve"/>
      <point x="339" y="371" type="line"/>
      <point x="355" y="343"/>
      <point x="453" y="207"/>
      <point x="453" y="207" type="curve" smooth="yes"/>
      <point x="458" y="201"/>
      <point x="464" y="201"/>
      <point x="468" y="206" type="curve" smooth="yes"/>
      <point x="503" y="247"/>
      <point x="524" y="282"/>
      <point x="544" y="326" type="curve" smooth="yes"/>
      <point x="558" y="355"/>
      <point x="568" y="398"/>
      <point x="510" y="402" type="curve"/>
      <point x="504" y="408"/>
      <point x="504" y="430"/>
      <point x="510" y="436" type="curve"/>
      <point x="537" y="435"/>
      <point x="574" y="434"/>
      <point x="611" y="434" type="curve" smooth="yes"/>
      <point x="633" y="434"/>
      <point x="682" y="435"/>
      <point x="704" y="436" type="curve"/>
      <point x="710" y="430"/>
      <point x="710" y="408"/>
      <point x="704" y="402" type="curve"/>
      <point x="652" y="396"/>
      <point x="628" y="368"/>
      <point x="601" y="324" type="curve" smooth="yes"/>
    </contour>
    <contour>
      <point x="258" y="536" type="line" smooth="yes"/>
      <point x="258" y="505"/>
      <point x="281" y="457"/>
      <point x="307" y="419" type="curve"/>
      <point x="312" y="413" type="line"/>
      <point x="354" y="446"/>
      <point x="383" y="500"/>
      <point x="383" y="537" type="curve" smooth="yes"/>
      <point x="383" y="580"/>
      <point x="358" y="616"/>
      <point x="324" y="616" type="curve" smooth="yes"/>
      <point x="282" y="616"/>
      <point x="258" y="582"/>
      <point x="258" y="536" type="curve" smooth="yes"/>
    </contour>
  </outline>
</glyph>
<glyph name="quotesingle" format="2">
  <advance width="215"/>
  <unicode hex="0027"/>
  <outline>
    <contour>
      <point x="98.0" y="411.0" type="line"/>
      <point x="83.0" y="415.0" type="line"/>
      <point x="83.0" y="415.0"/>
      <point x="51.0" y="585.0"/>
      <point x="51.0" y="591.0" type="curve" smooth="yes"/>
      <point x="51.0" y="614.0"/>
      <point x="73.0" y="645.0"/>
      <point x="116.0" y="645.0" type="curve" smooth="yes"/>
      <point x="158.0" y="645.0"/>
      <point x="161.0" y="626.0"/>
      <point x="161.0" y="608.0" type="curve" smooth="yes"/>
      <point x="161.0" y="593.0"/>
      <point x="124.0" y="417.0"/>
      <point x="124.0" y="417.0" type="curve"/>
    </contour>
  </outline>
</glyph>
<glyph name="parenleft" format="2">
  <advance width="315"/>
  <unicode hex="0028"/>
  <outline>
    <contour>
      <point x="36.0" y="253.0" type="curve" smooth="yes"/>
      <point x="36.0" y="435.0"/>
      <point x="139.0" y="607.0"/>
      <point x="270.0" y="720.0" type="curve"/>
      <point x="298.0" y="686.0" type="line"/>
      <point x="268.0" y="651.0"/>
      <point x="151.0" y="517.0"/>
      <point x="151.0" y="253.0" type="curve" smooth="yes"/>
      <point x="151.0" y="-11.0"/>
      <point x="266.0" y="-145.0"/>
      <point x="298.0" y="-181.0" type="curve"/>
      <point x="268.0" y="-213.0" type="line"/>
      <point x="41.0" y="-17.0"/>
      <point x="36.0" y="208.0"/>
    </contour>
  </outline>
</glyph>
<glyph name="parenright" format="2">
  <advance width="315"/>
  <unicode hex="0029"/>
  <outline>
    <contour>
      <point x="279.0" y="251.0" type="curve" smooth="yes"/>
      <point x="279.0" y="69.0"/>
      <point x="176.0" y="-103.0"/>
      <point x="45.0" y="-216.0" type="curve"/>
      <point x="17.0" y="-182.0" type="line"/>
      <point x="47.0" y="-147.0"/>
      <point x="164.0" y="-13.0"/>
      <point x="164.0" y="251.0" type="curve" smooth="yes"/>
      <point x="164.0" y="515.0"/>
      <point x="49.0" y="649.0"/>
      <point x="17.0" y="685.0" type="curve"/>
      <point x="47.0" y="717.0" type="line"/>
      <point x="274.0" y="521.0"/>
      <point x="279.0" y="296.0"/>
    </contour>
  </outline>
</glyph>
<glyph name="asterisk" format="2">
  <advance width="433"/>
  <unicode hex="002A"/>
  <outline>
    <contour>
      <point x="197.0" y="566.0" type="curve"/>
      <point x="184.0" y="568.0"/>
      <point x="171.0" y="573.0"/>
      <point x="156.0" y="571.0" type="curve" smooth="yes"/>
      <point x="111.0" y="563.0"/>
      <point x="75.0" y="563.0"/>
      <point x="75.0" y="608.0" type="curve" smooth="yes"/>
      <point x="75.0" y="622.0"/>
      <point x="84.0" y="640.0"/>
      <point x="108.0" y="640.0" type="curve" smooth="yes"/>
      <point x="142.0" y="640.0"/>
      <point x="159.0" y="607.0"/>
      <point x="203.0" y="588.0" type="curve"/>
      <point x="199.0" y="628.0"/>
      <point x="173.0" y="653.0"/>
      <point x="173.0" y="679.0" type="curve" smooth="yes"/>
      <point x="173.0" y="700.0"/>
      <point x="193.0" y="718.0"/>
      <point x="211.0" y="718.0" type="curve" smooth="yes"/>
      <point x="229.0" y="718.0"/>
      <point x="251.0" y="707.0"/>
      <point x="251.0" y="683.0" type="curve" smooth="yes"/>
      <point x="251.0" y="656.0"/>
      <point x="228.0" y="618.0"/>
      <point x="226.0" y="588.0" type="curve"/>
      <point x="271.0" y="607.0"/>
      <point x="282.0" y="642.0"/>
      <point x="315.0" y="642.0" type="curve" smooth="yes"/>
      <point x="346.0" y="642.0"/>
      <point x="354.0" y="618.0"/>
      <point x="354.0" y="608.0" type="curve" smooth="yes"/>
      <point x="354.0" y="578.0"/>
      <point x="320.0" y="568.0"/>
      <point x="285.0" y="568.0" type="curve" smooth="yes"/>
      <point x="266.0" y="568.0"/>
      <point x="249.0" y="568.0"/>
      <point x="231.0" y="565.0" type="curve"/>
      <point x="265.0" y="529.0"/>
      <point x="316.0" y="531.0"/>
      <point x="316.0" y="480.0" type="curve" smooth="yes"/>
      <point x="316.0" y="462.0"/>
      <point x="298.0" y="451.0"/>
      <point x="284.0" y="451.0" type="curve" smooth="yes"/>
      <point x="235.0" y="451.0"/>
      <point x="238.0" y="513.0"/>
      <point x="213.0" y="552.0" type="curve"/>
      <point x="188.0" y="507.0"/>
      <point x="202.0" y="451.0"/>
      <point x="143.0" y="451.0" type="curve" smooth="yes"/>
      <point x="126.0" y="451.0"/>
      <point x="114.0" y="464.0"/>
      <point x="114.0" y="479.0" type="curve" smooth="yes"/>
      <point x="114.0" y="533.0"/>
      <point x="164.0" y="528.0"/>
    </contour>
  </outline>
</glyph>
<glyph name="plus" format="2">
  <advance width="537"/>
  <unicode hex="002B"/>
  <outline>
    <contour>
      <point x="306.0" y="269.0" type="line"/>
      <point x="477.0" y="269.0" type="line"/>
      <point x="477.0" y="195.0" type="line"/>
      <point x="306.0" y="195.0" type="line"/>
      <point x="306.0" y="32.0" type="line"/>
      <point x="232.0" y="32.0" type="line"/>
      <point x="232.0" y="195.0" type="line"/>
      <point x="61.0" y="195.0" type="line"/>
      <point x="61.0" y="269.0" type="line"/>
      <point x="232.0" y="269.0" type="line"/>
      <point x="232.0" y="433.0" type="line"/>
      <point x="306.0" y="433.0" type="line"/>
    </contour>
  </outline>
</glyph>
<glyph name="comma" format="2">
  <advance width="244"/>
  <unicode hex="002C"/>
  <outline>
    <contour>
      <point x="112.0" y="127.0" type="curve" smooth="yes"/>
      <point x="165.5" y="127.0"/>
      <point x="199.0" y="86.0"/>
      <point x="199.0" y="4.0" type="curve" smooth="yes"/>
      <point x="199.0" y="-31.0"/>
      <point x="173.3" y="-79.7"/>
      <point x="145.0" y="-108.0" type="curve" smooth="yes"/>
      <point x="116.5" y="-136.5"/>
      <point x="72.9" y="-160.7"/>
      <point x="36.0" y="-167.0" type="curve"/>
      <point x="24.9" y="-159.5"/>
      <point x="23.8" y="-148.8"/>
      <point x="29.0" y="-136.0" type="curve"/>
      <point x="74.0" y="-124.0"/>
      <point x="125.0" y="-53.5"/>
      <point x="125.0" y="-27.0" type="curve" smooth="yes"/>
      <point x="125.0" y="-5.0"/>
      <point x="102.3" y="2.7"/>
      <point x="89.0" y="6.0" type="curve" smooth="yes"/>
      <point x="69.7" y="10.8"/>
      <point x="49.0" y="39.0"/>
      <point x="49.0" y="64.0" type="curve" smooth="yes"/>
      <point x="49.0" y="86.5"/>
      <point x="86.0" y="127.0"/>
    </contour>
  </outline>
</glyph>
<glyph name="hyphen" format="2">
  <advance width="358"/>
  <unicode hex="002D"/>
  <outline>
    <contour>
      <point x="273" y="215" type="curve" smooth="yes"/>
      <point x="75" y="215" type="line" smooth="yes"/>
      <point x="51" y="215"/>
      <point x="38" y="225"/>
      <point x="38" y="236" type="curve" smooth="yes"/>
      <point x="38" y="253"/>
      <point x="63" y="294"/>
      <point x="84" y="294" type="curve" smooth="yes"/>
      <point x="284" y="294" type="line" smooth="yes"/>
      <point x="312" y="294"/>
      <point x="320" y="284"/>
      <point x="320" y="273" type="curve" smooth="yes"/>
      <point x="320" y="260"/>
      <point x="296" y="215"/>
    </contour>
  </outline>
</glyph>
<glyph name="period" format="2">
  <advance width="244"/>
  <unicode hex="002E"/>
  <outline>
    <contour>
      <point x="49.0" y="58.0" type="curve" smooth="yes"/>
      <point x="49.0" y="97.0"/>
      <point x="83.0" y="129.0"/>
      <point x="123.0" y="129.0" type="curve" smooth="yes"/>
      <point x="163.0" y="129.0"/>
      <point x="195.0" y="99.0"/>
      <point x="195.0" y="60.0" type="curve" smooth="yes"/>
      <point x="195.0" y="22.0"/>
      <point x="161.0" y="-10.0"/>
      <point x="121.0" y="-10.0" type="curve" smooth="yes"/>
      <point x="81.0" y="-10.0"/>
      <point x="49.0" y="20.0"/>
    </contour>
  </outline>
</glyph>
<glyph name="slash" format="2">
  <advance width="316"/>
  <unicode hex="002F"/>
  <outline>
    <contour>
      <point x="302" y="682" type="line"/>
      <point x="65" y="-21" type="line"/>
      <point x="2" y="-21" type="line"/>
      <point x="239" y="682" type="line"/>
    </contour>
  </outline>
</glyph>
<glyph name="zero" format="2">
  <advance width="514"/>
  <unicode hex="0030"/>
  <outline>
    <contour>
      <point x="260.0" y="568.0" type="curve" smooth="yes"/>
      <point x="220.0" y="568.0"/>
      <point x="173.0" y="530.0"/>
      <point x="173.0" y="287.0" type="curve" smooth="yes"/>
      <point x="173.0" y="202.0"/>
      <point x="174.0" y="32.0"/>
      <point x="256.0" y="32.0" type="curve" smooth="yes"/>
      <point x="296.0" y="32.0"/>
      <point x="342.0" y="87.0"/>
      <point x="342.0" y="327.0" type="curve" smooth="yes"/>
      <point x="342.0" y="504.0"/>
      <point x="299.0" y="568.0"/>
    </contour>
    <contour>
      <point x="255.0" y="-10.0" type="curve" smooth="yes"/>
      <point x="109.0" y="-10.0"/>
      <point x="30.0" y="134.0"/>
      <point x="30.0" y="298.0" type="curve" smooth="yes"/>
      <point x="30.0" y="498.0"/>
      <point x="131.0" y="610.0"/>
      <point x="260.0" y="610.0" type="curve" smooth="yes"/>
      <point x="361.0" y="610.0"/>
      <point x="484.0" y="543.0"/>
      <point x="484.0" y="307.0" type="curve" smooth="yes"/>
      <point x="484.0" y="69.0"/>
      <point x="354.0" y="-10.0"/>
    </contour>
  </outline>
</glyph>
<glyph name="one" format="2">
  <advance width="514"/>
  <unicode hex="0031"/>
  <outline>
    <contour>
      <point x="367.0" y="122.0" type="line" smooth="yes"/>
      <point x="367.0" y="39.0"/>
      <point x="415.0" y="35.0"/>
      <point x="470.0" y="32.0" type="curve"/>
      <point x="480.0" y="26.0"/>
      <point x="480.0" y="4.0"/>
      <point x="470.0" y="-2.0" type="curve"/>
      <point x="388.0" y="-1.0"/>
      <point x="343.0" y="0.0"/>
      <point x="303.0" y="0.0" type="curve" smooth="yes"/>
      <point x="263.0" y="0.0"/>
      <point x="216.0" y="-1.0"/>
      <point x="134.0" y="-2.0" type="curve"/>
      <point x="124.0" y="4.0"/>
      <point x="124.0" y="26.0"/>
      <point x="134.0" y="32.0" type="curve"/>
      <point x="189.0" y="35.0"/>
      <point x="237.0" y="39.0"/>
      <point x="237.0" y="122.0" type="curve" smooth="yes"/>
      <point x="237.0" y="435.0" type="line" smooth="yes"/>
      <point x="237.0" y="485.0"/>
      <point x="231.0" y="489.0"/>
      <point x="218.0" y="489.0" type="curve" smooth="yes"/>
      <point x="204.0" y="489.0"/>
      <point x="168.0" y="487.0"/>
      <point x="114.0" y="464.0" type="curve"/>
      <point x="100.0" y="474.0"/>
      <point x="93.0" y="490.0"/>
      <point x="92.0" y="507.0" type="curve"/>
      <point x="179.0" y="543.0"/>
      <point x="247.0" y="567.0"/>
      <point x="308.0" y="595.0" type="curve" smooth="yes"/>
      <point x="331.0" y="606.0"/>
      <point x="348.0" y="610.0"/>
      <point x="358.0" y="610.0" type="curve" smooth="yes"/>
      <point x="367.0" y="610.0"/>
      <point x="375.0" y="606.0"/>
      <point x="375.0" y="593.0" type="curve" smooth="yes"/>
      <point x="375.0" y="593.0"/>
      <point x="367.0" y="536.0"/>
      <point x="367.0" y="483.0" type="curve" smooth="yes"/>
    </contour>
  </outline>
</glyph>
<glyph name="two" format="2">
  <advance width="514"/>
  <unicode hex="0032"/>
  <outline>
    <contour>
      <point x="50" y="454" type="line" smooth="yes"/>
      <point x="50" y="516"/>
      <point x="119" y="610"/>
      <point x="262" y="610" type="curve" smooth="yes"/>
      <point x="365" y="610"/>
      <point x="453" y="553"/>
      <point x="453" y="449" type="curve" smooth="yes"/>
      <point x="453" y="356"/>
      <point x="413" y="332"/>
      <point x="294" y="222" type="curve" smooth="yes"/>
      <point x="235" y="168" type="line" smooth="yes"/>
      <point x="202" y="138"/>
      <point x="192" y="111"/>
      <point x="189" y="79" type="curve"/>
      <point x="319" y="79" type="line" smooth="yes"/>
      <point x="364" y="79"/>
      <point x="393" y="106"/>
      <point x="415" y="174" type="curve"/>
      <point x="438" y="174"/>
      <point x="447" y="170"/>
      <point x="460" y="164" type="curve"/>
      <point x="453" y="107"/>
      <point x="441" y="38"/>
      <point x="429" y="0" type="curve"/>
      <point x="43" y="0" type="line"/>
      <point x="39" y="32" type="line"/>
      <point x="42" y="59"/>
      <point x="59" y="87"/>
      <point x="183" y="205" type="curve" smooth="yes"/>
      <point x="268" y="286" type="line" smooth="yes"/>
      <point x="321" y="336"/>
      <point x="325" y="379"/>
      <point x="325" y="446" type="curve" smooth="yes"/>
      <point x="325" y="506"/>
      <point x="290" y="569"/>
      <point x="239" y="569" type="curve" smooth="yes"/>
      <point x="191" y="569"/>
      <point x="156" y="523"/>
      <point x="156" y="500" type="curve" smooth="yes"/>
      <point x="156" y="489"/>
      <point x="159" y="481"/>
      <point x="162" y="474" type="curve" smooth="yes"/>
      <point x="165" y="465"/>
      <point x="167" y="458"/>
      <point x="167" y="453" type="curve" smooth="yes"/>
      <point x="167" y="422"/>
      <point x="138" y="400"/>
      <point x="109" y="400" type="curve" smooth="yes"/>
      <point x="73" y="400"/>
      <point x="50" y="429"/>
      <point x="50" y="454" type="curve" smooth="yes"/>
    </contour>
  </outline>
</glyph>
<glyph name="three" format="2">
  <advance width="514"/>
  <unicode hex="0033"/>
  <outline>
    <contour>
      <point x="248.0" y="568.0" type="curve" smooth="yes"/>
      <point x="214.0" y="568.0"/>
      <point x="172.0" y="565.0"/>
      <point x="161.0" y="504.0" type="curve" smooth="yes"/>
      <point x="155.0" y="472.0"/>
      <point x="143.0" y="449.0"/>
      <point x="99.0" y="449.0" type="curve" smooth="yes"/>
      <point x="66.0" y="449.0"/>
      <point x="61.0" y="472.0"/>
      <point x="61.0" y="486.0" type="curve" smooth="yes"/>
      <point x="61.0" y="499.0"/>
      <point x="67.0" y="526.0"/>
      <point x="89.0" y="546.0" type="curve" smooth="yes"/>
      <point x="121.0" y="575.0"/>
      <point x="163.0" y="610.0"/>
      <point x="267.0" y="610.0" type="curve" smooth="yes"/>
      <point x="405.0" y="610.0"/>
      <point x="429.0" y="543.0"/>
      <point x="429.0" y="499.0" type="curve" smooth="yes"/>
      <point x="429.0" y="438.0"/>
      <point x="380.0" y="385.0"/>
      <point x="336.0" y="363.0" type="curve"/>
      <point x="420.0" y="357.0"/>
      <point x="467.0" y="294.0"/>
      <point x="467.0" y="222.0" type="curve" smooth="yes"/>
      <point x="467.0" y="83.0"/>
      <point x="335.0" y="-10.0"/>
      <point x="217.0" y="-10.0" type="curve" smooth="yes"/>
      <point x="168.0" y="-10.0"/>
      <point x="115.0" y="3.0"/>
      <point x="79.0" y="21.0" type="curve" smooth="yes"/>
      <point x="57.0" y="32.0"/>
      <point x="46.0" y="47.0"/>
      <point x="46.0" y="68.0" type="curve" smooth="yes"/>
      <point x="46.0" y="85.0"/>
      <point x="64.0" y="111.0"/>
      <point x="95.0" y="111.0" type="curve" smooth="yes"/>
      <point x="132.0" y="111.0"/>
      <point x="149.0" y="89.0"/>
      <point x="160.0" y="74.0" type="curve" smooth="yes"/>
      <point x="173.0" y="57.0"/>
      <point x="194.0" y="32.0"/>
      <point x="233.0" y="32.0" type="curve" smooth="yes"/>
      <point x="270.0" y="32.0"/>
      <point x="338.0" y="57.0"/>
      <point x="338.0" y="172.0" type="curve" smooth="yes"/>
      <point x="338.0" y="292.0"/>
      <point x="265.0" y="307.0"/>
      <point x="213.0" y="307.0" type="curve" smooth="yes"/>
      <point x="198.0" y="307.0"/>
      <point x="186.0" y="305.0"/>
      <point x="165.0" y="299.0" type="curve"/>
      <point x="158.0" y="339.0" type="line"/>
      <point x="250.0" y="360.0"/>
      <point x="311.0" y="421.0"/>
      <point x="311.0" y="497.0" type="curve" smooth="yes"/>
      <point x="311.0" y="544.0"/>
      <point x="290.0" y="568.0"/>
    </contour>
  </outline>
</glyph>
<glyph name="four" format="2">
  <advance width="514"/>
  <unicode hex="0034"/>
  <outline>
    <contour>
      <point x="261.0" y="501.0" type="line"/>
      <point x="208.0" y="429.0"/>
      <point x="127.0" y="293.0"/>
      <point x="77.0" y="209.0" type="curve"/>
      <point x="261.0" y="209.0" type="line"/>
    </contour>
    <contour>
      <point x="483.0" y="209.0" type="line" smooth="yes"/>
      <point x="494.0" y="209.0"/>
      <point x="498.0" y="203.0"/>
      <point x="498.0" y="193.0" type="curve" smooth="yes"/>
      <point x="498.0" y="181.0"/>
      <point x="483.0" y="162.0"/>
      <point x="469.0" y="162.0" type="curve" smooth="yes"/>
      <point x="385.0" y="162.0" type="line"/>
      <point x="385.0" y="122.0" type="line" smooth="yes"/>
      <point x="385.0" y="39.0"/>
      <point x="423.0" y="35.0"/>
      <point x="478.0" y="32.0" type="curve"/>
      <point x="488.0" y="26.0"/>
      <point x="488.0" y="4.0"/>
      <point x="478.0" y="-2.0" type="curve"/>
      <point x="396.0" y="-1.0"/>
      <point x="364.0" y="0.0"/>
      <point x="324.0" y="0.0" type="curve" smooth="yes"/>
      <point x="284.0" y="0.0"/>
      <point x="250.0" y="-1.0"/>
      <point x="168.0" y="-2.0" type="curve"/>
      <point x="158.0" y="4.0"/>
      <point x="158.0" y="26.0"/>
      <point x="168.0" y="32.0" type="curve"/>
      <point x="223.0" y="35.0"/>
      <point x="261.0" y="39.0"/>
      <point x="261.0" y="122.0" type="curve" smooth="yes"/>
      <point x="261.0" y="162.0" type="line"/>
      <point x="84.0" y="162.0" type="line" smooth="yes"/>
      <point x="60.0" y="162.0"/>
      <point x="56.0" y="164.0"/>
      <point x="51.0" y="169.0" type="curve" smooth="yes"/>
      <point x="44.0" y="177.0"/>
      <point x="22.0" y="202.0"/>
      <point x="22.0" y="210.0" type="curve" smooth="yes"/>
      <point x="22.0" y="213.0"/>
      <point x="27.0" y="219.0"/>
      <point x="29.0" y="223.0" type="curve" smooth="yes"/>
      <point x="111.0" y="347.0"/>
      <point x="219.0" y="519.0"/>
      <point x="295.0" y="610.0" type="curve"/>
      <point x="385.0" y="610.0" type="line"/>
      <point x="385.0" y="209.0" type="line"/>
    </contour>
  </outline>
</glyph>
<glyph name="five" format="2">
  <advance width="514"/>
  <unicode hex="0035"/>
  <outline>
    <contour>
      <point x="323.0" y="188.0" type="curve" smooth="yes"/>
      <point x="323.0" y="288.0"/>
      <point x="287.0" y="338.0"/>
      <point x="240.0" y="338.0" type="curve" smooth="yes"/>
      <point x="190.0" y="338.0"/>
      <point x="172.0" y="331.0"/>
      <point x="99.0" y="304.0" type="curve"/>
      <point x="86.0" y="312.0" type="line"/>
      <point x="126.0" y="610.0" type="line"/>
      <point x="183.0" y="606.0"/>
      <point x="215.0" y="600.0"/>
      <point x="256.0" y="600.0" type="curve" smooth="yes"/>
      <point x="316.0" y="600.0"/>
      <point x="353.0" y="606.0"/>
      <point x="426.0" y="613.0" type="curve"/>
      <point x="449.0" y="600.0" type="line"/>
      <point x="430.0" y="514.0" type="line"/>
      <point x="369.0" y="510.0"/>
      <point x="351.0" y="508.0"/>
      <point x="315.0" y="508.0" type="curve" smooth="yes"/>
      <point x="273.0" y="508.0"/>
      <point x="202.0" y="510.0"/>
      <point x="170.0" y="513.0" type="curve"/>
      <point x="151.0" y="381.0" type="line"/>
      <point x="175.0" y="387.0"/>
      <point x="238.0" y="394.0"/>
      <point x="269.0" y="394.0" type="curve" smooth="yes"/>
      <point x="387.0" y="394.0"/>
      <point x="459.0" y="319.0"/>
      <point x="459.0" y="219.0" type="curve" smooth="yes"/>
      <point x="459.0" y="99.0"/>
      <point x="372.0" y="-10.0"/>
      <point x="239.0" y="-10.0" type="curve" smooth="yes"/>
      <point x="191.0" y="-10.0"/>
      <point x="131.0" y="-2.0"/>
      <point x="92.0" y="18.0" type="curve" smooth="yes"/>
      <point x="67.0" y="31.0"/>
      <point x="52.0" y="54.0"/>
      <point x="52.0" y="71.0" type="curve" smooth="yes"/>
      <point x="52.0" y="93.0"/>
      <point x="67.0" y="118.0"/>
      <point x="103.0" y="118.0" type="curve" smooth="yes"/>
      <point x="140.0" y="118.0"/>
      <point x="165.0" y="99.0"/>
      <point x="178.0" y="79.0" type="curve" smooth="yes"/>
      <point x="194.0" y="54.0"/>
      <point x="213.0" y="34.0"/>
      <point x="233.0" y="34.0" type="curve" smooth="yes"/>
      <point x="288.0" y="34.0"/>
      <point x="323.0" y="90.0"/>
    </contour>
  </outline>
</glyph>
<glyph name="six" format="2">
  <advance width="514"/>
  <unicode hex="0036"/>
  <outline>
    <contour>
      <point x="171" y="289" type="curve"/>
      <point x="170" y="278"/>
      <point x="170" y="253"/>
      <point x="170" y="242" type="curve" smooth="yes"/>
      <point x="170" y="68"/>
      <point x="225" y="29"/>
      <point x="275" y="29" type="curve" smooth="yes"/>
      <point x="311" y="29"/>
      <point x="343" y="78"/>
      <point x="343" y="186" type="curve" smooth="yes"/>
      <point x="343" y="246"/>
      <point x="315" y="315"/>
      <point x="248" y="315" type="curve" smooth="yes"/>
      <point x="230" y="315"/>
      <point x="209" y="313"/>
    </contour>
    <contour>
      <point x="450" y="569" type="curve"/>
      <point x="393" y="566"/>
      <point x="324" y="557"/>
      <point x="265" y="509" type="curve" smooth="yes"/>
      <point x="218" y="471"/>
      <point x="184" y="402"/>
      <point x="176" y="330" type="curve"/>
      <point x="214" y="352"/>
      <point x="248" y="365"/>
      <point x="286" y="365" type="curve" smooth="yes"/>
      <point x="434" y="365"/>
      <point x="477" y="253"/>
      <point x="477" y="204" type="curve" smooth="yes"/>
      <point x="477" y="116"/>
      <point x="419" y="-10"/>
      <point x="263" y="-10" type="curve" smooth="yes"/>
      <point x="162" y="-10"/>
      <point x="44" y="32"/>
      <point x="44" y="246" type="curve" smooth="yes"/>
      <point x="44" y="342"/>
      <point x="76" y="447"/>
      <point x="152" y="513" type="curve" smooth="yes"/>
      <point x="228" y="579"/>
      <point x="303" y="606"/>
      <point x="444" y="610" type="curve"/>
      <point x="452" y="600"/>
      <point x="453" y="581"/>
    </contour>
  </outline>
</glyph>
<glyph name="seven" format="2">
  <advance width="514"/>
  <unicode hex="0037"/>
  <outline>
    <contour>
      <point x="184" y="498" type="line" smooth="yes"/>
      <point x="151" y="498"/>
      <point x="117" y="491"/>
      <point x="95" y="411" type="curve"/>
      <point x="83" y="409"/>
      <point x="73" y="410"/>
      <point x="60" y="414" type="curve"/>
      <point x="68" y="466"/>
      <point x="79" y="563"/>
      <point x="80" y="611" type="curve" smooth="yes"/>
      <point x="80" y="614"/>
      <point x="81" y="614"/>
      <point x="84" y="614" type="curve"/>
      <point x="102" y="610"/>
      <point x="104" y="600"/>
      <point x="138" y="600" type="curve" smooth="yes"/>
      <point x="473" y="600" type="line"/>
      <point x="479" y="591" type="line"/>
      <point x="350" y="319"/>
      <point x="296" y="169"/>
      <point x="229" y="-2" type="curve"/>
      <point x="127" y="-12" type="line"/>
      <point x="121" y="0" type="line"/>
      <point x="199" y="144"/>
      <point x="313" y="362"/>
      <point x="379" y="498" type="curve"/>
    </contour>
  </outline>
</glyph>
<glyph name="eight" format="2">
  <advance width="514"/>
  <unicode hex="0038"/>
  <outline>
    <contour>
      <point x="260.0" y="575.0" type="curve" smooth="yes"/>
      <point x="196.0" y="575.0"/>
      <point x="188.0" y="536.0"/>
      <point x="188.0" y="489.0" type="curve" smooth="yes"/>
      <point x="188.0" y="458.0"/>
      <point x="196.0" y="423.0"/>
      <point x="246.0" y="397.0" type="curve" smooth="yes"/>
      <point x="296.0" y="371.0" type="line"/>
      <point x="328.0" y="391.0"/>
      <point x="335.0" y="436.0"/>
      <point x="335.0" y="479.0" type="curve" smooth="yes"/>
      <point x="335.0" y="520.0"/>
      <point x="330.0" y="575.0"/>
    </contour>
    <contour>
      <point x="451.0" y="477.0" type="curve" smooth="yes"/>
      <point x="451.0" y="413.0"/>
      <point x="398.0" y="364.0"/>
      <point x="339.0" y="347.0" type="curve"/>
      <point x="395.0" y="314.0" type="line" smooth="yes"/>
      <point x="453.0" y="280.0"/>
      <point x="480.0" y="222.0"/>
      <point x="480.0" y="163.0" type="curve" smooth="yes"/>
      <point x="480.0" y="86.0"/>
      <point x="406.0" y="-10.0"/>
      <point x="250.0" y="-10.0" type="curve" smooth="yes"/>
      <point x="123.0" y="-10.0"/>
      <point x="34.0" y="43.0"/>
      <point x="34.0" y="147.0" type="curve" smooth="yes"/>
      <point x="34.0" y="224.0"/>
      <point x="87.0" y="272.0"/>
      <point x="182.0" y="319.0" type="curve"/>
      <point x="161.0" y="330.0" type="line" smooth="yes"/>
      <point x="88.0" y="368.0"/>
      <point x="65.0" y="403.0"/>
      <point x="65.0" y="460.0" type="curve" smooth="yes"/>
      <point x="65.0" y="538.0"/>
      <point x="125.0" y="610.0"/>
      <point x="267.0" y="610.0" type="curve" smooth="yes"/>
      <point x="398.0" y="610.0"/>
      <point x="451.0" y="550.0"/>
    </contour>
    <contour>
      <point x="252.0" y="30.0" type="curve" smooth="yes"/>
      <point x="295.0" y="30.0"/>
      <point x="356.0" y="47.0"/>
      <point x="356.0" y="143.0" type="curve" smooth="yes"/>
      <point x="356.0" y="191.0"/>
      <point x="349.0" y="229.0"/>
      <point x="277.0" y="267.0" type="curve" smooth="yes"/>
      <point x="223.0" y="296.0" type="line"/>
      <point x="160.0" y="252.0"/>
      <point x="157.0" y="188.0"/>
      <point x="157.0" y="155.0" type="curve" smooth="yes"/>
      <point x="157.0" y="62.0"/>
      <point x="195.0" y="30.0"/>
    </contour>
  </outline>
</glyph>
<glyph name="nine" format="2">
  <advance width="514"/>
  <unicode hex="0039"/>
  <outline>
    <contour>
      <point x="350" y="311" type="line"/>
      <point x="351" y="322"/>
      <point x="351" y="347"/>
      <point x="351" y="358" type="curve" smooth="yes"/>
      <point x="351" y="532"/>
      <point x="296" y="571"/>
      <point x="246" y="571" type="curve" smooth="yes"/>
      <point x="210" y="571"/>
      <point x="178" y="522"/>
      <point x="178" y="414" type="curve" smooth="yes"/>
      <point x="178" y="354"/>
      <point x="206" y="285"/>
      <point x="273" y="285" type="curve" smooth="yes"/>
      <point x="291" y="285"/>
      <point x="312" y="287"/>
      <point x="350" y="311" type="curve"/>
    </contour>
    <contour>
      <point x="71" y="31" type="line"/>
      <point x="128" y="34"/>
      <point x="197" y="43"/>
      <point x="256" y="91" type="curve" smooth="yes"/>
      <point x="303" y="129"/>
      <point x="336" y="198"/>
      <point x="344" y="270" type="curve"/>
      <point x="306" y="248"/>
      <point x="273" y="235"/>
      <point x="235" y="235" type="curve" smooth="yes"/>
      <point x="87" y="235"/>
      <point x="44" y="347"/>
      <point x="44" y="396" type="curve" smooth="yes"/>
      <point x="44" y="484"/>
      <point x="102" y="610"/>
      <point x="258" y="610" type="curve" smooth="yes"/>
      <point x="359" y="610"/>
      <point x="477" y="568"/>
      <point x="477" y="354" type="curve" smooth="yes"/>
      <point x="477" y="258"/>
      <point x="445" y="153"/>
      <point x="369" y="87" type="curve" smooth="yes"/>
      <point x="293" y="21"/>
      <point x="218" y="-6"/>
      <point x="77" y="-10" type="curve"/>
      <point x="69" y="0"/>
      <point x="68" y="19"/>
      <point x="71" y="31" type="curve"/>
    </contour>
  </outline>
</glyph>
<glyph name="less" format="2">
  <advance width="512"/>
  <unicode hex="003C"/>
  <outline>
    <contour>
      <point x="153.0" y="240.0" type="line"/>
      <point x="471.0" y="124.0" type="line"/>
      <point x="471.0" y="62.0" type="line"/>
      <point x="42.0" y="218.0" type="line"/>
      <point x="42.0" y="262.0" type="line"/>
      <point x="471.0" y="418.0" type="line"/>
      <point x="471.0" y="356.0" type="line"/>
    </contour>
  </outline>
</glyph>
<glyph name="equal" format="2">
  <advance width="551"/>
  <unicode hex="003D"/>
  <outline>
    <contour>
      <point x="493" y="198" type="line"/>
      <point x="493" y="142" type="line"/>
      <point x="59" y="142" type="line"/>
      <point x="59" y="198" type="line"/>
    </contour>
    <contour>
      <point x="493" y="323" type="line"/>
      <point x="493" y="266" type="line"/>
      <point x="59" y="266" type="line"/>
      <point x="59" y="323" type="line"/>
    </contour>
  </outline>
</glyph>
<glyph name="greater" format="2">
  <advance width="512"/>
  <unicode hex="003E"/>
  <outline>
    <contour>
      <point x="359" y="238" type="line"/>
      <point x="42" y="354" type="line"/>
      <point x="42" y="416" type="line"/>
      <point x="471" y="259" type="line"/>
      <point x="471" y="215" type="line"/>
      <point x="42" y="60" type="line"/>
      <point x="42" y="122" type="line"/>
    </contour>
  </outline>
</glyph>
<glyph name="question" format="2">
  <advance width="430"/>
  <unicode hex="003F"/>
  <outline>
    <contour>
      <point x="127.0" y="570.0" type="curve" smooth="yes"/>
      <point x="127.0" y="549.0"/>
      <point x="136.0" y="543.0"/>
      <point x="136.0" y="516.0" type="curve" smooth="yes"/>
      <point x="136.0" y="491.0"/>
      <point x="113.0" y="475.0"/>
      <point x="83.0" y="475.0" type="curve" smooth="yes"/>
      <point x="59.0" y="475.0"/>
      <point x="26.0" y="495.0"/>
      <point x="26.0" y="533.0" type="curve" smooth="yes"/>
      <point x="26.0" y="568.0"/>
      <point x="45.0" y="591.0"/>
      <point x="79.0" y="619.0" type="curve" smooth="yes"/>
      <point x="109.0" y="644.0"/>
      <point x="155.0" y="658.0"/>
      <point x="216.0" y="658.0" type="curve" smooth="yes"/>
      <point x="330.0" y="658.0"/>
      <point x="401.0" y="597.0"/>
      <point x="401.0" y="505.0" type="curve" smooth="yes"/>
      <point x="401.0" y="431.0"/>
      <point x="338.0" y="385.0"/>
      <point x="288.0" y="348.0" type="curve" smooth="yes"/>
      <point x="260.0" y="328.0"/>
      <point x="225.0" y="301.0"/>
      <point x="225.0" y="229.0" type="curve" smooth="yes"/>
      <point x="225.0" y="216.0" type="line" smooth="yes"/>
      <point x="225.0" y="191.0"/>
      <point x="220.5" y="182.0"/>
      <point x="192.0" y="182.0" type="curve" smooth="yes"/>
      <point x="165.5" y="182.0"/>
      <point x="160.0" y="194.0"/>
      <point x="160.0" y="216.0" type="curve" smooth="yes"/>
      <point x="160.0" y="231.0" type="line" smooth="yes"/>
      <point x="160.0" y="272.0"/>
      <point x="160.0" y="329.0"/>
      <point x="231.0" y="394.0" type="curve" smooth="yes"/>
      <point x="266.0" y="425.0"/>
      <point x="286.0" y="462.0"/>
      <point x="286.0" y="512.0" type="curve" smooth="yes"/>
      <point x="286.0" y="570.0"/>
      <point x="262.1" y="622.0"/>
      <point x="206.0" y="622.0" type="curve" smooth="yes"/>
      <point x="162.0" y="622.0"/>
      <point x="127.0" y="598.0"/>
    </contour>
    <component base="period" xOffset="72.0"/>
  </outline>
</glyph>
<glyph name="at" format="2">
  <advance width="988"/>
  <unicode hex="0040"/>
  <outline>
    <contour>
      <point x="586.0" y="320.0" type="curve" smooth="yes"/>
      <point x="586.0" y="355.0"/>
      <point x="582.0" y="381.0"/>
      <point x="557.0" y="381.0" type="curve" smooth="yes"/>
      <point x="543.0" y="381.0"/>
      <point x="511.0" y="381.0"/>
      <point x="476.0" y="343.0" type="curve" smooth="yes"/>
      <point x="431.0" y="295.0"/>
      <point x="414.0" y="227.0"/>
      <point x="414.0" y="164.0" type="curve" smooth="yes"/>
      <point x="414.0" y="117.0"/>
      <point x="423.0" y="72.0"/>
      <point x="470.0" y="72.0" type="curve" smooth="yes"/>
      <point x="500.0" y="72.0"/>
      <point x="530.0" y="107.0"/>
      <point x="557.0" y="193.0" type="curve" smooth="yes"/>
      <point x="567.0" y="226.0"/>
      <point x="586.0" y="296.0"/>
    </contour>
    <contour>
      <point x="640.0" y="80.0" type="curve" smooth="yes"/>
      <point x="640.0" y="67.0"/>
      <point x="647.0" y="66.0"/>
      <point x="658.0" y="66.0" type="curve" smooth="yes"/>
      <point x="695.0" y="66.0"/>
      <point x="805.0" y="129.0"/>
      <point x="805.0" y="273.0" type="curve" smooth="yes"/>
      <point x="805.0" y="494.0"/>
      <point x="621.0" y="584.0"/>
      <point x="504.0" y="584.0" type="curve" smooth="yes"/>
      <point x="349.0" y="584.0"/>
      <point x="186.0" y="459.0"/>
      <point x="186.0" y="228.0" type="curve" smooth="yes"/>
      <point x="186.0" y="80.0"/>
      <point x="277.0" y="-121.0"/>
      <point x="521.0" y="-121.0" type="curve" smooth="yes"/>
      <point x="598.0" y="-121.0"/>
      <point x="669.0" y="-97.0"/>
      <point x="731.0" y="-46.0" type="curve"/>
      <point x="752.0" y="-75.0" type="line"/>
      <point x="688.0" y="-124.0"/>
      <point x="625.0" y="-160.0"/>
      <point x="502.0" y="-160.0" type="curve" smooth="yes"/>
      <point x="265.0" y="-160.0"/>
      <point x="92.0" y="-7.0"/>
      <point x="92.0" y="221.0" type="curve" smooth="yes"/>
      <point x="92.0" y="428.0"/>
      <point x="260.0" y="621.0"/>
      <point x="513.0" y="621.0" type="curve" smooth="yes"/>
      <point x="739.0" y="621.0"/>
      <point x="890.0" y="476.0"/>
      <point x="890.0" y="287.0" type="curve" smooth="yes"/>
      <point x="890.0" y="147.0"/>
      <point x="772.0" y="24.0"/>
      <point x="638.0" y="24.0" type="curve" smooth="yes"/>
      <point x="606.0" y="24.0"/>
      <point x="573.0" y="27.0"/>
      <point x="560.0" y="39.0" type="curve" smooth="yes"/>
      <point x="545.4" y="52.5"/>
      <point x="540.0" y="67.0"/>
      <point x="540.0" y="86.0" type="curve"/>
      <point x="507.0" y="44.0"/>
      <point x="458.0" y="26.0"/>
      <point x="434.0" y="26.0" type="curve" smooth="yes"/>
      <point x="388.2" y="26.0"/>
      <point x="358.4" y="34.7"/>
      <point x="336.0" y="54.0" type="curve" smooth="yes"/>
      <point x="307.0" y="79.0"/>
      <point x="297.0" y="122.0"/>
      <point x="297.0" y="158.0" type="curve" smooth="yes"/>
      <point x="297.0" y="286.0"/>
      <point x="439.0" y="415.0"/>
      <point x="554.0" y="415.0" type="curve" smooth="yes"/>
      <point x="602.0" y="415.0"/>
      <point x="631.0" y="398.0"/>
      <point x="648.0" y="377.0" type="curve"/>
      <point x="685.0" y="410.0" type="line"/>
      <point x="712.0" y="399.0" type="line"/>
      <point x="653.0" y="146.0" type="line" smooth="yes"/>
      <point x="647.0" y="120.0"/>
      <point x="640.0" y="91.0"/>
    </contour>
  </outline>
</glyph>
<glyph name="A" format="2">
  <advance width="740"/>
  <unicode hex="0041"/>
  <anchor x="354" y="850" name="above"/>
  <anchor x="308" y="-110" name="below"/>
  <anchor x="116" y="5" name="cedilla"/>
  <outline>
    <contour>
      <point x="273" y="283" type="line" smooth="yes"/>
      <point x="425" y="283" type="line"/>
      <point x="343" y="520" type="line"/>
      <point x="336" y="520" type="line"/>
      <point x="248" y="296" type="line" smooth="yes"/>
      <point x="244" y="286"/>
      <point x="251" y="283"/>
      <point x="273" y="283" type="curve" smooth="yes"/>
    </contour>
    <contour>
      <point x="165" y="79" type="line" smooth="yes"/>
      <point x="149" y="38"/>
      <point x="196" y="35"/>
      <point x="234" y="32" type="curve"/>
      <point x="240" y="26"/>
      <point x="240" y="4"/>
      <point x="234" y="-2" type="curve"/>
      <point x="197" y="-1"/>
      <point x="142" y="0"/>
      <point x="101" y="0" type="curve" smooth="yes"/>
      <point x="62" y="0"/>
      <point x="44" y="-1"/>
      <point x="7" y="-2" type="curve"/>
      <point x="1" y="4"/>
      <point x="1" y="26"/>
      <point x="7" y="32" type="curve"/>
      <point x="50" y="35"/>
      <point x="81" y="40"/>
      <point x="107" y="102" type="curve" smooth="yes"/>
      <point x="324" y="614" type="line"/>
      <point x="359" y="614"/>
      <point x="419" y="649"/>
      <point x="434" y="658" type="curve"/>
      <point x="640" y="86" type="line" smooth="yes"/>
      <point x="658" y="35"/>
      <point x="691" y="36"/>
      <point x="730" y="32" type="curve"/>
      <point x="736" y="26"/>
      <point x="736" y="4"/>
      <point x="730" y="-2" type="curve"/>
      <point x="693" y="-1"/>
      <point x="637" y="0"/>
      <point x="596" y="0" type="curve" smooth="yes"/>
      <point x="557" y="0"/>
      <point x="462" y="-1"/>
      <point x="425" y="-2" type="curve"/>
      <point x="419" y="4"/>
      <point x="419" y="26"/>
      <point x="425" y="32" type="curve"/>
      <point x="473" y="35"/>
      <point x="513" y="31"/>
      <point x="499" y="72" type="curve" smooth="yes"/>
      <point x="443" y="235" type="line"/>
      <point x="253" y="235" type="line" smooth="yes"/>
      <point x="229" y="235"/>
      <point x="223" y="231"/>
      <point x="218" y="218" type="curve" smooth="yes"/>
    </contour>
  </outline>
</glyph>
<glyph name="B" format="2">
  <advance width="654"/>
  <unicode hex="0042"/>
  <anchor x="268.0" y="-110.0" name="below"/>
  <anchor x="250.0" y="0.0" name="cedilla"/>
  <anchor x="146.0" y="185.0" name="middle"/>
  <anchor x="267.0" y="850.0" name="above"/>
  <anchor x="509.0" y="732.0" name="right"/>
  <outline>
    <contour>
      <point x="242.0" y="562.0" type="curve" smooth="yes"/>
      <point x="242.0" y="376.0" type="line"/>
      <point x="298.0" y="376.0" type="line" smooth="yes"/>
      <point x="369.0" y="376.0"/>
      <point x="414.0" y="409.0"/>
      <point x="414.0" y="489.0" type="curve" smooth="yes"/>
      <point x="414.0" y="587.0"/>
      <point x="358.0" y="605.0"/>
      <point x="312.0" y="605.0" type="curve" smooth="yes"/>
      <point x="247.0" y="605.0"/>
      <point x="242.0" y="591.0"/>
    </contour>
    <contour>
      <point x="242.0" y="334.0" type="line"/>
      <point x="242.0" y="84.0" type="line" smooth="yes"/>
      <point x="242.0" y="55.0"/>
      <point x="248.0" y="40.0"/>
      <point x="308.0" y="40.0" type="curve" smooth="yes"/>
      <point x="440.0" y="40.0"/>
      <point x="461.0" y="127.0"/>
      <point x="461.0" y="187.0" type="curve" smooth="yes"/>
      <point x="461.0" y="273.0"/>
      <point x="416.0" y="334.0"/>
      <point x="313.0" y="334.0" type="curve" smooth="yes"/>
    </contour>
    <contour>
      <point x="173.0" y="645.0" type="curve" smooth="yes"/>
      <point x="204.7" y="645.0"/>
      <point x="265.0" y="647.0"/>
      <point x="315.0" y="647.0" type="curve" smooth="yes"/>
      <point x="516.8" y="647.0"/>
      <point x="554.0" y="560.0"/>
      <point x="554.0" y="491.0" type="curve" smooth="yes"/>
      <point x="554.0" y="440.0"/>
      <point x="512.0" y="385.0"/>
      <point x="458.0" y="361.0" type="curve"/>
      <point x="458.0" y="359.0" type="line"/>
      <point x="564.0" y="331.0"/>
      <point x="608.0" y="274.0"/>
      <point x="608.0" y="186.0" type="curve" smooth="yes"/>
      <point x="608.0" y="84.0"/>
      <point x="542.0" y="-2.0"/>
      <point x="337.0" y="-2.0" type="curve" smooth="yes"/>
      <point x="277.0" y="-2.0"/>
      <point x="213.0" y="0.0"/>
      <point x="173.0" y="0.0" type="curve" smooth="yes"/>
      <point x="133.0" y="0.0"/>
      <point x="19.0" y="-2.0"/>
      <point x="19.0" y="-2.0" type="curve"/>
      <point x="9.0" y="4.0"/>
      <point x="9.0" y="26.0"/>
      <point x="19.0" y="32.0" type="curve"/>
      <point x="74.0" y="35.0"/>
      <point x="102.0" y="39.0"/>
      <point x="102.0" y="122.0" type="curve" smooth="yes"/>
      <point x="102.0" y="523.0" type="line" smooth="yes"/>
      <point x="102.0" y="606.0"/>
      <point x="74.0" y="610.0"/>
      <point x="19.0" y="613.0" type="curve"/>
      <point x="9.0" y="619.0"/>
      <point x="9.0" y="641.0"/>
      <point x="19.0" y="647.0" type="curve"/>
      <point x="19.0" y="647.0"/>
      <point x="133.0" y="645.0"/>
    </contour>
  </outline>
</glyph>
<glyph name="C" format="2">
  <advance width="706"/>
  <unicode hex="0043"/>
  <anchor x="363.0" y="-110.0" name="below"/>
  <anchor x="356.0" y="-7.0" name="cedilla"/>
  <anchor x="346.0" y="315.0" name="middle"/>
  <anchor x="340.0" y="850.0" name="above"/>
  <anchor x="609.0" y="732.0" name="right"/>
  <outline>
    <contour>
      <point x="397.0" y="-10.0" type="curve" smooth="yes"/>
      <point x="300.0" y="-10.0"/>
      <point x="222.0" y="7.0"/>
      <point x="158.0" y="53.0" type="curve" smooth="yes"/>
      <point x="77.8" y="110.7"/>
      <point x="37.0" y="221.1"/>
      <point x="37.0" y="315.0" type="curve" smooth="yes"/>
      <point x="37.0" y="535.2"/>
      <point x="202.0" y="658.0"/>
      <point x="398.0" y="658.0" type="curve" smooth="yes"/>
      <point x="521.0" y="658.0"/>
      <point x="566.0" y="618.0"/>
      <point x="617.0" y="613.0" type="curve"/>
      <point x="626.0" y="558.0"/>
      <point x="634.0" y="510.0"/>
      <point x="639.0" y="458.0" type="curve"/>
      <point x="627.7" y="452.0"/>
      <point x="608.0" y="449.0"/>
      <point x="596.0" y="453.0" type="curve"/>
      <point x="570.0" y="539.0"/>
      <point x="525.0" y="617.0"/>
      <point x="387.0" y="617.0" type="curve" smooth="yes"/>
      <point x="268.0" y="617.0"/>
      <point x="188.0" y="489.4"/>
      <point x="188.0" y="334.0" type="curve" smooth="yes"/>
      <point x="188.0" y="178.0"/>
      <point x="280.0" y="42.0"/>
      <point x="396.0" y="42.0" type="curve" smooth="yes"/>
      <point x="466.0" y="42.0"/>
      <point x="547.0" y="68.0"/>
      <point x="618.0" y="146.0" type="curve"/>
      <point x="629.0" y="146.0"/>
      <point x="646.0" y="134.0"/>
      <point x="651.0" y="125.0" type="curve"/>
      <point x="583.0" y="36.0"/>
      <point x="494.0" y="-10.0"/>
    </contour>
  </outline>
</glyph>
<glyph name="D" format="2">
  <advance width="734"/>
  <unicode hex="0044"/>
  <anchor x="279.0" y="-110.0" name="below"/>
  <anchor x="279.0" y="4.0" name="cedilla"/>
  <anchor x="346.0" y="315.0" name="middle"/>
  <anchor x="306.0" y="850.0" name="above"/>
  <anchor x="619.0" y="732.0" name="right"/>
  <outline>
    <contour>
      <point x="254.0" y="119.0" type="line" smooth="yes"/>
      <point x="254.0" y="52.0"/>
      <point x="280.0" y="40.0"/>
      <point x="350.0" y="40.0" type="curve" smooth="yes"/>
      <point x="426.0" y="40.0"/>
      <point x="535.0" y="102.0"/>
      <point x="535.0" y="284.0" type="curve" smooth="yes"/>
      <point x="535.0" y="435.0"/>
      <point x="513.0" y="604.0"/>
      <point x="316.0" y="604.0" type="curve" smooth="yes"/>
      <point x="280.0" y="604.0"/>
      <point x="254.0" y="584.0"/>
      <point x="254.0" y="529.0" type="curve" smooth="yes"/>
    </contour>
    <contour>
      <point x="185.0" y="0.0" type="curve" smooth="yes"/>
      <point x="145.0" y="0.0"/>
      <point x="31.0" y="-2.0"/>
      <point x="31.0" y="-2.0" type="curve"/>
      <point x="21.0" y="4.0"/>
      <point x="21.0" y="26.0"/>
      <point x="31.0" y="32.0" type="curve"/>
      <point x="86.0" y="35.0"/>
      <point x="114.0" y="39.0"/>
      <point x="114.0" y="122.0" type="curve" smooth="yes"/>
      <point x="114.0" y="523.0" type="line" smooth="yes"/>
      <point x="114.0" y="606.0"/>
      <point x="86.0" y="610.0"/>
      <point x="31.0" y="613.0" type="curve"/>
      <point x="21.0" y="619.0"/>
      <point x="21.0" y="641.0"/>
      <point x="31.0" y="647.0" type="curve"/>
      <point x="31.0" y="647.0"/>
      <point x="145.0" y="645.0"/>
      <point x="185.0" y="645.0" type="curve" smooth="yes"/>
      <point x="225.0" y="645.0"/>
      <point x="267.0" y="646.0"/>
      <point x="320.0" y="646.0" type="curve" smooth="yes"/>
      <point x="566.0" y="646.0"/>
      <point x="686.0" y="494.0"/>
      <point x="686.0" y="309.0" type="curve" smooth="yes"/>
      <point x="686.0" y="207.4"/>
      <point x="653.0" y="124.0"/>
      <point x="605.0" y="82.0" type="curve" smooth="yes"/>
      <point x="534.3" y="20.2"/>
      <point x="434.5" y="-2.0"/>
      <point x="347.0" y="-2.0" type="curve" smooth="yes"/>
      <point x="307.0" y="-2.0"/>
      <point x="225.0" y="0.0"/>
    </contour>
  </outline>
</glyph>
<glyph name="E" format="2">
  <advance width="609"/>
  <unicode hex="0045"/>
  <anchor x="284.0" y="-110.0" name="below"/>
  <anchor x="284.0" y="4.0" name="cedilla"/>
  <anchor x="278.0" y="850.0" name="above"/>
  <anchor x="524.0" y="732.0" name="right"/>
  <outline>
    <contour>
      <point x="323.0" y="365.0" type="line" smooth="yes"/>
      <point x="390.0" y="365.0"/>
      <point x="411.0" y="374.0"/>
      <point x="414.0" y="429.0" type="curve"/>
      <point x="420.0" y="435.0"/>
      <point x="451.0" y="435.0"/>
      <point x="457.0" y="429.0" type="curve"/>
      <point x="456.0" y="399.0"/>
      <point x="455.0" y="376.5"/>
      <point x="455.0" y="343.0" type="curve" smooth="yes"/>
      <point x="455.0" y="308.7"/>
      <point x="456.0" y="290.0"/>
      <point x="457.0" y="255.0" type="curve"/>
      <point x="451.0" y="249.0"/>
      <point x="420.0" y="249.0"/>
      <point x="414.0" y="255.0" type="curve"/>
      <point x="411.0" y="300.0"/>
      <point x="392.0" y="319.0"/>
      <point x="323.0" y="319.0" type="curve" smooth="yes"/>
      <point x="242.0" y="319.0" type="line"/>
      <point x="242.0" y="90.0" type="line" smooth="yes"/>
      <point x="242.0" y="63.0"/>
      <point x="261.0" y="42.0"/>
      <point x="283.0" y="42.0" type="curve" smooth="yes"/>
      <point x="384.0" y="42.0" type="line" smooth="yes"/>
      <point x="460.0" y="42.0"/>
      <point x="505.0" y="98.0"/>
      <point x="525.0" y="170.0" type="curve"/>
      <point x="538.1" y="173.2"/>
      <point x="559.6" y="170.9"/>
      <point x="570.0" y="165.0" type="curve"/>
      <point x="562.0" y="114.0"/>
      <point x="557.0" y="48.0"/>
      <point x="543.0" y="-2.0" type="curve"/>
      <point x="543.0" y="-2.0"/>
      <point x="453.0" y="0.0"/>
      <point x="405.0" y="0.0" type="curve" smooth="yes"/>
      <point x="170.0" y="0.0" type="line"/>
      <point x="170.0" y="0.0"/>
      <point x="64.0" y="-1.0"/>
      <point x="15.0" y="-2.0" type="curve"/>
      <point x="9.0" y="4.0"/>
      <point x="9.0" y="26.0"/>
      <point x="15.0" y="32.0" type="curve"/>
      <point x="85.0" y="35.0"/>
      <point x="102.0" y="39.0"/>
      <point x="102.0" y="122.0" type="curve" smooth="yes"/>
      <point x="102.0" y="522.0" type="line" smooth="yes"/>
      <point x="102.0" y="605.0"/>
      <point x="85.0" y="610.0"/>
      <point x="15.0" y="613.0" type="curve"/>
      <point x="9.0" y="619.0"/>
      <point x="9.0" y="641.0"/>
      <point x="15.0" y="647.0" type="curve"/>
      <point x="65.0" y="646.0"/>
      <point x="169.0" y="645.0"/>
      <point x="169.0" y="645.0" type="curve"/>
      <point x="464.0" y="645.0" type="line" smooth="yes"/>
      <point x="488.0" y="645.0"/>
      <point x="496.0" y="646.0"/>
      <point x="513.0" y="649.0" type="curve" smooth="yes"/>
      <point x="516.0" y="649.0"/>
      <point x="517.0" y="648.0"/>
      <point x="517.0" y="646.0" type="curve" smooth="yes"/>
      <point x="519.0" y="638.0"/>
      <point x="524.0" y="542.0"/>
      <point x="529.0" y="501.0" type="curve"/>
      <point x="519.2" y="496.3"/>
      <point x="498.4" y="494.2"/>
      <point x="486.0" y="496.0" type="curve"/>
      <point x="464.0" y="565.0"/>
      <point x="443.0" y="603.0"/>
      <point x="368.0" y="603.0" type="curve" smooth="yes"/>
      <point x="283.0" y="603.0" type="line" smooth="yes"/>
      <point x="259.0" y="603.0"/>
      <point x="242.0" y="578.0"/>
      <point x="242.0" y="554.0" type="curve" smooth="yes"/>
      <point x="242.0" y="365.0" type="line"/>
    </contour>
  </outline>
</glyph>
<glyph name="F" format="2">
  <advance width="545"/>
  <unicode hex="0046"/>
  <anchor x="281" y="850" name="above"/>
  <anchor x="206" y="-110" name="below"/>
  <anchor x="150" y="-1" name="cedilla"/>
  <anchor x="504" y="732" name="right"/>
  <outline>
    <contour>
      <point x="242" y="122" type="line" smooth="yes"/>
      <point x="242" y="39"/>
      <point x="280" y="35"/>
      <point x="335" y="32" type="curve"/>
      <point x="345" y="26"/>
      <point x="345" y="4"/>
      <point x="335" y="-2" type="curve"/>
      <point x="295" y="-1"/>
      <point x="213" y="0"/>
      <point x="173" y="0" type="curve" smooth="yes"/>
      <point x="133" y="0"/>
      <point x="59" y="-1"/>
      <point x="19" y="-2" type="curve"/>
      <point x="9" y="4"/>
      <point x="9" y="26"/>
      <point x="19" y="32" type="curve"/>
      <point x="74" y="35"/>
      <point x="102" y="39"/>
      <point x="102" y="122" type="curve" smooth="yes"/>
      <point x="102" y="522" type="line" smooth="yes"/>
      <point x="102" y="605"/>
      <point x="85" y="610"/>
      <point x="15" y="613" type="curve"/>
      <point x="9" y="619"/>
      <point x="9" y="641"/>
      <point x="15" y="647" type="curve"/>
      <point x="65" y="646"/>
      <point x="169" y="645"/>
      <point x="169" y="645" type="curve"/>
      <point x="466" y="645" type="line" smooth="yes"/>
      <point x="490" y="645"/>
      <point x="498" y="646"/>
      <point x="515" y="649" type="curve" smooth="yes"/>
      <point x="518" y="649"/>
      <point x="519" y="648"/>
      <point x="519" y="646" type="curve" smooth="yes"/>
      <point x="520" y="638"/>
      <point x="528" y="540"/>
      <point x="531" y="496" type="curve"/>
      <point x="521" y="491"/>
      <point x="508" y="489"/>
      <point x="496" y="491" type="curve"/>
      <point x="474" y="560"/>
      <point x="448" y="603"/>
      <point x="373" y="603" type="curve" smooth="yes"/>
      <point x="283" y="603" type="line" smooth="yes"/>
      <point x="259" y="603"/>
      <point x="242" y="578"/>
      <point x="242" y="554" type="curve" smooth="yes"/>
      <point x="242" y="345" type="line"/>
      <point x="323" y="345" type="line" smooth="yes"/>
      <point x="390" y="345"/>
      <point x="411" y="354"/>
      <point x="414" y="409" type="curve"/>
      <point x="420" y="415"/>
      <point x="451" y="415"/>
      <point x="457" y="409" type="curve"/>
      <point x="456" y="380"/>
      <point x="455" y="346"/>
      <point x="455" y="323" type="curve" smooth="yes"/>
      <point x="455" y="300"/>
      <point x="455" y="270"/>
      <point x="457" y="235" type="curve"/>
      <point x="451" y="229"/>
      <point x="420" y="229"/>
      <point x="414" y="235" type="curve"/>
      <point x="411" y="280"/>
      <point x="392" y="299"/>
      <point x="323" y="299" type="curve" smooth="yes"/>
      <point x="242" y="299" type="line"/>
    </contour>
  </outline>
</glyph>
<glyph name="G" format="2">
  <advance width="732"/>
  <unicode hex="0047"/>
  <anchor x="365" y="850" name="above"/>
  <anchor x="367" y="-110" name="below"/>
  <anchor x="367" y="2" name="cedilla"/>
  <anchor x="620" y="606" name="komb_OR"/>
  <anchor x="308" y="335" name="middle"/>
  <anchor x="631" y="732" name="right"/>
  <outline>
    <contour>
      <point x="395" y="658" type="line" smooth="yes"/>
      <point x="520" y="658"/>
      <point x="572" y="623"/>
      <point x="625" y="623" type="curve"/>
      <point x="632" y="551"/>
      <point x="637" y="501"/>
      <point x="646" y="459" type="curve"/>
      <point x="634" y="453"/>
      <point x="618" y="451"/>
      <point x="602" y="453" type="curve"/>
      <point x="577" y="539"/>
      <point x="510" y="616"/>
      <point x="381" y="616" type="curve" smooth="yes"/>
      <point x="328" y="616"/>
      <point x="273" y="595"/>
      <point x="234" y="542" type="curve" smooth="yes"/>
      <point x="197" y="491"/>
      <point x="184" y="413"/>
      <point x="184" y="327" type="curve" smooth="yes"/>
      <point x="184" y="195"/>
      <point x="238" y="32"/>
      <point x="407" y="32" type="curve" smooth="yes"/>
      <point x="458" y="32"/>
      <point x="482" y="42"/>
      <point x="514" y="74" type="curve"/>
      <point x="514" y="223" type="line" smooth="yes"/>
      <point x="514" y="263"/>
      <point x="488" y="267"/>
      <point x="436" y="271" type="curve"/>
      <point x="430" y="277"/>
      <point x="430" y="302"/>
      <point x="436" y="308" type="curve"/>
      <point x="481" y="307"/>
      <point x="547" y="306"/>
      <point x="584" y="306" type="curve" smooth="yes"/>
      <point x="622" y="306"/>
      <point x="669" y="307"/>
      <point x="697" y="308" type="curve"/>
      <point x="703" y="302"/>
      <point x="703" y="277"/>
      <point x="697" y="271" type="curve"/>
      <point x="669" y="268"/>
      <point x="654" y="258"/>
      <point x="654" y="223" type="curve" smooth="yes"/>
      <point x="654" y="106" type="line" smooth="yes"/>
      <point x="654" y="95"/>
      <point x="659" y="87"/>
      <point x="669" y="78" type="curve"/>
      <point x="605" y="24"/>
      <point x="497" y="-10"/>
      <point x="385" y="-10" type="curve" smooth="yes"/>
      <point x="280" y="-10"/>
      <point x="201" y="12"/>
      <point x="138" y="66" type="curve" smooth="yes"/>
      <point x="69" y="124"/>
      <point x="33" y="217"/>
      <point x="33" y="307" type="curve" smooth="yes"/>
      <point x="33" y="415"/>
      <point x="72" y="505"/>
      <point x="139" y="565" type="curve" smooth="yes"/>
      <point x="208" y="627"/>
      <point x="297" y="658"/>
      <point x="395" y="658" type="curve" smooth="yes"/>
    </contour>
  </outline>
</glyph>
<glyph name="H" format="2">
  <advance width="817"/>
  <unicode hex="0048"/>
  <anchor x="409.0" y="-110.0" name="below"/>
  <anchor x="150.0" y="0.0" name="cedilla"/>
  <anchor x="356.0" y="485.0" name="middle"/>
  <anchor x="361.0" y="850.0" name="above"/>
  <anchor x="729.0" y="732.0" name="right"/>
  <outline>
    <contour>
      <point x="564.0" y="523.0" type="line" smooth="yes"/>
      <point x="564.0" y="606.0"/>
      <point x="536.0" y="610.0"/>
      <point x="481.0" y="613.0" type="curve"/>
      <point x="471.0" y="619.0"/>
      <point x="471.0" y="641.0"/>
      <point x="481.0" y="647.0" type="curve"/>
      <point x="521.0" y="646.0"/>
      <point x="595.0" y="645.0"/>
      <point x="635.0" y="645.0" type="curve" smooth="yes"/>
      <point x="675.0" y="645.0"/>
      <point x="747.0" y="646.0"/>
      <point x="787.0" y="647.0" type="curve"/>
      <point x="797.0" y="641.0"/>
      <point x="797.0" y="619.0"/>
      <point x="787.0" y="613.0" type="curve"/>
      <point x="732.0" y="610.0"/>
      <point x="704.0" y="606.0"/>
      <point x="704.0" y="523.0" type="curve" smooth="yes"/>
      <point x="704.0" y="122.0" type="line" smooth="yes"/>
      <point x="704.0" y="39.0"/>
      <point x="732.0" y="35.0"/>
      <point x="787.0" y="32.0" type="curve"/>
      <point x="797.0" y="26.0"/>
      <point x="797.0" y="4.0"/>
      <point x="787.0" y="-2.0" type="curve"/>
      <point x="747.0" y="-1.0"/>
      <point x="675.0" y="0.0"/>
      <point x="635.0" y="0.0" type="curve" smooth="yes"/>
      <point x="595.0" y="0.0"/>
      <point x="521.0" y="-1.0"/>
      <point x="481.0" y="-2.0" type="curve"/>
      <point x="471.0" y="4.0"/>
      <point x="471.0" y="26.0"/>
      <point x="481.0" y="32.0" type="curve"/>
      <point x="536.0" y="35.0"/>
      <point x="564.0" y="39.0"/>
      <point x="564.0" y="122.0" type="curve" smooth="yes"/>
      <point x="564.0" y="319.0" type="line"/>
      <point x="254.0" y="319.0" type="line"/>
      <point x="254.0" y="122.0" type="line" smooth="yes"/>
      <point x="254.0" y="39.0"/>
      <point x="282.0" y="35.0"/>
      <point x="337.0" y="32.0" type="curve"/>
      <point x="347.0" y="26.0"/>
      <point x="347.0" y="4.0"/>
      <point x="337.0" y="-2.0" type="curve"/>
      <point x="297.0" y="-1.0"/>
      <point x="225.0" y="0.0"/>
      <point x="185.0" y="0.0" type="curve" smooth="yes"/>
      <point x="145.0" y="0.0"/>
      <point x="71.0" y="-1.0"/>
      <point x="31.0" y="-2.0" type="curve"/>
      <point x="21.0" y="4.0"/>
      <point x="21.0" y="26.0"/>
      <point x="31.0" y="32.0" type="curve"/>
      <point x="86.0" y="35.0"/>
      <point x="114.0" y="39.0"/>
      <point x="114.0" y="122.0" type="curve" smooth="yes"/>
      <point x="114.0" y="523.0" type="line" smooth="yes"/>
      <point x="114.0" y="606.0"/>
      <point x="86.0" y="610.0"/>
      <point x="31.0" y="613.0" type="curve"/>
      <point x="21.0" y="619.0"/>
      <point x="21.0" y="641.0"/>
      <point x="31.0" y="647.0" type="curve"/>
      <point x="71.0" y="646.0"/>
      <point x="145.0" y="645.0"/>
      <point x="185.0" y="645.0" type="curve" smooth="yes"/>
      <point x="225.0" y="645.0"/>
      <point x="297.0" y="646.0"/>
      <point x="337.0" y="647.0" type="curve"/>
      <point x="347.0" y="641.0"/>
      <point x="347.0" y="619.0"/>
      <point x="337.0" y="613.0" type="curve"/>
      <point x="282.0" y="610.0"/>
      <point x="254.0" y="606.0"/>
      <point x="254.0" y="523.0" type="curve" smooth="yes"/>
      <point x="254.0" y="367.0" type="line"/>
      <point x="564.0" y="367.0" type="line"/>
    </contour>
  </outline>
</glyph>
<glyph name="J" format="2">
  <advance width="373"/>
  <unicode hex="004A"/>
  <anchor x="186.0" y="315.0" name="middle"/>
  <anchor x="182.0" y="850.0" name="above"/>
  <outline>
    <contour>
      <point x="281.0" y="522.0" type="curve" smooth="yes"/>
      <point x="281.0" y="103.0" type="line" smooth="yes"/>
      <point x="281.0" y="-40.0"/>
      <point x="223.0" y="-92.0"/>
      <point x="179.0" y="-129.0" type="curve" smooth="yes"/>
      <point x="138.0" y="-164.0"/>
      <point x="87.0" y="-187.0"/>
      <point x="28.0" y="-187.0" type="curve" smooth="yes"/>
      <point x="-1.0" y="-187.0"/>
      <point x="-70.0" y="-163.0"/>
      <point x="-70.0" y="-116.0" type="curve" smooth="yes"/>
      <point x="-70.0" y="-87.0"/>
      <point x="-30.0" y="-60.0"/>
      <point x="-12.0" y="-60.0" type="curve" smooth="yes"/>
      <point x="28.0" y="-60.0"/>
      <point x="33.0" y="-88.0"/>
      <point x="46.0" y="-105.0" type="curve" smooth="yes"/>
      <point x="56.0" y="-118.0"/>
      <point x="74.0" y="-128.0"/>
      <point x="92.0" y="-128.0" type="curve" smooth="yes"/>
      <point x="135.0" y="-128.0"/>
      <point x="141.0" y="-99.0"/>
      <point x="141.0" y="81.0" type="curve" smooth="yes"/>
      <point x="141.0" y="522.0" type="line" smooth="yes"/>
      <point x="141.0" y="605.0"/>
      <point x="124.0" y="610.0"/>
      <point x="44.0" y="613.0" type="curve"/>
      <point x="38.0" y="619.0"/>
      <point x="38.0" y="641.0"/>
      <point x="44.0" y="647.0" type="curve"/>
      <point x="94.0" y="646.0"/>
      <point x="145.0" y="645.0"/>
      <point x="210.0" y="645.0" type="curve" smooth="yes"/>
      <point x="268.0" y="645.0"/>
      <point x="309.0" y="646.0"/>
      <point x="358.0" y="647.0" type="curve"/>
      <point x="364.0" y="641.0"/>
      <point x="364.0" y="619.0"/>
      <point x="358.0" y="613.0" type="curve"/>
      <point x="298.0" y="610.0"/>
      <point x="281.0" y="605.0"/>
    </contour>
  </outline>
</glyph>
<glyph name="K" format="2">
  <advance width="736"/>
  <unicode hex="004B"/>
  <anchor x="336.0" y="-110.0" name="below"/>
  <anchor x="142.0" y="-1.0" name="cedilla"/>
  <anchor x="330.0" y="850.0" name="above"/>
  <anchor x="643.0" y="732.0" name="right"/>
  <outline>
    <contour>
      <point x="108.0" y="523.0" type="line" smooth="yes"/>
      <point x="108.0" y="606.0"/>
      <point x="80.0" y="610.0"/>
      <point x="25.0" y="613.0" type="curve"/>
      <point x="15.0" y="619.0"/>
      <point x="15.0" y="641.0"/>
      <point x="25.0" y="647.0" type="curve"/>
      <point x="65.0" y="646.0"/>
      <point x="139.0" y="645.0"/>
      <point x="179.0" y="645.0" type="curve" smooth="yes"/>
      <point x="219.0" y="645.0"/>
      <point x="291.0" y="646.0"/>
      <point x="331.0" y="647.0" type="curve"/>
      <point x="341.0" y="641.0"/>
      <point x="341.0" y="619.0"/>
      <point x="331.0" y="613.0" type="curve"/>
      <point x="276.0" y="610.0"/>
      <point x="248.0" y="606.0"/>
      <point x="248.0" y="523.0" type="curve" smooth="yes"/>
      <point x="248.0" y="341.9" type="line"/>
      <point x="281.1" y="352.6"/>
      <point x="308.8" y="372.1"/>
      <point x="374.0" y="430.0" type="curve" smooth="yes"/>
      <point x="374.0" y="430.0"/>
      <point x="449.9" y="493.1"/>
      <point x="481.1" y="525.0" type="curve" smooth="yes"/>
      <point x="531.0" y="576.0"/>
      <point x="534.9" y="607.4"/>
      <point x="476.0" y="613.0" type="curve"/>
      <point x="470.0" y="619.0"/>
      <point x="470.0" y="641.0"/>
      <point x="476.0" y="647.0" type="curve"/>
      <point x="513.5" y="646.0"/>
      <point x="559.0" y="645.0"/>
      <point x="599.0" y="645.0" type="curve" smooth="yes"/>
      <point x="633.5" y="645.0"/>
      <point x="669.0" y="646.0"/>
      <point x="694.0" y="647.0" type="curve"/>
      <point x="700.0" y="641.0"/>
      <point x="700.0" y="619.0"/>
      <point x="694.0" y="613.0" type="curve"/>
      <point x="634.5" y="604.5"/>
      <point x="578.6" y="556.1"/>
      <point x="520.1" y="504.0" type="curve" smooth="yes"/>
      <point x="411.0" y="407.0" type="line" smooth="yes"/>
      <point x="400.2" y="397.4"/>
      <point x="399.0" y="385.0"/>
      <point x="399.0" y="378.0" type="curve" smooth="yes"/>
      <point x="399.0" y="370.0"/>
      <point x="411.9" y="353.3"/>
      <point x="429.0" y="333.0" type="curve" smooth="yes"/>
      <point x="648.0" y="74.0" type="line" smooth="yes"/>
      <point x="673.6" y="43.7"/>
      <point x="696.0" y="36.0"/>
      <point x="726.0" y="32.0" type="curve"/>
      <point x="732.0" y="26.0"/>
      <point x="732.0" y="4.0"/>
      <point x="726.0" y="-2.0" type="curve"/>
      <point x="687.0" y="-1.0"/>
      <point x="647.0" y="0.0"/>
      <point x="608.0" y="0.0" type="curve" smooth="yes"/>
      <point x="578.0" y="0.0"/>
      <point x="525.0" y="-1.0"/>
      <point x="505.0" y="-2.0" type="curve" smooth="yes"/>
      <point x="501.0" y="-2.0"/>
      <point x="500.4" y="1.0"/>
      <point x="500.0" y="4.0" type="curve" smooth="yes"/>
      <point x="498.0" y="20.0"/>
      <point x="484.0" y="48.0"/>
      <point x="464.0" y="74.0" type="curve" smooth="yes"/>
      <point x="313.0" y="271.0" type="line" smooth="yes"/>
      <point x="292.7" y="297.2"/>
      <point x="278.4" y="311.1"/>
      <point x="248.0" y="318.3" type="curve"/>
      <point x="248.0" y="122.0" type="line" smooth="yes"/>
      <point x="248.0" y="39.0"/>
      <point x="276.0" y="35.0"/>
      <point x="331.0" y="32.0" type="curve"/>
      <point x="341.0" y="26.0"/>
      <point x="341.0" y="4.0"/>
      <point x="331.0" y="-2.0" type="curve"/>
      <point x="291.0" y="-1.0"/>
      <point x="219.0" y="0.0"/>
      <point x="179.0" y="0.0" type="curve" smooth="yes"/>
      <point x="139.0" y="0.0"/>
      <point x="65.0" y="-1.0"/>
      <point x="25.0" y="-2.0" type="curve"/>
      <point x="15.0" y="4.0"/>
      <point x="15.0" y="26.0"/>
      <point x="25.0" y="32.0" type="curve"/>
      <point x="80.0" y="35.0"/>
      <point x="108.0" y="39.0"/>
      <point x="108.0" y="122.0" type="curve" smooth="yes"/>
    </contour>
  </outline>
</glyph>
<glyph name="M" format="2">
  <advance width="899"/>
  <unicode hex="004D"/>
  <anchor x="393.0" y="-110.0" name="below"/>
  <anchor x="107.0" y="2.0" name="cedilla"/>
  <anchor x="426.0" y="445.0" name="middle"/>
  <anchor x="431.0" y="850.0" name="above"/>
  <outline>
    <contour>
      <point x="662.7" y="116.0" type="curve" smooth="yes"/>
      <point x="637.0" y="534.0" type="line"/>
      <point x="635.0" y="534.0" type="line"/>
      <point x="410.0" y="5.0" type="line" smooth="yes"/>
      <point x="406.1" y="-4.1"/>
      <point x="397.0" y="-8.0"/>
      <point x="391.0" y="-8.0" type="curve" smooth="yes"/>
      <point x="385.0" y="-8.0"/>
      <point x="373.8" y="-2.1"/>
      <point x="371.0" y="5.0" type="curve" smooth="yes"/>
      <point x="174.4" y="498.0" type="line"/>
      <point x="170.2" y="498.0" type="line"/>
      <point x="144.0" y="123.0" type="line"/>
      <point x="138.6" y="66.7"/>
      <point x="144.0" y="37.0"/>
      <point x="210.0" y="32.0" type="curve"/>
      <point x="216.0" y="26.0"/>
      <point x="216.0" y="4.0"/>
      <point x="210.0" y="-2.0" type="curve"/>
      <point x="180.0" y="-1.0"/>
      <point x="120.0" y="0.0"/>
      <point x="96.0" y="0.0" type="curve" smooth="yes"/>
      <point x="72.0" y="0.0"/>
      <point x="40.0" y="-1.0"/>
      <point x="10.0" y="-2.0" type="curve"/>
      <point x="4.0" y="4.0"/>
      <point x="4.0" y="26.0"/>
      <point x="10.0" y="32.0" type="curve"/>
      <point x="67.0" y="37.0"/>
      <point x="79.0" y="61.1"/>
      <point x="84.9" y="121.0" type="curve" smooth="yes"/>
      <point x="125.0" y="533.0" type="line" smooth="yes"/>
      <point x="132.0" y="608.0"/>
      <point x="126.0" y="609.0"/>
      <point x="57.0" y="613.0" type="curve"/>
      <point x="51.0" y="619.0"/>
      <point x="51.0" y="641.0"/>
      <point x="57.0" y="647.0" type="curve"/>
      <point x="262.0" y="645.0" type="line"/>
      <point x="441.0" y="201.0" type="line"/>
      <point x="446.0" y="201.0" type="line"/>
      <point x="636.0" y="645.0" type="line"/>
      <point x="837.0" y="647.0" type="line"/>
      <point x="843.0" y="641.0"/>
      <point x="843.0" y="619.0"/>
      <point x="837.0" y="613.0" type="curve"/>
      <point x="769.0" y="609.0"/>
      <point x="764.0" y="596.0"/>
      <point x="768.3" y="542.0" type="curve" smooth="yes"/>
      <point x="798.1" y="121.0" type="line" smooth="yes"/>
      <point x="803.9" y="38.2"/>
      <point x="807.0" y="35.0"/>
      <point x="875.0" y="32.0" type="curve"/>
      <point x="881.0" y="26.0"/>
      <point x="881.0" y="4.0"/>
      <point x="875.0" y="-2.0" type="curve"/>
      <point x="841.8" y="-1.0"/>
      <point x="796.0" y="0.0"/>
      <point x="766.0" y="0.0" type="curve" smooth="yes"/>
      <point x="736.0" y="0.0"/>
      <point x="646.0" y="-1.0"/>
      <point x="599.0" y="-2.0" type="curve"/>
      <point x="593.0" y="4.0"/>
      <point x="593.0" y="26.0"/>
      <point x="599.0" y="32.0" type="curve"/>
      <point x="664.0" y="35.0"/>
      <point x="667.7" y="35.0"/>
    </contour>
  </outline>
</glyph>
<glyph name="N" format="2">
  <advance width="740"/>
  <unicode hex="004E"/>
  <anchor x="348.0" y="-110.0" name="below"/>
  <anchor x="125.0" y="-4.0" name="cedilla"/>
  <anchor x="356.0" y="320.0" name="middle"/>
  <anchor x="346.0" y="850.0" name="above"/>
  <outline>
    <contour>
      <point x="631.0" y="0.0" type="curve"/>
      <point x="612.8" y="-8.8"/>
      <point x="603.0" y="-12.0"/>
      <point x="567.8" y="-12.0" type="curve"/>
      <point x="567.8" y="-12.0"/>
      <point x="547.5" y="7.1"/>
      <point x="527.8" y="32.0" type="curve" smooth="yes"/>
      <point x="192.8" y="430.0" type="line" smooth="yes"/>
      <point x="182.3" y="442.5"/>
      <point x="173.5" y="450.0"/>
      <point x="169.0" y="450.0" type="curve" smooth="yes"/>
      <point x="163.0" y="450.0"/>
      <point x="161.0" y="440.0"/>
      <point x="161.0" y="430.0" type="curve" smooth="yes"/>
      <point x="161.0" y="133.0" type="line" smooth="yes"/>
      <point x="161.0" y="42.0"/>
      <point x="178.0" y="39.0"/>
      <point x="248.0" y="32.0" type="curve"/>
      <point x="254.0" y="26.0"/>
      <point x="254.0" y="4.0"/>
      <point x="248.0" y="-2.0" type="curve"/>
      <point x="198.0" y="-1.0"/>
      <point x="179.7" y="0.0"/>
      <point x="136.0" y="0.0" type="curve" smooth="yes"/>
      <point x="92.3" y="0.0"/>
      <point x="73.0" y="-1.0"/>
      <point x="24.0" y="-2.0" type="curve"/>
      <point x="18.0" y="4.0"/>
      <point x="18.0" y="26.0"/>
      <point x="24.0" y="32.0" type="curve"/>
      <point x="94.0" y="39.0"/>
      <point x="111.0" y="44.0"/>
      <point x="111.0" y="133.0" type="curve" smooth="yes"/>
      <point x="111.0" y="550.0" type="line"/>
      <point x="105.0" y="576.0"/>
      <point x="75.0" y="610.0"/>
      <point x="32.0" y="613.0" type="curve"/>
      <point x="26.0" y="619.0"/>
      <point x="26.0" y="641.0"/>
      <point x="32.0" y="647.0" type="curve"/>
      <point x="195.0" y="645.0" type="line"/>
      <point x="284.1" y="540.0" type="line"/>
      <point x="549.4" y="227.5" type="line" smooth="yes"/>
      <point x="563.0" y="211.4"/>
      <point x="576.0" y="205.5"/>
      <point x="576.0" y="231.0" type="curve" smooth="yes"/>
      <point x="576.0" y="512.0" type="line" smooth="yes"/>
      <point x="576.0" y="603.0"/>
      <point x="559.0" y="606.0"/>
      <point x="489.0" y="613.0" type="curve"/>
      <point x="483.0" y="619.0"/>
      <point x="483.0" y="641.0"/>
      <point x="489.0" y="647.0" type="curve"/>
      <point x="539.0" y="646.0"/>
      <point x="559.8" y="645.0"/>
      <point x="605.0" y="645.0" type="curve" smooth="yes"/>
      <point x="647.1" y="645.0"/>
      <point x="664.0" y="646.0"/>
      <point x="713.0" y="647.0" type="curve"/>
      <point x="719.0" y="641.0"/>
      <point x="719.0" y="619.0"/>
      <point x="713.0" y="613.0" type="curve"/>
      <point x="643.0" y="606.0"/>
      <point x="626.0" y="601.0"/>
      <point x="626.0" y="512.0" type="curve" smooth="yes"/>
      <point x="626.0" y="102.0" type="line" smooth="yes"/>
      <point x="626.0" y="71.0"/>
      <point x="631.0" y="0.0"/>
    </contour>
  </outline>
</glyph>
<glyph name="O" format="2">
  <advance width="730"/>
  <unicode hex="004F"/>
  <anchor x="350.0" y="-110.0" name="below"/>
  <anchor x="350.0" y="0.0" name="cedilla"/>
  <anchor x="346.0" y="322.0" name="middle"/>
  <anchor x="335.0" y="850.0" name="above"/>
  <anchor x="620.0" y="606.0" name="komb_OR"/>
  <outline>
    <contour>
      <point x="351.0" y="616.0" type="curve" smooth="yes"/>
      <point x="261.9" y="616.0"/>
      <point x="188.0" y="533.0"/>
      <point x="188.0" y="329.0" type="curve" smooth="yes"/>
      <point x="188.0" y="141.0"/>
      <point x="274.0" y="32.0"/>
      <point x="384.0" y="32.0" type="curve" smooth="yes"/>
      <point x="485.0" y="32.0"/>
      <point x="543.0" y="141.9"/>
      <point x="543.0" y="308.0" type="curve" smooth="yes"/>
      <point x="543.0" y="511.0"/>
      <point x="458.0" y="616.0"/>
    </contour>
    <contour>
      <point x="694.0" y="329.0" type="curve" smooth="yes"/>
      <point x="694.0" y="230.9"/>
      <point x="663.2" y="148.5"/>
      <point x="608.0" y="89.0" type="curve" smooth="yes"/>
      <point x="550.6" y="27.1"/>
      <point x="467.0" y="-10.0"/>
      <point x="364.0" y="-10.0" type="curve" smooth="yes"/>
      <point x="194.0" y="-10.0"/>
      <point x="37.0" y="111.0"/>
      <point x="37.0" y="309.0" type="curve" smooth="yes"/>
      <point x="37.0" y="401.4"/>
      <point x="66.2" y="484.2"/>
      <point x="118.1" y="546.0" type="curve" smooth="yes"/>
      <point x="176.2" y="615.3"/>
      <point x="262.6" y="658.0"/>
      <point x="363.0" y="658.0" type="curve" smooth="yes"/>
      <point x="546.0" y="658.0"/>
      <point x="694.0" y="528.0"/>
    </contour>
  </outline>
</glyph>
<glyph name="P" format="2">
  <advance width="614"/>
  <unicode hex="0050"/>
  <anchor x="277" y="850" name="above"/>
  <anchor x="240" y="-110" name="below"/>
  <anchor x="150" y="-3" name="cedilla"/>
  <anchor x="286" y="464" name="middle"/>
  <anchor x="509" y="732" name="right"/>
  <outline>
    <contour>
      <point x="346" y="654" type="line" smooth="yes"/>
      <point x="421" y="654"/>
      <point x="476" y="643"/>
      <point x="513" y="621" type="curve" smooth="yes"/>
      <point x="575" y="584"/>
      <point x="590" y="524"/>
      <point x="590" y="484" type="curve" smooth="yes"/>
      <point x="590" y="431"/>
      <point x="573" y="366"/>
      <point x="523" y="325" type="curve" smooth="yes"/>
      <point x="483" y="292"/>
      <point x="421" y="277"/>
      <point x="333" y="277" type="curve" smooth="yes"/>
      <point x="309" y="277"/>
      <point x="312" y="278"/>
      <point x="298" y="280" type="curve"/>
      <point x="284" y="289"/>
      <point x="278" y="303"/>
      <point x="278" y="322" type="curve"/>
      <point x="292" y="320"/>
      <point x="313" y="319"/>
      <point x="328" y="319" type="curve" smooth="yes"/>
      <point x="410" y="319"/>
      <point x="439" y="363"/>
      <point x="439" y="467" type="curve" smooth="yes"/>
      <point x="439" y="589"/>
      <point x="372" y="613"/>
      <point x="314" y="613" type="curve" smooth="yes"/>
      <point x="261" y="613"/>
      <point x="254" y="592"/>
      <point x="254" y="524" type="curve" smooth="yes"/>
      <point x="254" y="122" type="line" smooth="yes"/>
      <point x="254" y="39"/>
      <point x="282" y="35"/>
      <point x="337" y="32" type="curve"/>
      <point x="347" y="26"/>
      <point x="347" y="4"/>
      <point x="337" y="-2" type="curve"/>
      <point x="297" y="-1"/>
      <point x="225" y="0"/>
      <point x="185" y="0" type="curve" smooth="yes"/>
      <point x="145" y="0"/>
      <point x="71" y="-1"/>
      <point x="31" y="-2" type="curve"/>
      <point x="21" y="4"/>
      <point x="21" y="26"/>
      <point x="31" y="32" type="curve"/>
      <point x="86" y="35"/>
      <point x="114" y="39"/>
      <point x="114" y="122" type="curve" smooth="yes"/>
      <point x="114" y="523" type="line" smooth="yes"/>
      <point x="114" y="606"/>
      <point x="86" y="610"/>
      <point x="31" y="613" type="curve"/>
      <point x="21" y="619"/>
      <point x="21" y="641"/>
      <point x="31" y="647" type="curve"/>
      <point x="71" y="647"/>
      <point x="306" y="654"/>
      <point x="346" y="654" type="curve" smooth="yes"/>
    </contour>
  </outline>
</glyph>
<glyph name="Q" format="2">
  <advance width="730"/>
  <unicode hex="0051"/>
  <anchor x="336.0" y="324.0" name="middle"/>
  <anchor x="348.0" y="850.0" name="above"/>
  <anchor x="620.0" y="606.0" name="komb_OR"/>
  <anchor x="619.0" y="732.0" name="right"/>
  <outline>
    <contour>
      <point x="351.0" y="616.0" type="curve" smooth="yes"/>
      <point x="261.9" y="616.0"/>
      <point x="188.0" y="533.0"/>
      <point x="188.0" y="329.0" type="curve" smooth="yes"/>
      <point x="188.0" y="141.0"/>
      <point x="274.0" y="32.0"/>
      <point x="384.0" y="32.0" type="curve" smooth="yes"/>
      <point x="485.0" y="32.0"/>
      <point x="543.0" y="141.9"/>
      <point x="543.0" y="308.0" type="curve" smooth="yes"/>
      <point x="543.0" y="511.0"/>
      <point x="458.0" y="616.0"/>
    </contour>
    <contour>
      <point x="694.0" y="329.0" type="curve" smooth="yes"/>
      <point x="694.0" y="230.9"/>
      <point x="663.2" y="148.5"/>
      <point x="608.0" y="89.0" type="curve" smooth="yes"/>
      <point x="564.5" y="42.0"/>
      <point x="505.8" y="9.3"/>
      <point x="435.0" y="-3.7" type="curve"/>
      <point x="407.7" y="-11.1"/>
      <point x="366.3" y="-29.8"/>
      <point x="322.5" y="-60.2" type="curve"/>
      <point x="324.4" y="-60.1"/>
      <point x="326.2" y="-60.0"/>
      <point x="328.0" y="-60.0" type="curve" smooth="yes"/>
      <point x="438.0" y="-60.0"/>
      <point x="509.0" y="-152.0"/>
      <point x="597.0" y="-152.0" type="curve" smooth="yes"/>
      <point x="626.0" y="-152.0"/>
      <point x="662.0" y="-142.0"/>
      <point x="684.0" y="-115.0" type="curve"/>
      <point x="701.0" y="-137.0" type="line"/>
      <point x="662.0" y="-193.0"/>
      <point x="620.0" y="-229.0"/>
      <point x="557.0" y="-229.0" type="curve" smooth="yes"/>
      <point x="427.0" y="-229.0"/>
      <point x="364.0" y="-124.0"/>
      <point x="271.0" y="-124.0" type="curve" smooth="yes"/>
      <point x="263.1" y="-124.0"/>
      <point x="248.8" y="-127.6"/>
      <point x="234.2" y="-137.7" type="curve"/>
      <point x="221.5" y="-151.7"/>
      <point x="209.4" y="-166.8"/>
      <point x="198.0" y="-183.0" type="curve"/>
      <point x="159.0" y="-153.0" type="line"/>
      <point x="163.7" y="-145.0"/>
      <point x="169.5" y="-137.3"/>
      <point x="176.4" y="-130.1" type="curve" smooth="yes"/>
      <point x="212.1" y="-87.3"/>
      <point x="267.4" y="-40.2"/>
      <point x="327.9" y="-8.2" type="curve"/>
      <point x="172.4" y="7.6"/>
      <point x="37.0" y="125.1"/>
      <point x="37.0" y="309.0" type="curve" smooth="yes"/>
      <point x="37.0" y="401.4"/>
      <point x="66.2" y="484.2"/>
      <point x="118.1" y="546.0" type="curve" smooth="yes"/>
      <point x="176.2" y="615.3"/>
      <point x="262.6" y="658.0"/>
      <point x="363.0" y="658.0" type="curve" smooth="yes"/>
      <point x="546.0" y="658.0"/>
      <point x="694.0" y="528.0"/>
    </contour>
  </outline>
</glyph>
<glyph name="R" format="2">
  <advance width="716"/>
  <unicode hex="0052"/>
  <anchor x="308.0" y="-110.0" name="below"/>
  <anchor x="178.0" y="-1.0" name="cedilla"/>
  <anchor x="319.0" y="850.0" name="above"/>
  <anchor x="559.0" y="732.0" name="right"/>
  <outline>
    <contour>
      <point x="455.0" y="467.0" type="curve" smooth="yes"/>
      <point x="455.0" y="589.0"/>
      <point x="388.0" y="613.0"/>
      <point x="330.0" y="613.0" type="curve" smooth="yes"/>
      <point x="277.0" y="613.0"/>
      <point x="254.0" y="592.0"/>
      <point x="254.0" y="524.0" type="curve" smooth="yes"/>
      <point x="254.0" y="325.0" type="line"/>
      <point x="297.0" y="325.0" type="line" smooth="yes"/>
      <point x="381.0" y="325.0"/>
      <point x="455.0" y="344.4"/>
    </contour>
    <contour>
      <point x="362.0" y="654.0" type="curve" smooth="yes"/>
      <point x="437.0" y="654.0"/>
      <point x="492.0" y="642.8"/>
      <point x="529.0" y="621.0" type="curve" smooth="yes"/>
      <point x="591.1" y="584.3"/>
      <point x="606.0" y="524.1"/>
      <point x="606.0" y="484.0" type="curve" smooth="yes"/>
      <point x="606.0" y="382.0"/>
      <point x="528.0" y="330.0"/>
      <point x="474.0" y="308.0" type="curve"/>
      <point x="610.0" y="98.0" type="line" smooth="yes"/>
      <point x="638.0" y="56.0"/>
      <point x="661.0" y="32.0"/>
      <point x="706.0" y="32.0" type="curve"/>
      <point x="710.0" y="24.0"/>
      <point x="710.5" y="4.9"/>
      <point x="707.0" y="-2.0" type="curve"/>
      <point x="697.0" y="-7.0"/>
      <point x="645.3" y="-10.0"/>
      <point x="605.0" y="-10.0" type="curve" smooth="yes"/>
      <point x="545.0" y="-10.0"/>
      <point x="504.0" y="34.0"/>
      <point x="473.0" y="79.0" type="curve" smooth="yes"/>
      <point x="356.0" y="253.0" type="line"/>
      <point x="342.0" y="275.8"/>
      <point x="333.4" y="282.7"/>
      <point x="254.0" y="283.0" type="curve"/>
      <point x="254.0" y="122.0" type="line" smooth="yes"/>
      <point x="254.0" y="39.0"/>
      <point x="282.0" y="35.0"/>
      <point x="337.0" y="32.0" type="curve"/>
      <point x="347.0" y="26.0"/>
      <point x="347.0" y="4.0"/>
      <point x="337.0" y="-2.0" type="curve"/>
      <point x="297.0" y="-1.0"/>
      <point x="225.0" y="0.0"/>
      <point x="185.0" y="0.0" type="curve" smooth="yes"/>
      <point x="145.0" y="0.0"/>
      <point x="71.0" y="-1.0"/>
      <point x="31.0" y="-2.0" type="curve"/>
      <point x="21.0" y="4.0"/>
      <point x="21.0" y="26.0"/>
      <point x="31.0" y="32.0" type="curve"/>
      <point x="86.0" y="35.0"/>
      <point x="114.0" y="39.0"/>
      <point x="114.0" y="122.0" type="curve" smooth="yes"/>
      <point x="114.0" y="523.0" type="line" smooth="yes"/>
      <point x="114.0" y="606.0"/>
      <point x="86.0" y="610.0"/>
      <point x="31.0" y="613.0" type="curve"/>
      <point x="21.0" y="619.0"/>
      <point x="21.0" y="641.0"/>
      <point x="31.0" y="647.0" type="curve"/>
      <point x="71.0" y="647.0"/>
      <point x="322.0" y="654.0"/>
    </contour>
  </outline>
</glyph>
<glyph name="S" format="2">
  <advance width="504"/>
  <unicode hex="0053"/>
  <anchor x="234.0" y="-110.0" name="below"/>
  <anchor x="223.5" y="2.0" name="cedilla"/>
  <anchor x="236.1" y="345.0" name="middle"/>
  <anchor x="231.9" y="850.0" name="above"/>
  <anchor x="480.8" y="732.0" name="right"/>
  <outline>
    <contour>
      <point x="421.0" y="631.0" type="curve"/>
      <point x="428.0" y="573.0"/>
      <point x="432.0" y="532.0"/>
      <point x="432.0" y="479.0" type="curve"/>
      <point x="421.0" y="470.0"/>
      <point x="396.0" y="470.0"/>
      <point x="382.0" y="474.0" type="curve"/>
      <point x="364.0" y="540.0"/>
      <point x="336.0" y="617.0"/>
      <point x="251.0" y="617.0" type="curve" smooth="yes"/>
      <point x="199.8" y="617.0"/>
      <point x="166.0" y="583.0"/>
      <point x="166.0" y="527.0" type="curve" smooth="yes"/>
      <point x="166.0" y="470.0"/>
      <point x="237.3" y="418.4"/>
      <point x="277.0" y="398.0" type="curve" smooth="yes"/>
      <point x="316.0" y="378.0"/>
      <point x="372.0" y="347.1"/>
      <point x="411.0" y="304.0" type="curve" smooth="yes"/>
      <point x="440.5" y="271.4"/>
      <point x="463.0" y="236.1"/>
      <point x="463.0" y="184.0" type="curve" smooth="yes"/>
      <point x="463.0" y="122.4"/>
      <point x="430.5" y="76.3"/>
      <point x="395.0" y="44.5" type="curve" smooth="yes"/>
      <point x="353.8" y="7.6"/>
      <point x="305.2" y="-10.0"/>
      <point x="244.0" y="-10.0" type="curve" smooth="yes"/>
      <point x="105.9" y="-10.0"/>
      <point x="103.0" y="10.0"/>
      <point x="46.0" y="10.0" type="curve"/>
      <point x="35.0" y="47.0"/>
      <point x="27.0" y="100.0"/>
      <point x="27.0" y="175.0" type="curve"/>
      <point x="43.0" y="179.0"/>
      <point x="60.0" y="184.0"/>
      <point x="77.0" y="178.0" type="curve"/>
      <point x="97.0" y="87.0"/>
      <point x="166.0" y="32.0"/>
      <point x="233.0" y="32.0" type="curve" smooth="yes"/>
      <point x="294.0" y="32.0"/>
      <point x="337.0" y="65.8"/>
      <point x="337.0" y="115.0" type="curve" smooth="yes"/>
      <point x="337.0" y="171.0"/>
      <point x="292.0" y="211.0"/>
      <point x="246.0" y="243.0" type="curve" smooth="yes"/>
      <point x="203.3" y="272.7"/>
      <point x="120.4" y="307.1"/>
      <point x="74.0" y="369.0" type="curve" smooth="yes"/>
      <point x="51.4" y="399.1"/>
      <point x="41.0" y="446.7"/>
      <point x="41.0" y="485.0" type="curve" smooth="yes"/>
      <point x="41.0" y="533.6"/>
      <point x="68.7" y="580.0"/>
      <point x="106.0" y="610.0" type="curve" smooth="yes"/>
      <point x="147.7" y="643.6"/>
      <point x="206.6" y="658.0"/>
      <point x="252.0" y="658.0" type="curve" smooth="yes"/>
      <point x="345.0" y="658.0"/>
      <point x="366.0" y="639.0"/>
    </contour>
  </outline>
</glyph>
<glyph name="T" format="2">
  <advance width="652"/>
  <unicode hex="0054"/>
  <anchor x="327" y="850" name="above"/>
  <anchor x="340" y="-110" name="below"/>
  <anchor x="333" y="1" name="cedilla"/>
  <anchor x="507" y="285" name="middle"/>
  <anchor x="619" y="732" name="right"/>
  <outline>
    <contour>
      <point x="405" y="123" type="line" smooth="yes"/>
      <point x="405" y="40"/>
      <point x="422" y="35"/>
      <point x="502" y="32" type="curve"/>
      <point x="508" y="26"/>
      <point x="508" y="4"/>
      <point x="502" y="-2" type="curve"/>
      <point x="452" y="-1"/>
      <point x="399" y="0"/>
      <point x="333" y="0" type="curve" smooth="yes"/>
      <point x="269" y="0"/>
      <point x="217" y="-1"/>
      <point x="168" y="-2" type="curve"/>
      <point x="162" y="4"/>
      <point x="162" y="26"/>
      <point x="168" y="32" type="curve"/>
      <point x="248" y="35"/>
      <point x="265" y="40"/>
      <point x="265" y="123" type="curve" smooth="yes"/>
      <point x="265" y="506" type="line" smooth="yes"/>
      <point x="265" y="567"/>
      <point x="255" y="604"/>
      <point x="218" y="604" type="curve" smooth="yes"/>
      <point x="169" y="604" type="line" smooth="yes"/>
      <point x="103" y="604"/>
      <point x="62" y="579"/>
      <point x="42" y="499" type="curve"/>
      <point x="30" y="499"/>
      <point x="13" y="500"/>
      <point x="3" y="504" type="curve"/>
      <point x="14" y="552"/>
      <point x="24" y="605"/>
      <point x="28" y="650" type="curve" smooth="yes"/>
      <point x="28" y="651"/>
      <point x="30" y="653"/>
      <point x="32" y="653" type="curve" smooth="yes"/>
      <point x="70" y="650"/>
      <point x="188" y="645"/>
      <point x="265" y="645" type="curve" smooth="yes"/>
      <point x="406" y="645" type="line" smooth="yes"/>
      <point x="485" y="645"/>
      <point x="596" y="650"/>
      <point x="630" y="653" type="curve" smooth="yes"/>
      <point x="631" y="653"/>
      <point x="633" y="651"/>
      <point x="633" y="650" type="curve" smooth="yes"/>
      <point x="634" y="605"/>
      <point x="639" y="553"/>
      <point x="646" y="507" type="curve"/>
      <point x="637" y="503"/>
      <point x="618" y="502"/>
      <point x="607" y="502" type="curve"/>
      <point x="590" y="579"/>
      <point x="548" y="604"/>
      <point x="473" y="604" type="curve" smooth="yes"/>
      <point x="451" y="604" type="line" smooth="yes"/>
      <point x="415" y="604"/>
      <point x="405" y="567"/>
      <point x="405" y="503" type="curve" smooth="yes"/>
    </contour>
  </outline>
</glyph>
<glyph name="U" format="2">
  <advance width="732"/>
  <unicode hex="0055"/>
  <anchor x="328.0" y="-110.0" name="below"/>
  <anchor x="388.0" y="-6.0" name="cedilla"/>
  <anchor x="406.0" y="321.0" name="middle"/>
  <anchor x="346.0" y="850.0" name="above"/>
  <outline>
    <contour>
      <point x="227.0" y="522.0" type="curve" smooth="yes"/>
      <point x="227.0" y="269.0" type="line" smooth="yes"/>
      <point x="227.0" y="204.0"/>
      <point x="229.0" y="129.0"/>
      <point x="278.0" y="82.0" type="curve" smooth="yes"/>
      <point x="308.1" y="53.1"/>
      <point x="349.0" y="32.0"/>
      <point x="397.0" y="32.0" type="curve" smooth="yes"/>
      <point x="566.0" y="32.0"/>
      <point x="581.0" y="165.0"/>
      <point x="581.0" y="277.0" type="curve" smooth="yes"/>
      <point x="581.0" y="522.0" type="line" smooth="yes"/>
      <point x="581.0" y="605.0"/>
      <point x="564.5" y="606.5"/>
      <point x="489.0" y="613.0" type="curve"/>
      <point x="483.0" y="619.0"/>
      <point x="483.0" y="641.0"/>
      <point x="489.0" y="647.0" type="curve"/>
      <point x="534.8" y="646.0"/>
      <point x="586.8" y="645.0"/>
      <point x="616.0" y="645.0" type="curve" smooth="yes"/>
      <point x="643.8" y="645.0"/>
      <point x="684.0" y="646.0"/>
      <point x="723.0" y="647.0" type="curve"/>
      <point x="729.0" y="641.0"/>
      <point x="729.0" y="619.0"/>
      <point x="723.0" y="613.0" type="curve"/>
      <point x="664.0" y="607.0"/>
      <point x="646.0" y="605.0"/>
      <point x="646.0" y="522.0" type="curve" smooth="yes"/>
      <point x="646.0" y="295.0" type="line" smooth="yes"/>
      <point x="646.0" y="117.0"/>
      <point x="581.0" y="-10.0"/>
      <point x="376.0" y="-10.0" type="curve" smooth="yes"/>
      <point x="328.6" y="-10.0"/>
      <point x="236.9" y="-8.9"/>
      <point x="174.0" y="32.0" type="curve" smooth="yes"/>
      <point x="117.5" y="68.7"/>
      <point x="87.0" y="139.0"/>
      <point x="87.0" y="236.0" type="curve" smooth="yes"/>
      <point x="87.0" y="522.0" type="line" smooth="yes"/>
      <point x="87.0" y="605.0"/>
      <point x="70.0" y="610.0"/>
      <point x="10.0" y="613.0" type="curve"/>
      <point x="4.0" y="619.0"/>
      <point x="4.0" y="641.0"/>
      <point x="10.0" y="647.0" type="curve"/>
      <point x="60.0" y="646.0"/>
      <point x="110.7" y="645.0"/>
      <point x="156.0" y="645.0" type="curve" smooth="yes"/>
      <point x="203.7" y="645.0"/>
      <point x="270.0" y="646.0"/>
      <point x="319.0" y="647.0" type="curve"/>
      <point x="325.0" y="641.0"/>
      <point x="325.0" y="619.0"/>
      <point x="319.0" y="613.0" type="curve"/>
      <point x="242.0" y="610.0"/>
      <point x="227.0" y="605.0"/>
    </contour>
  </outline>
</glyph>
<glyph name="V" format="2">
  <advance width="700"/>
  <unicode hex="0056"/>
  <anchor x="348.0" y="-110.0" name="below"/>
  <anchor x="348.0" y="3.0" name="cedilla"/>
  <anchor x="374.0" y="474.0" name="middle"/>
  <anchor x="376.0" y="850.0" name="above"/>
  <anchor x="679.0" y="732.0" name="right"/>
  <outline>
    <contour>
      <point x="594.0" y="543.0" type="curve" smooth="yes"/>
      <point x="381.0" y="11.0" type="line" smooth="yes"/>
      <point x="373.6" y="-7.4"/>
      <point x="361.3" y="-12.0"/>
      <point x="347.0" y="-12.0" type="curve" smooth="yes"/>
      <point x="333.3" y="-12.0"/>
      <point x="320.7" y="-5.9"/>
      <point x="314.0" y="11.0" type="curve" smooth="yes"/>
      <point x="96.0" y="559.0" type="line" smooth="yes"/>
      <point x="78.1" y="604.0"/>
      <point x="45.0" y="609.0"/>
      <point x="6.0" y="613.0" type="curve"/>
      <point x="0.0" y="619.0"/>
      <point x="0.0" y="641.0"/>
      <point x="6.0" y="647.0" type="curve"/>
      <point x="43.0" y="646.0"/>
      <point x="99.0" y="645.0"/>
      <point x="140.0" y="645.0" type="curve" smooth="yes"/>
      <point x="179.0" y="645.0"/>
      <point x="279.0" y="646.0"/>
      <point x="316.0" y="647.0" type="curve"/>
      <point x="322.0" y="641.0"/>
      <point x="322.0" y="619.0"/>
      <point x="316.0" y="613.0" type="curve"/>
      <point x="268.0" y="610.0"/>
      <point x="230.7" y="605.5"/>
      <point x="242.0" y="573.0" type="curve" smooth="yes"/>
      <point x="366.0" y="216.0" type="line"/>
      <point x="381.5" y="171.0" type="line"/>
      <point x="398.0" y="210.0" type="line"/>
      <point x="536.0" y="566.0" type="line" smooth="yes"/>
      <point x="550.6" y="603.8"/>
      <point x="505.0" y="610.0"/>
      <point x="467.0" y="613.0" type="curve"/>
      <point x="461.0" y="619.0"/>
      <point x="461.0" y="641.0"/>
      <point x="467.0" y="647.0" type="curve"/>
      <point x="504.0" y="646.0"/>
      <point x="559.0" y="645.0"/>
      <point x="600.0" y="645.0" type="curve" smooth="yes"/>
      <point x="631.8" y="645.0"/>
      <point x="664.0" y="646.0"/>
      <point x="694.0" y="647.0" type="curve"/>
      <point x="700.0" y="641.0"/>
      <point x="700.0" y="619.0"/>
      <point x="694.0" y="613.0" type="curve"/>
      <point x="650.0" y="610.0"/>
      <point x="618.1" y="603.2"/>
    </contour>
  </outline>
</glyph>
<glyph name="W" format="2">
  <advance width="1028"/>
  <unicode hex="0057"/>
  <anchor x="495.0" y="-110.0" name="below"/>
  <anchor x="325.0" y="-10.0" name="cedilla"/>
  <anchor x="540.0" y="850.0" name="above"/>
  <anchor x="979.0" y="732.0" name="right"/>
  <outline>
    <contour>
      <point x="574.5" y="613.0" type="curve"/>
      <point x="715.0" y="216.0" type="line"/>
      <point x="729.5" y="174.0" type="line"/>
      <point x="742.0" y="210.0" type="line"/>
      <point x="855.0" y="545.5" type="line" smooth="yes"/>
      <point x="867.4" y="583.0"/>
      <point x="848.0" y="603.8"/>
      <point x="791.0" y="613.0" type="curve"/>
      <point x="785.0" y="619.0"/>
      <point x="785.0" y="641.0"/>
      <point x="791.0" y="647.0" type="curve"/>
      <point x="828.0" y="646.0"/>
      <point x="875.0" y="645.0"/>
      <point x="916.0" y="645.0" type="curve" smooth="yes"/>
      <point x="950.8" y="645.0"/>
      <point x="985.2" y="646.0"/>
      <point x="1018.0" y="647.0" type="curve"/>
      <point x="1024.0" y="641.0"/>
      <point x="1024.0" y="619.0"/>
      <point x="1018.0" y="613.0" type="curve"/>
      <point x="974.0" y="610.0"/>
      <point x="934.4" y="581.6"/>
      <point x="913.0" y="522.5" type="curve" smooth="yes"/>
      <point x="725.0" y="11.0" type="line" smooth="yes"/>
      <point x="718.3" y="-7.2"/>
      <point x="704.3" y="-12.0"/>
      <point x="691.0" y="-12.0" type="curve" smooth="yes"/>
      <point x="675.7" y="-12.0"/>
      <point x="665.1" y="-7.6"/>
      <point x="658.0" y="11.0" type="curve" smooth="yes"/>
      <point x="505.0" y="409.8" type="line"/>
      <point x="355.0" y="11.0" type="line" smooth="yes"/>
      <point x="347.2" y="-9.7"/>
      <point x="331.0" y="-12.0"/>
      <point x="321.0" y="-12.0" type="curve" smooth="yes"/>
      <point x="310.0" y="-12.0"/>
      <point x="295.1" y="-9.6"/>
      <point x="288.0" y="11.0" type="curve" smooth="yes"/>
      <point x="100.0" y="559.0" type="line" smooth="yes"/>
      <point x="85.1" y="602.4"/>
      <point x="49.0" y="609.0"/>
      <point x="10.0" y="613.0" type="curve"/>
      <point x="4.0" y="619.0"/>
      <point x="4.0" y="641.0"/>
      <point x="10.0" y="647.0" type="curve"/>
      <point x="47.0" y="646.0"/>
      <point x="103.0" y="645.0"/>
      <point x="144.0" y="645.0" type="curve" smooth="yes"/>
      <point x="183.0" y="645.0"/>
      <point x="283.0" y="646.0"/>
      <point x="320.0" y="647.0" type="curve"/>
      <point x="326.0" y="641.0"/>
      <point x="326.0" y="619.0"/>
      <point x="320.0" y="613.0" type="curve"/>
      <point x="272.0" y="610.0"/>
      <point x="235.9" y="606.0"/>
      <point x="246.0" y="573.0" type="curve" smooth="yes"/>
      <point x="355.0" y="216.0" type="line"/>
      <point x="364.5" y="184.0" type="line"/>
      <point x="372.0" y="210.0" type="line"/>
      <point x="514.6" y="613.0" type="line"/>
      <point x="527.5" y="608.8"/>
      <point x="556.3" y="608.8"/>
    </contour>
  </outline>
</glyph>
<glyph name="X" format="2">
  <advance width="718"/>
  <unicode hex="0058"/>
  <anchor x="307.0" y="-110.0" name="below"/>
  <anchor x="102.0" y="0.0" name="cedilla"/>
  <anchor x="596.0" y="345.0" name="middle"/>
  <anchor x="372.0" y="850.0" name="above"/>
  <anchor x="689.0" y="732.0" name="right"/>
  <outline>
    <contour>
      <point x="434.0" y="89.0" type="curve"/>
      <point x="342.0" y="246.0" type="line" smooth="yes"/>
      <point x="328.5" y="269.1"/>
      <point x="321.7" y="271.3"/>
      <point x="312.0" y="258.0" type="curve" smooth="yes"/>
      <point x="269.7" y="199.7"/>
      <point x="231.0" y="142.3"/>
      <point x="199.0" y="82.0" type="curve" smooth="yes"/>
      <point x="183.3" y="52.4"/>
      <point x="198.7" y="36.0"/>
      <point x="243.0" y="33.0" type="curve"/>
      <point x="249.0" y="27.0"/>
      <point x="249.0" y="5.0"/>
      <point x="243.0" y="-1.0" type="curve"/>
      <point x="203.0" y="0.0"/>
      <point x="144.0" y="1.0"/>
      <point x="121.0" y="1.0" type="curve" smooth="yes"/>
      <point x="98.0" y="1.0"/>
      <point x="40.0" y="0.0"/>
      <point x="10.0" y="-1.0" type="curve"/>
      <point x="4.0" y="5.0"/>
      <point x="4.0" y="27.0"/>
      <point x="10.0" y="33.0" type="curve"/>
      <point x="54.7" y="37.3"/>
      <point x="90.0" y="45.4"/>
      <point x="117.8" y="81.0" type="curve" smooth="yes"/>
      <point x="282.0" y="291.0" type="line" smooth="yes"/>
      <point x="298.2" y="311.7"/>
      <point x="297.9" y="316.0"/>
      <point x="278.0" y="344.0" type="curve" smooth="yes"/>
      <point x="133.7" y="547.0" type="line" smooth="yes"/>
      <point x="95.9" y="600.1"/>
      <point x="77.0" y="610.0"/>
      <point x="35.0" y="613.0" type="curve"/>
      <point x="29.0" y="619.0"/>
      <point x="28.0" y="641.0"/>
      <point x="34.0" y="647.0" type="curve"/>
      <point x="64.0" y="646.0"/>
      <point x="150.0" y="645.0"/>
      <point x="189.0" y="645.0" type="curve" smooth="yes"/>
      <point x="229.0" y="645.0"/>
      <point x="296.0" y="646.0"/>
      <point x="336.0" y="647.0" type="curve"/>
      <point x="342.0" y="641.0"/>
      <point x="342.0" y="619.0"/>
      <point x="336.0" y="613.0" type="curve"/>
      <point x="280.0" y="610.0"/>
      <point x="278.7" y="594.3"/>
      <point x="301.0" y="557.0" type="curve" smooth="yes"/>
      <point x="377.7" y="428.7" type="line" smooth="yes"/>
      <point x="389.0" y="409.6"/>
      <point x="395.7" y="402.0"/>
      <point x="406.7" y="414.7" type="curve" smooth="yes"/>
      <point x="448.2" y="462.5"/>
      <point x="480.0" y="516.0"/>
      <point x="507.0" y="564.0" type="curve"/>
      <point x="522.0" y="594.0"/>
      <point x="507.3" y="610.0"/>
      <point x="463.0" y="613.0" type="curve"/>
      <point x="457.0" y="619.0"/>
      <point x="457.0" y="641.0"/>
      <point x="463.0" y="647.0" type="curve"/>
      <point x="503.0" y="646.0"/>
      <point x="556.0" y="645.0"/>
      <point x="579.0" y="645.0" type="curve" smooth="yes"/>
      <point x="602.0" y="645.0"/>
      <point x="651.0" y="646.0"/>
      <point x="681.0" y="647.0" type="curve"/>
      <point x="687.0" y="641.0"/>
      <point x="687.0" y="619.0"/>
      <point x="681.0" y="613.0" type="curve"/>
      <point x="636.3" y="608.7"/>
      <point x="605.7" y="600.8"/>
      <point x="578.2" y="565.0" type="curve" smooth="yes"/>
      <point x="443.0" y="388.7" type="line" smooth="yes"/>
      <point x="426.2" y="366.7"/>
      <point x="425.6" y="359.5"/>
      <point x="447.7" y="327.0" type="curve" smooth="yes"/>
      <point x="602.3" y="99.0" type="line" smooth="yes"/>
      <point x="638.9" y="45.1"/>
      <point x="665.0" y="36.0"/>
      <point x="707.0" y="33.0" type="curve"/>
      <point x="713.0" y="27.0"/>
      <point x="714.0" y="5.0"/>
      <point x="708.0" y="-1.0" type="curve"/>
      <point x="678.0" y="0.0"/>
      <point x="605.0" y="1.0"/>
      <point x="566.0" y="1.0" type="curve" smooth="yes"/>
      <point x="526.0" y="1.0"/>
      <point x="450.0" y="0.0"/>
      <point x="410.0" y="-1.0" type="curve"/>
      <point x="404.0" y="5.0"/>
      <point x="404.0" y="27.0"/>
      <point x="410.0" y="33.0" type="curve"/>
      <point x="466.0" y="36.0"/>
      <point x="459.2" y="53.7"/>
    </contour>
  </outline>
</glyph>
<glyph name="Z" format="2">
  <advance width="624"/>
  <unicode hex="005A"/>
  <anchor x="320" y="850" name="above"/>
  <anchor x="287" y="-110" name="below"/>
  <anchor x="287" y="4" name="cedilla"/>
  <anchor x="535" y="321" name="middle"/>
  <anchor x="619" y="732" name="right"/>
  <outline>
    <contour>
      <point x="429" y="44" type="line" smooth="yes"/>
      <point x="495" y="44"/>
      <point x="543" y="97"/>
      <point x="563" y="177" type="curve"/>
      <point x="575" y="177"/>
      <point x="592" y="176"/>
      <point x="602" y="172" type="curve"/>
      <point x="596" y="112"/>
      <point x="583" y="24"/>
      <point x="575" y="-5" type="curve" smooth="yes"/>
      <point x="575" y="-6"/>
      <point x="573" y="-8"/>
      <point x="571" y="-8" type="curve" smooth="yes"/>
      <point x="533" y="-5"/>
      <point x="415" y="0"/>
      <point x="338" y="0" type="curve" smooth="yes"/>
      <point x="39" y="0" type="line" smooth="yes"/>
      <point x="25" y="0"/>
      <point x="20" y="5"/>
      <point x="20" y="15" type="curve" smooth="yes"/>
      <point x="20" y="22"/>
      <point x="22" y="30"/>
      <point x="28" y="38" type="curve" smooth="yes"/>
      <point x="402" y="579" type="line" smooth="yes"/>
      <point x="409" y="589"/>
      <point x="418" y="602"/>
      <point x="400" y="602" type="curve" smooth="yes"/>
      <point x="209" y="602" type="line" smooth="yes"/>
      <point x="143" y="602"/>
      <point x="101" y="556"/>
      <point x="81" y="476" type="curve"/>
      <point x="69" y="476"/>
      <point x="52" y="477"/>
      <point x="42" y="481" type="curve"/>
      <point x="53" y="529"/>
      <point x="64" y="605"/>
      <point x="68" y="650" type="curve" smooth="yes"/>
      <point x="68" y="651"/>
      <point x="70" y="653"/>
      <point x="72" y="653" type="curve" smooth="yes"/>
      <point x="110" y="650"/>
      <point x="228" y="645"/>
      <point x="305" y="645" type="curve" smooth="yes"/>
      <point x="506" y="645" type="line" smooth="yes"/>
      <point x="534" y="645"/>
      <point x="559" y="647"/>
      <point x="572" y="647" type="curve" smooth="yes"/>
      <point x="586" y="647"/>
      <point x="589" y="643"/>
      <point x="589" y="637" type="curve" smooth="yes"/>
      <point x="589" y="626"/>
      <point x="587" y="620"/>
      <point x="567" y="591" type="curve" smooth="yes"/>
      <point x="213" y="72" type="line" smooth="yes"/>
      <point x="200" y="53"/>
      <point x="198" y="44"/>
      <point x="229" y="44" type="curve" smooth="yes"/>
    </contour>
  </outline>
</glyph>
<glyph name="bracketleft" format="2">
  <advance width="397"/>
  <unicode hex="005B"/>
  <outline>
    <contour>
      <point x="97.0" y="-193.0" type="line"/>
      <point x="97.0" y="703.0" type="line"/>
      <point x="342.0" y="703.0" type="line"/>
      <point x="348.0" y="697.0"/>
      <point x="348.0" y="679.0"/>
      <point x="342.0" y="673.0" type="curve"/>
      <point x="205.0" y="663.0"/>
      <point x="197.0" y="648.0"/>
      <point x="197.0" y="561.0" type="curve" smooth="yes"/>
      <point x="197.0" y="-50.0" type="line" smooth="yes"/>
      <point x="197.0" y="-137.0"/>
      <point x="204.0" y="-152.0"/>
      <point x="342.0" y="-163.0" type="curve"/>
      <point x="348.0" y="-169.0"/>
      <point x="348.0" y="-187.0"/>
      <point x="342.0" y="-193.0" type="curve"/>
    </contour>
  </outline>
</glyph>
<glyph name="backslash" format="2">
  <advance width="307"/>
  <unicode hex="005C"/>
  <outline>
    <contour>
      <point x="76" y="698" type="line"/>
      <point x="306" y="-48" type="line"/>
      <point x="241" y="-48" type="line"/>
      <point x="11" y="698" type="line"/>
    </contour>
  </outline>
</glyph>
<glyph name="bracketright" format="2">
  <advance width="397"/>
  <unicode hex="005D"/>
  <outline>
    <contour>
      <point x="302.0" y="701.0" type="line"/>
      <point x="302.0" y="-195.0" type="line"/>
      <point x="57.0" y="-195.0" type="line"/>
      <point x="51.0" y="-189.0"/>
      <point x="51.0" y="-171.0"/>
      <point x="57.0" y="-165.0" type="curve"/>
      <point x="194.0" y="-155.0"/>
      <point x="202.0" y="-140.0"/>
      <point x="202.0" y="-53.0" type="curve" smooth="yes"/>
      <point x="202.0" y="558.0" type="line" smooth="yes"/>
      <point x="202.0" y="645.0"/>
      <point x="195.0" y="660.0"/>
      <point x="57.0" y="671.0" type="curve"/>
      <point x="51.0" y="677.0"/>
      <point x="51.0" y="695.0"/>
      <point x="57.0" y="701.0" type="curve"/>
    </contour>
  </outline>
</glyph>
<glyph name="asciicircum" format="2">
  <advance width="518"/>
  <unicode hex="005E"/>
  <outline>
    <contour>
      <point x="259" y="569" type="line"/>
      <point x="169" y="346" type="line"/>
      <point x="112" y="346" type="line"/>
      <point x="239" y="650" type="line"/>
      <point x="281" y="650" type="line"/>
      <point x="407" y="346" type="line"/>
      <point x="350" y="346" type="line"/>
    </contour>
  </outline>
</glyph>
<glyph name="underscore" format="2">
  <advance width="486"/>
  <unicode hex="005F"/>
  <outline>
    <contour>
      <point x="482.0" y="-103.0" type="line"/>
      <point x="482.0" y="-154.0" type="line"/>
      <point x="5.0" y="-154.0" type="line"/>
      <point x="5.0" y="-103.0" type="line"/>
    </contour>
  </outline>
</glyph>
<glyph name="b" format="2">
  <advance width="542"/>
  <unicode hex="0062"/>
  <anchor x="234.0" y="-110.0" name="below"/>
  <anchor x="236.0" y="215.0" name="middle"/>
  <anchor x="420.0" y="580.0" name="right"/>
  <outline>
    <contour>
      <point x="74.0" y="127.0" type="curve" smooth="yes"/>
      <point x="74.0" y="565.0" type="line" smooth="yes"/>
      <point x="74.0" y="633.6"/>
      <point x="69.0" y="635.0"/>
      <point x="6.0" y="640.0" type="curve"/>
      <point x="1.0" y="649.0"/>
      <point x="0.0" y="660.0"/>
      <point x="3.0" y="672.0" type="curve"/>
      <point x="74.0" y="675.0"/>
      <point x="154.0" y="686.0"/>
      <point x="191.0" y="698.0" type="curve"/>
      <point x="200.0" y="698.0"/>
      <point x="207.0" y="694.0"/>
      <point x="207.0" y="685.0" type="curve" smooth="yes"/>
      <point x="207.0" y="685.0"/>
      <point x="204.0" y="648.0"/>
      <point x="204.0" y="583.0" type="curve" smooth="yes"/>
      <point x="204.0" y="388.0" type="line"/>
      <point x="233.0" y="409.0"/>
      <point x="286.0" y="444.0"/>
      <point x="317.0" y="444.0" type="curve" smooth="yes"/>
      <point x="369.7" y="444.0"/>
      <point x="418.0" y="434.0"/>
      <point x="454.0" y="393.0" type="curve" smooth="yes"/>
      <point x="486.2" y="356.3"/>
      <point x="508.0" y="299.8"/>
      <point x="508.0" y="243.0" type="curve" smooth="yes"/>
      <point x="508.0" y="99.9"/>
      <point x="391.0" y="-10.0"/>
      <point x="280.0" y="-10.0" type="curve" smooth="yes"/>
      <point x="234.4" y="-10.0"/>
      <point x="173.0" y="0.0"/>
      <point x="134.0" y="30.0" type="curve"/>
      <point x="125.0" y="11.7"/>
      <point x="115.0" y="-2.0"/>
      <point x="102.0" y="-13.0" type="curve"/>
      <point x="91.0" y="-13.0"/>
      <point x="80.0" y="-10.0"/>
      <point x="68.0" y="-6.0" type="curve"/>
      <point x="72.0" y="32.0"/>
      <point x="74.0" y="44.0"/>
    </contour>
    <contour>
      <point x="204.0" y="348.0" type="curve"/>
      <point x="204.0" y="67.0" type="line"/>
      <point x="223.0" y="44.0"/>
      <point x="245.7" y="32.0"/>
      <point x="275.0" y="32.0" type="curve" smooth="yes"/>
      <point x="354.0" y="32.0"/>
      <point x="368.0" y="148.4"/>
      <point x="368.0" y="230.0" type="curve" smooth="yes"/>
      <point x="368.0" y="328.0"/>
      <point x="331.0" y="373.0"/>
      <point x="282.0" y="373.0" type="curve" smooth="yes"/>
      <point x="258.5" y="373.0"/>
      <point x="237.0" y="369.5"/>
    </contour>
  </outline>
</glyph>
<glyph name="c" format="2">
  <advance width="456"/>
  <unicode hex="0063"/>
  <anchor x="242" y="645" name="above"/>
  <anchor x="236" y="-110" name="below"/>
  <anchor x="242" y="-2" name="cedilla"/>
  <anchor x="500" y="466" name="komb_OR"/>
  <anchor x="236" y="215" name="middle"/>
  <anchor x="361" y="42" name="ogonek"/>
  <anchor x="490" y="580" name="right"/>
  <outline>
    <contour>
      <point x="422" y="87" type="curve"/>
      <point x="384" y="32"/>
      <point x="315" y="-10"/>
      <point x="255" y="-10" type="curve" smooth="yes"/>
      <point x="184" y="-10"/>
      <point x="138" y="5"/>
      <point x="99" y="42" type="curve" smooth="yes"/>
      <point x="60" y="78"/>
      <point x="37" y="136"/>
      <point x="37" y="201" type="curve" smooth="yes"/>
      <point x="37" y="349"/>
      <point x="141" y="444"/>
      <point x="259" y="444" type="curve" smooth="yes"/>
      <point x="368" y="444"/>
      <point x="422" y="385"/>
      <point x="422" y="340" type="curve" smooth="yes"/>
      <point x="422" y="309"/>
      <point x="399" y="284"/>
      <point x="367" y="284" type="curve" smooth="yes"/>
      <point x="335" y="284"/>
      <point x="308" y="304"/>
      <point x="305" y="331" type="curve" smooth="yes"/>
      <point x="302" y="363"/>
      <point x="287" y="402"/>
      <point x="250" y="402" type="curve" smooth="yes"/>
      <point x="197" y="402"/>
      <point x="172" y="347"/>
      <point x="172" y="236" type="curve" smooth="yes"/>
      <point x="172" y="116"/>
      <point x="231" y="62"/>
      <point x="306" y="62" type="curve" smooth="yes"/>
      <point x="335" y="62"/>
      <point x="369" y="81"/>
      <point x="409" y="118" type="curve"/>
      <point x="420" y="118"/>
      <point x="422" y="99"/>
    </contour>
  </outline>
</glyph>
<glyph name="e" format="2">
  <advance width="489"/>
  <unicode hex="0065"/>
  <anchor x="248" y="645" name="above"/>
  <anchor x="239" y="-110" name="below"/>
  <anchor x="246" y="-3" name="cedilla"/>
  <anchor x="425" y="396" name="komb_OR"/>
  <anchor x="241" y="215" name="middle"/>
  <anchor x="389" y="41" name="ogonek"/>
  <outline>
    <contour>
      <point x="177" y="275" type="line"/>
      <point x="313" y="275" type="line"/>
      <point x="315" y="277"/>
      <point x="315" y="290"/>
      <point x="315" y="296" type="curve" smooth="yes"/>
      <point x="315" y="376"/>
      <point x="278" y="402"/>
      <point x="251" y="402" type="curve" smooth="yes"/>
      <point x="240" y="402"/>
      <point x="213" y="392"/>
      <point x="197" y="368" type="curve" smooth="yes"/>
      <point x="183" y="348"/>
      <point x="178" y="310"/>
      <point x="177" y="275" type="curve"/>
    </contour>
    <contour>
      <point x="431" y="129" type="line"/>
      <point x="441" y="129"/>
      <point x="446" y="111"/>
      <point x="446" y="98" type="curve"/>
      <point x="396" y="25"/>
      <point x="328" y="-10"/>
      <point x="259" y="-10" type="curve" smooth="yes"/>
      <point x="188" y="-10"/>
      <point x="139" y="6"/>
      <point x="101" y="40" type="curve" smooth="yes"/>
      <point x="58" y="79"/>
      <point x="37" y="140"/>
      <point x="37" y="198" type="curve" smooth="yes"/>
      <point x="37" y="351"/>
      <point x="157" y="444"/>
      <point x="262" y="444" type="curve" smooth="yes"/>
      <point x="409" y="444"/>
      <point x="442" y="351"/>
      <point x="442" y="266" type="curve" smooth="yes"/>
      <point x="442" y="252"/>
      <point x="437" y="235"/>
      <point x="413" y="235" type="curve" smooth="yes"/>
      <point x="173" y="235" type="line"/>
      <point x="173" y="230"/>
      <point x="172" y="226"/>
      <point x="172" y="219" type="curve" smooth="yes"/>
      <point x="172" y="121"/>
      <point x="220" y="76"/>
      <point x="298" y="76" type="curve" smooth="yes"/>
      <point x="336" y="76"/>
      <point x="390" y="87"/>
      <point x="431" y="129" type="curve"/>
    </contour>
  </outline>
</glyph>
<glyph name="f" format="2">
  <advance width="391"/>
  <unicode hex="0066"/>
  <anchor x="132" y="-110" name="below"/>
  <anchor x="136" y="215" name="middle"/>
  <anchor x="410" y="750" name="right"/>
  <outline>
    <contour>
      <point x="230" y="128" type="line" smooth="yes"/>
      <point x="230" y="44"/>
      <point x="246" y="35"/>
      <point x="307" y="32" type="curve"/>
      <point x="313" y="26"/>
      <point x="313" y="4"/>
      <point x="307" y="-2" type="curve"/>
      <point x="264" y="-1"/>
      <point x="220" y="0"/>
      <point x="165" y="0" type="curve" smooth="yes"/>
      <point x="110" y="0"/>
      <point x="65" y="-1"/>
      <point x="23" y="-2" type="curve"/>
      <point x="17" y="4"/>
      <point x="17" y="26"/>
      <point x="23" y="32" type="curve"/>
      <point x="84" y="35"/>
      <point x="100" y="44"/>
      <point x="100" y="126" type="curve" smooth="yes"/>
      <point x="100" y="384" type="line"/>
      <point x="50" y="384" type="line" smooth="yes"/>
      <point x="27" y="384"/>
      <point x="23" y="387"/>
      <point x="23" y="394" type="curve" smooth="yes"/>
      <point x="23" y="421" type="line" smooth="yes"/>
      <point x="23" y="429"/>
      <point x="64" y="434"/>
      <point x="98" y="434" type="curve" smooth="yes"/>
      <point x="100" y="434" type="line"/>
      <point x="100" y="454" type="line" smooth="yes"/>
      <point x="100" y="550"/>
      <point x="134" y="600"/>
      <point x="171" y="640" type="curve" smooth="yes"/>
      <point x="209" y="681"/>
      <point x="265" y="698"/>
      <point x="312" y="698" type="curve" smooth="yes"/>
      <point x="418" y="698"/>
      <point x="449" y="651"/>
      <point x="449" y="624" type="curve" smooth="yes"/>
      <point x="449" y="581"/>
      <point x="425" y="560"/>
      <point x="392" y="560" type="curve" smooth="yes"/>
      <point x="356" y="560"/>
      <point x="330" y="585"/>
      <point x="321" y="617" type="curve" smooth="yes"/>
      <point x="314" y="641"/>
      <point x="310" y="656"/>
      <point x="293" y="656" type="curve" smooth="yes"/>
      <point x="271" y="656"/>
      <point x="230" y="634"/>
      <point x="230" y="485" type="curve" smooth="yes"/>
      <point x="230" y="434" type="line"/>
      <point x="331" y="434" type="line" smooth="yes"/>
      <point x="350" y="434"/>
      <point x="351" y="430"/>
      <point x="351" y="424" type="curve" smooth="yes"/>
      <point x="351" y="401" type="line" smooth="yes"/>
      <point x="351" y="389"/>
      <point x="334" y="384"/>
      <point x="316" y="384" type="curve" smooth="yes"/>
      <point x="230" y="384" type="line"/>
    </contour>
  </outline>
</glyph>
<glyph name="g" format="2">
  <advance width="521"/>
  <unicode hex="0067"/>
  <anchor x="231" y="645" name="above"/>
  <anchor x="229" y="-319" name="below"/>
  <anchor x="227" y="285" name="middle"/>
  <anchor x="492" y="580" name="right"/>
  <outline>
    <contour>
      <point x="290" y="288" type="curve" smooth="yes"/>
      <point x="290" y="367"/>
      <point x="270" y="406"/>
      <point x="223" y="406" type="curve" smooth="yes"/>
      <point x="184" y="406"/>
      <point x="166" y="379"/>
      <point x="166" y="305" type="curve" smooth="yes"/>
      <point x="166" y="254"/>
      <point x="174" y="180"/>
      <point x="236" y="180" type="curve" smooth="yes"/>
      <point x="262" y="180"/>
      <point x="290" y="192"/>
    </contour>
    <contour>
      <point x="175" y="-25" type="curve" smooth="yes"/>
      <point x="154" y="-25"/>
      <point x="141" y="-23"/>
      <point x="131" y="-19" type="curve"/>
      <point x="120" y="-39"/>
      <point x="120" y="-62"/>
      <point x="120" y="-96" type="curve" smooth="yes"/>
      <point x="120" y="-147"/>
      <point x="165" y="-196"/>
      <point x="231" y="-196" type="curve" smooth="yes"/>
      <point x="269" y="-196"/>
      <point x="320" y="-194"/>
      <point x="351" y="-176" type="curve" smooth="yes"/>
      <point x="384" y="-158"/>
      <point x="400" y="-117"/>
      <point x="400" y="-81" type="curve" smooth="yes"/>
      <point x="400" y="-28"/>
      <point x="252" y="-25"/>
    </contour>
    <contour>
      <point x="467" y="394" type="curve" smooth="yes"/>
      <point x="442" y="394"/>
      <point x="424" y="415"/>
      <point x="420" y="428" type="curve"/>
      <point x="417" y="434"/>
      <point x="410" y="440"/>
      <point x="401" y="440" type="curve" smooth="yes"/>
      <point x="391" y="440"/>
      <point x="358" y="422"/>
      <point x="350" y="412" type="curve"/>
      <point x="384" y="384"/>
      <point x="412" y="347"/>
      <point x="412" y="291" type="curve" smooth="yes"/>
      <point x="412" y="246"/>
      <point x="392" y="210"/>
      <point x="363" y="185" type="curve" smooth="yes"/>
      <point x="329" y="155"/>
      <point x="282" y="142"/>
      <point x="231" y="142" type="curve" smooth="yes"/>
      <point x="200" y="142"/>
      <point x="178" y="143"/>
      <point x="158" y="153" type="curve"/>
      <point x="152" y="141"/>
      <point x="143" y="127"/>
      <point x="143" y="111" type="curve" smooth="yes"/>
      <point x="143" y="71"/>
      <point x="170" y="69"/>
      <point x="188" y="69" type="curve" smooth="yes"/>
      <point x="262" y="69"/>
      <point x="412" y="62"/>
      <point x="451" y="36" type="curve" smooth="yes"/>
      <point x="491" y="9"/>
      <point x="501" y="-34"/>
      <point x="501" y="-55" type="curve" smooth="yes"/>
      <point x="501" y="-165"/>
      <point x="342" y="-238"/>
      <point x="203" y="-238" type="curve" smooth="yes"/>
      <point x="155" y="-238"/>
      <point x="89" y="-232"/>
      <point x="50" y="-205" type="curve" smooth="yes"/>
      <point x="22" y="-186"/>
      <point x="11" y="-143"/>
      <point x="11" y="-106" type="curve" smooth="yes"/>
      <point x="11" y="-89"/>
      <point x="55" y="-32"/>
      <point x="98" y="-6" type="curve"/>
      <point x="78" y="0"/>
      <point x="66" y="8"/>
      <point x="57" y="22" type="curve" smooth="yes"/>
      <point x="47" y="37"/>
      <point x="44" y="49"/>
      <point x="44" y="68" type="curve" smooth="yes"/>
      <point x="44" y="88"/>
      <point x="92" y="141"/>
      <point x="123" y="168" type="curve"/>
      <point x="75" y="194"/>
      <point x="46" y="247"/>
      <point x="46" y="296" type="curve" smooth="yes"/>
      <point x="46" y="347"/>
      <point x="73" y="386"/>
      <point x="114" y="412" type="curve" smooth="yes"/>
      <point x="147" y="434"/>
      <point x="189" y="444"/>
      <point x="232" y="444" type="curve" smooth="yes"/>
      <point x="277" y="444"/>
      <point x="298" y="442"/>
      <point x="316" y="432" type="curve"/>
      <point x="345" y="458"/>
      <point x="403" y="491"/>
      <point x="447" y="491" type="curve" smooth="yes"/>
      <point x="485" y="491"/>
      <point x="511" y="462"/>
      <point x="511" y="443" type="curve" smooth="yes"/>
      <point x="511" y="406"/>
      <point x="495" y="394"/>
    </contour>
  </outline>
</glyph>
<glyph name="h" format="2">
  <advance width="619"/>
  <unicode hex="0068"/>
  <anchor x="299" y="645" name="above"/>
  <anchor x="315" y="-110" name="below"/>
  <anchor x="264" y="215" name="middle"/>
  <anchor x="423" y="10" name="ogonek"/>
  <anchor x="429" y="580" name="right"/>
  <outline>
    <contour>
      <point x="528" y="128" type="line" smooth="yes"/>
      <point x="528" y="44"/>
      <point x="544" y="35"/>
      <point x="605" y="32" type="curve"/>
      <point x="611" y="26"/>
      <point x="611" y="4"/>
      <point x="605" y="-2" type="curve"/>
      <point x="562" y="-1"/>
      <point x="518" y="0"/>
      <point x="463" y="0" type="curve" smooth="yes"/>
      <point x="415" y="0"/>
      <point x="383" y="-1"/>
      <point x="341" y="-2" type="curve"/>
      <point x="335" y="4"/>
      <point x="335" y="26"/>
      <point x="341" y="32" type="curve"/>
      <point x="382" y="35"/>
      <point x="398" y="44"/>
      <point x="398" y="128" type="curve" smooth="yes"/>
      <point x="398" y="295" type="line" smooth="yes"/>
      <point x="398" y="352"/>
      <point x="363" y="370"/>
      <point x="323" y="370" type="curve" smooth="yes"/>
      <point x="305" y="370"/>
      <point x="272" y="358"/>
      <point x="230" y="332" type="curve"/>
      <point x="230" y="127" type="line" smooth="yes"/>
      <point x="230" y="44"/>
      <point x="245" y="35"/>
      <point x="287" y="32" type="curve"/>
      <point x="293" y="26"/>
      <point x="293" y="4"/>
      <point x="287" y="-2" type="curve"/>
      <point x="244" y="-1"/>
      <point x="213" y="0"/>
      <point x="165" y="0" type="curve" smooth="yes"/>
      <point x="110" y="0"/>
      <point x="65" y="-1"/>
      <point x="23" y="-2" type="curve"/>
      <point x="17" y="4"/>
      <point x="17" y="26"/>
      <point x="23" y="32" type="curve"/>
      <point x="84" y="35"/>
      <point x="100" y="44"/>
      <point x="100" y="127" type="curve" smooth="yes"/>
      <point x="100" y="565" type="line" smooth="yes"/>
      <point x="100" y="634"/>
      <point x="95" y="635"/>
      <point x="32" y="640" type="curve"/>
      <point x="27" y="649"/>
      <point x="26" y="660"/>
      <point x="29" y="672" type="curve"/>
      <point x="100" y="675"/>
      <point x="180" y="686"/>
      <point x="217" y="698" type="curve"/>
      <point x="226" y="698"/>
      <point x="233" y="694"/>
      <point x="233" y="685" type="curve" smooth="yes"/>
      <point x="233" y="685"/>
      <point x="230" y="648"/>
      <point x="230" y="583" type="curve" smooth="yes"/>
      <point x="230" y="372" type="line"/>
      <point x="287" y="407"/>
      <point x="358" y="444"/>
      <point x="395" y="444" type="curve" smooth="yes"/>
      <point x="481" y="444"/>
      <point x="528" y="394"/>
      <point x="528" y="284" type="curve" smooth="yes"/>
    </contour>
  </outline>
</glyph>
<glyph name="k" format="2">
  <advance width="613"/>
  <unicode hex="006B"/>
  <anchor x="306" y="784" name="above"/>
  <anchor x="290" y="-214" name="below"/>
  <anchor x="108" y="-57" name="cedilla"/>
  <anchor x="536" y="696" name="right"/>
  <outline>
    <contour>
      <point x="100" y="127" type="curve" smooth="yes"/>
      <point x="100" y="565" type="line" smooth="yes"/>
      <point x="100" y="634"/>
      <point x="95" y="635"/>
      <point x="32" y="640" type="curve"/>
      <point x="27" y="649"/>
      <point x="26" y="660"/>
      <point x="29" y="672" type="curve"/>
      <point x="100" y="675"/>
      <point x="180" y="686"/>
      <point x="217" y="698" type="curve"/>
      <point x="226" y="698"/>
      <point x="233" y="694"/>
      <point x="233" y="685" type="curve" smooth="yes"/>
      <point x="233" y="685"/>
      <point x="230" y="648"/>
      <point x="230" y="583" type="curve" smooth="yes"/>
      <point x="230" y="249" type="line"/>
      <point x="260" y="249"/>
      <point x="306" y="266"/>
      <point x="319" y="277" type="curve" smooth="yes"/>
      <point x="339" y="294"/>
      <point x="361" y="319"/>
      <point x="383" y="349" type="curve" smooth="yes"/>
      <point x="412" y="388"/>
      <point x="396" y="398"/>
      <point x="342" y="402" type="curve"/>
      <point x="336" y="408"/>
      <point x="336" y="430"/>
      <point x="342" y="436" type="curve"/>
      <point x="379" y="435"/>
      <point x="426" y="434"/>
      <point x="463" y="434" type="curve" smooth="yes"/>
      <point x="489" y="434"/>
      <point x="552" y="435"/>
      <point x="574" y="436" type="curve"/>
      <point x="580" y="430"/>
      <point x="580" y="408"/>
      <point x="574" y="402" type="curve"/>
      <point x="498" y="394"/>
      <point x="471" y="359"/>
      <point x="438" y="324" type="curve" smooth="yes"/>
      <point x="389" y="269" type="line" smooth="yes"/>
      <point x="385" y="264"/>
      <point x="387" y="256"/>
      <point x="392" y="249" type="curve" smooth="yes"/>
      <point x="508" y="78" type="line" smooth="yes"/>
      <point x="538" y="33"/>
      <point x="560" y="36"/>
      <point x="599" y="32" type="curve"/>
      <point x="605" y="26"/>
      <point x="605" y="4"/>
      <point x="599" y="-2" type="curve"/>
      <point x="562" y="-1"/>
      <point x="506" y="0"/>
      <point x="465" y="0" type="curve" smooth="yes"/>
      <point x="430" y="0"/>
      <point x="385" y="-2"/>
      <point x="385" y="-2" type="curve"/>
      <point x="383" y="0" type="line"/>
      <point x="383" y="26" type="line" smooth="yes"/>
      <point x="383" y="41"/>
      <point x="380" y="50"/>
      <point x="367" y="78" type="curve" smooth="yes"/>
      <point x="350" y="114"/>
      <point x="322" y="156"/>
      <point x="299" y="190" type="curve" smooth="yes"/>
      <point x="288" y="206"/>
      <point x="258" y="209"/>
      <point x="230" y="209" type="curve"/>
      <point x="230" y="127" type="line" smooth="yes"/>
      <point x="230" y="44"/>
      <point x="246" y="36"/>
      <point x="277" y="32" type="curve"/>
      <point x="283" y="26"/>
      <point x="283" y="4"/>
      <point x="277" y="-2" type="curve"/>
      <point x="253" y="-1"/>
      <point x="209" y="0"/>
      <point x="165" y="0" type="curve" smooth="yes"/>
      <point x="110" y="0"/>
      <point x="65" y="-1"/>
      <point x="23" y="-2" type="curve"/>
      <point x="17" y="4"/>
      <point x="17" y="26"/>
      <point x="23" y="32" type="curve"/>
      <point x="84" y="35"/>
      <point x="100" y="44"/>
    </contour>
  </outline>
</glyph>
<glyph name="l" format="2">
  <advance width="325"/>
  <unicode hex="006C"/>
  <anchor x="135.0" y="-110.0" name="below"/>
  <anchor x="131.0" y="10.0" name="cedilla"/>
  <anchor x="136.0" y="215.0" name="middle"/>
  <anchor x="125.0" y="885.0" name="above"/>
  <anchor x="249.0" y="733.0" name="right"/>
  <outline>
    <contour>
      <point x="100.0" y="127.0" type="curve" smooth="yes"/>
      <point x="100.0" y="565.0" type="line" smooth="yes"/>
      <point x="100.0" y="633.6"/>
      <point x="95.0" y="635.0"/>
      <point x="32.0" y="640.0" type="curve"/>
      <point x="27.0" y="649.0"/>
      <point x="26.0" y="660.0"/>
      <point x="29.0" y="672.0" type="curve"/>
      <point x="100.0" y="675.0"/>
      <point x="180.0" y="686.0"/>
      <point x="217.0" y="698.0" type="curve"/>
      <point x="226.0" y="698.0"/>
      <point x="233.0" y="694.0"/>
      <point x="233.0" y="685.0" type="curve" smooth="yes"/>
      <point x="233.0" y="685.0"/>
      <point x="230.0" y="648.0"/>
      <point x="230.0" y="583.0" type="curve" smooth="yes"/>
      <point x="230.0" y="127.0" type="line" smooth="yes"/>
      <point x="230.0" y="44.0"/>
      <point x="246.0" y="35.0"/>
      <point x="307.0" y="32.0" type="curve"/>
      <point x="313.0" y="26.0"/>
      <point x="313.0" y="4.0"/>
      <point x="307.0" y="-2.0" type="curve"/>
      <point x="264.0" y="-1.0"/>
      <point x="220.4" y="0.0"/>
      <point x="165.0" y="0.0" type="curve" smooth="yes"/>
      <point x="109.6" y="0.0"/>
      <point x="65.0" y="-1.0"/>
      <point x="23.0" y="-2.0" type="curve"/>
      <point x="17.0" y="4.0"/>
      <point x="17.0" y="26.0"/>
      <point x="23.0" y="32.0" type="curve"/>
      <point x="84.0" y="35.0"/>
      <point x="100.0" y="44.0"/>
    </contour>
  </outline>
</glyph>
<glyph name="m" format="2">
  <advance width="905"/>
  <unicode hex="006D"/>
  <anchor x="392" y="645" name="above"/>
  <anchor x="455" y="-110" name="below"/>
  <anchor x="137" y="9" name="cedilla"/>
  <anchor x="278" y="215" name="middle"/>
  <outline>
    <contour>
      <point x="228" y="122" type="line" smooth="yes"/>
      <point x="228" y="39"/>
      <point x="238" y="36"/>
      <point x="280" y="32" type="curve"/>
      <point x="286" y="26"/>
      <point x="286" y="4"/>
      <point x="280" y="-2" type="curve"/>
      <point x="237" y="-1"/>
      <point x="209" y="0"/>
      <point x="163" y="0" type="curve" smooth="yes"/>
      <point x="110" y="0"/>
      <point x="68" y="-1"/>
      <point x="26" y="-2" type="curve"/>
      <point x="20" y="4"/>
      <point x="20" y="26"/>
      <point x="26" y="32" type="curve"/>
      <point x="87" y="37"/>
      <point x="98" y="39"/>
      <point x="98" y="122" type="curve" smooth="yes"/>
      <point x="98" y="309" type="line" smooth="yes"/>
      <point x="98" y="366"/>
      <point x="88" y="374"/>
      <point x="33" y="379" type="curve"/>
      <point x="31" y="385"/>
      <point x="29" y="405"/>
      <point x="31" y="411" type="curve"/>
      <point x="100" y="420"/>
      <point x="160" y="434"/>
      <point x="197" y="444" type="curve"/>
      <point x="211" y="444"/>
      <point x="219" y="439"/>
      <point x="220" y="427" type="curve" smooth="yes"/>
      <point x="220" y="427"/>
      <point x="223" y="404"/>
      <point x="226" y="374" type="curve"/>
      <point x="283" y="406"/>
      <point x="355" y="444"/>
      <point x="391" y="444" type="curve" smooth="yes"/>
      <point x="450" y="444"/>
      <point x="490" y="415"/>
      <point x="505" y="372" type="curve"/>
      <point x="563" y="404"/>
      <point x="647" y="444"/>
      <point x="684" y="444" type="curve" smooth="yes"/>
      <point x="770" y="444"/>
      <point x="810" y="394"/>
      <point x="810" y="284" type="curve" smooth="yes"/>
      <point x="810" y="128" type="line" smooth="yes"/>
      <point x="810" y="44"/>
      <point x="826" y="35"/>
      <point x="887" y="32" type="curve"/>
      <point x="893" y="26"/>
      <point x="893" y="4"/>
      <point x="887" y="-2" type="curve"/>
      <point x="844" y="-1"/>
      <point x="800" y="0"/>
      <point x="745" y="0" type="curve" smooth="yes"/>
      <point x="697" y="0"/>
      <point x="665" y="-1"/>
      <point x="623" y="-2" type="curve"/>
      <point x="617" y="4"/>
      <point x="617" y="26"/>
      <point x="623" y="32" type="curve"/>
      <point x="664" y="35"/>
      <point x="680" y="44"/>
      <point x="680" y="128" type="curve" smooth="yes"/>
      <point x="680" y="295" type="line" smooth="yes"/>
      <point x="680" y="352"/>
      <point x="652" y="370"/>
      <point x="612" y="370" type="curve" smooth="yes"/>
      <point x="596" y="370"/>
      <point x="553" y="358"/>
      <point x="515" y="339" type="curve"/>
      <point x="518" y="328"/>
      <point x="519" y="308"/>
      <point x="519" y="284" type="curve" smooth="yes"/>
      <point x="519" y="128" type="line" smooth="yes"/>
      <point x="519" y="44"/>
      <point x="536" y="35"/>
      <point x="576" y="32" type="curve"/>
      <point x="582" y="26"/>
      <point x="582" y="4"/>
      <point x="576" y="-2" type="curve"/>
      <point x="533" y="-1"/>
      <point x="502" y="0"/>
      <point x="454" y="0" type="curve" smooth="yes"/>
      <point x="406" y="0"/>
      <point x="374" y="-1"/>
      <point x="332" y="-2" type="curve"/>
      <point x="326" y="4"/>
      <point x="326" y="26"/>
      <point x="332" y="32" type="curve"/>
      <point x="373" y="35"/>
      <point x="389" y="44"/>
      <point x="389" y="128" type="curve" smooth="yes"/>
      <point x="389" y="295" type="line" smooth="yes"/>
      <point x="389" y="352"/>
      <point x="359" y="370"/>
      <point x="319" y="370" type="curve" smooth="yes"/>
      <point x="302" y="370"/>
      <point x="267" y="360"/>
      <point x="228" y="336" type="curve"/>
      <point x="228" y="331"/>
      <point x="228" y="326"/>
      <point x="228" y="321" type="curve" smooth="yes"/>
    </contour>
  </outline>
</glyph>
<glyph name="n" format="2">
  <advance width="616"/>
  <unicode hex="006E"/>
  <anchor x="265.0" y="-110.0" name="below"/>
  <anchor x="128.0" y="9.0" name="cedilla"/>
  <anchor x="264.0" y="215.0" name="middle"/>
  <anchor x="264.0" y="646.0" name="above"/>
  <outline>
    <contour>
      <point x="228.0" y="122.0" type="line" smooth="yes"/>
      <point x="228.0" y="39.0"/>
      <point x="238.0" y="36.0"/>
      <point x="280.0" y="32.0" type="curve"/>
      <point x="286.0" y="26.0"/>
      <point x="286.0" y="4.0"/>
      <point x="280.0" y="-2.0" type="curve"/>
      <point x="237.0" y="-1.0"/>
      <point x="208.6" y="0.0"/>
      <point x="163.0" y="0.0" type="curve" smooth="yes"/>
      <point x="109.6" y="0.0"/>
      <point x="68.0" y="-1.0"/>
      <point x="26.0" y="-2.0" type="curve"/>
      <point x="20.0" y="4.0"/>
      <point x="20.0" y="26.0"/>
      <point x="26.0" y="32.0" type="curve"/>
      <point x="87.0" y="37.0"/>
      <point x="98.0" y="39.0"/>
      <point x="98.0" y="122.0" type="curve" smooth="yes"/>
      <point x="98.0" y="309.0" type="line" smooth="yes"/>
      <point x="98.0" y="366.0"/>
      <point x="87.5" y="373.9"/>
      <point x="33.0" y="379.0" type="curve"/>
      <point x="31.0" y="385.0"/>
      <point x="29.0" y="405.0"/>
      <point x="31.0" y="411.0" type="curve"/>
      <point x="100.0" y="420.0"/>
      <point x="160.0" y="434.0"/>
      <point x="197.0" y="444.0" type="curve"/>
      <point x="211.0" y="444.0"/>
      <point x="219.1" y="439.2"/>
      <point x="220.0" y="427.0" type="curve" smooth="yes"/>
      <point x="220.0" y="427.0"/>
      <point x="224.2" y="397.4"/>
      <point x="226.5" y="362.1" type="curve"/>
      <point x="281.6" y="399.9"/>
      <point x="352.7" y="444.0"/>
      <point x="393.0" y="444.0" type="curve" smooth="yes"/>
      <point x="479.0" y="444.0"/>
      <point x="526.0" y="394.0"/>
      <point x="526.0" y="284.0" type="curve" smooth="yes"/>
      <point x="526.0" y="128.0" type="line" smooth="yes"/>
      <point x="526.0" y="44.0"/>
      <point x="542.0" y="35.0"/>
      <point x="603.0" y="32.0" type="curve"/>
      <point x="609.0" y="26.0"/>
      <point x="609.0" y="4.0"/>
      <point x="603.0" y="-2.0" type="curve"/>
      <point x="560.0" y="-1.0"/>
      <point x="516.4" y="0.0"/>
      <point x="461.0" y="0.0" type="curve" smooth="yes"/>
      <point x="413.4" y="0.0"/>
      <point x="381.0" y="-1.0"/>
      <point x="339.0" y="-2.0" type="curve"/>
      <point x="333.0" y="4.0"/>
      <point x="333.0" y="26.0"/>
      <point x="339.0" y="32.0" type="curve"/>
      <point x="380.0" y="35.0"/>
      <point x="396.0" y="44.0"/>
      <point x="396.0" y="128.0" type="curve" smooth="yes"/>
      <point x="396.0" y="295.0" type="line" smooth="yes"/>
      <point x="396.0" y="352.0"/>
      <point x="366.0" y="370.0"/>
      <point x="326.0" y="370.0" type="curve" smooth="yes"/>
      <point x="308.4" y="370.0"/>
      <point x="267.7" y="350.4"/>
      <point x="228.0" y="323.1" type="curve"/>
      <point x="228.0" y="321.3" type="line"/>
    </contour>
  </outline>
</glyph>
<glyph name="o" format="2">
  <advance width="551"/>
  <unicode hex="006F"/>
  <anchor x="238" y="645" name="above"/>
  <anchor x="243" y="-110" name="below"/>
  <anchor x="241" y="-3" name="cedilla"/>
  <anchor x="420" y="396" name="komb_OR"/>
  <anchor x="236" y="215" name="middle"/>
  <anchor x="372" y="44" name="ogonek"/>
  <outline>
    <contour>
      <point x="260" y="402" type="line" smooth="yes"/>
      <point x="193" y="402"/>
      <point x="177" y="321"/>
      <point x="177" y="229" type="curve" smooth="yes"/>
      <point x="177" y="155"/>
      <point x="209" y="32"/>
      <point x="291" y="32" type="curve" smooth="yes"/>
      <point x="327" y="32"/>
      <point x="374" y="64"/>
      <point x="374" y="184" type="curve" smooth="yes"/>
      <point x="374" y="321"/>
      <point x="328" y="402"/>
      <point x="260" y="402" type="curve" smooth="yes"/>
    </contour>
    <contour>
      <point x="37" y="207" type="line" smooth="yes"/>
      <point x="37" y="266"/>
      <point x="54" y="326"/>
      <point x="92" y="370" type="curve" smooth="yes"/>
      <point x="131" y="415"/>
      <point x="193" y="444"/>
      <point x="276" y="444" type="curve" smooth="yes"/>
      <point x="424" y="444"/>
      <point x="514" y="347"/>
      <point x="514" y="216" type="curve" smooth="yes"/>
      <point x="514" y="160"/>
      <point x="497" y="92"/>
      <point x="446" y="47" type="curve" smooth="yes"/>
      <point x="405" y="10"/>
      <point x="346" y="-10"/>
      <point x="275" y="-10" type="curve" smooth="yes"/>
      <point x="141" y="-10"/>
      <point x="37" y="76"/>
      <point x="37" y="207" type="curve" smooth="yes"/>
    </contour>
  </outline>
</glyph>
<glyph name="p" format="2">
  <advance width="581"/>
  <unicode hex="0070"/>
  <anchor x="271" y="646" name="above"/>
  <anchor x="179" y="-319" name="below"/>
  <anchor x="246" y="215" name="middle"/>
  <anchor x="429" y="580" name="right"/>
  <outline>
    <contour>
      <point x="95" y="309" type="line" smooth="yes"/>
      <point x="95" y="366"/>
      <point x="84" y="374"/>
      <point x="30" y="379" type="curve"/>
      <point x="28" y="385"/>
      <point x="26" y="405"/>
      <point x="28" y="411" type="curve"/>
      <point x="97" y="420"/>
      <point x="157" y="434"/>
      <point x="194" y="444" type="curve"/>
      <point x="208" y="444"/>
      <point x="216" y="439"/>
      <point x="217" y="427" type="curve" smooth="yes"/>
      <point x="217" y="427"/>
      <point x="220" y="405"/>
      <point x="222" y="377" type="curve"/>
      <point x="228" y="377" type="line"/>
      <point x="263" y="409"/>
      <point x="317" y="444"/>
      <point x="346" y="444" type="curve" smooth="yes"/>
      <point x="398" y="444"/>
      <point x="448" y="429"/>
      <point x="483" y="394" type="curve" smooth="yes"/>
      <point x="522" y="355"/>
      <point x="543" y="293"/>
      <point x="543" y="237" type="curve" smooth="yes"/>
      <point x="543" y="90"/>
      <point x="444" y="-10"/>
      <point x="292" y="-10" type="curve" smooth="yes"/>
      <point x="268" y="-10"/>
      <point x="246" y="-4"/>
      <point x="225" y="7" type="curve"/>
      <point x="225" y="-110" type="line" smooth="yes"/>
      <point x="225" y="-193"/>
      <point x="236" y="-196"/>
      <point x="297" y="-200" type="curve"/>
      <point x="303" y="-206"/>
      <point x="303" y="-228"/>
      <point x="297" y="-234" type="curve"/>
      <point x="254" y="-233"/>
      <point x="213" y="-232"/>
      <point x="160" y="-232" type="curve" smooth="yes"/>
      <point x="107" y="-232"/>
      <point x="65" y="-233"/>
      <point x="23" y="-234" type="curve"/>
      <point x="17" y="-228"/>
      <point x="17" y="-206"/>
      <point x="23" y="-200" type="curve"/>
      <point x="84" y="-195"/>
      <point x="95" y="-193"/>
      <point x="95" y="-110" type="curve" smooth="yes"/>
    </contour>
    <contour>
      <point x="225" y="65" type="line"/>
      <point x="250" y="38"/>
      <point x="275" y="32"/>
      <point x="286" y="32" type="curve" smooth="yes"/>
      <point x="373" y="32"/>
      <point x="403" y="126"/>
      <point x="403" y="210" type="curve" smooth="yes"/>
      <point x="403" y="327"/>
      <point x="355" y="377"/>
      <point x="314" y="377" type="curve" smooth="yes"/>
      <point x="290" y="377"/>
      <point x="254" y="364"/>
      <point x="225" y="338" type="curve"/>
      <point x="225" y="332"/>
      <point x="225" y="327"/>
      <point x="225" y="321" type="curve" smooth="yes"/>
    </contour>
  </outline>
</glyph>
<glyph name="q" format="2">
  <advance width="573"/>
  <unicode hex="0071"/>
  <anchor x="348.0" y="-319.0" name="below"/>
  <anchor x="236.0" y="215.0" name="middle"/>
  <anchor x="238.0" y="645.0" name="above"/>
  <anchor x="469.0" y="732.0" name="right"/>
  <outline>
    <contour>
      <point x="483.0" y="-110.0" type="line" smooth="yes"/>
      <point x="483.0" y="-193.0"/>
      <point x="494.0" y="-196.0"/>
      <point x="555.0" y="-200.0" type="curve"/>
      <point x="561.0" y="-206.0"/>
      <point x="561.0" y="-228.0"/>
      <point x="555.0" y="-234.0" type="curve"/>
      <point x="512.0" y="-233.0"/>
      <point x="471.0" y="-232.0"/>
      <point x="418.0" y="-232.0" type="curve" smooth="yes"/>
      <point x="365.0" y="-232.0"/>
      <point x="323.0" y="-233.0"/>
      <point x="281.0" y="-234.0" type="curve"/>
      <point x="275.0" y="-228.0"/>
      <point x="275.0" y="-206.0"/>
      <point x="281.0" y="-200.0" type="curve"/>
      <point x="342.0" y="-195.0"/>
      <point x="353.0" y="-193.0"/>
      <point x="353.0" y="-110.0" type="curve" smooth="yes"/>
      <point x="353.0" y="28.0" type="line"/>
      <point x="348.0" y="28.0" type="line"/>
      <point x="331.0" y="20.0"/>
      <point x="268.0" y="-10.0"/>
      <point x="241.0" y="-10.0" type="curve" smooth="yes"/>
      <point x="185.2" y="-10.0"/>
      <point x="151.0" y="2.9"/>
      <point x="116.0" y="28.0" type="curve" smooth="yes"/>
      <point x="53.9" y="72.6"/>
      <point x="36.0" y="148.5"/>
      <point x="36.0" y="208.0" type="curve" smooth="yes"/>
      <point x="36.0" y="341.0"/>
      <point x="155.0" y="444.0"/>
      <point x="288.0" y="444.0" type="curve" smooth="yes"/>
      <point x="335.8" y="444.0"/>
      <point x="370.3" y="423.6"/>
      <point x="391.5" y="407.1" type="curve"/>
      <point x="414.4" y="427.0"/>
      <point x="450.9" y="444.0"/>
      <point x="464.0" y="444.0" type="curve" smooth="yes"/>
      <point x="478.0" y="444.0"/>
      <point x="487.0" y="438.0"/>
      <point x="487.0" y="427.0" type="curve" smooth="yes"/>
      <point x="487.0" y="427.0"/>
      <point x="483.0" y="371.0"/>
      <point x="483.0" y="321.3" type="curve" smooth="yes"/>
    </contour>
    <contour>
      <point x="353.0" y="71.0" type="curve"/>
      <point x="353.0" y="365.6" type="line"/>
      <point x="331.0" y="392.7"/>
      <point x="308.7" y="402.0"/>
      <point x="285.0" y="402.0" type="curve" smooth="yes"/>
      <point x="220.0" y="402.0"/>
      <point x="176.0" y="329.0"/>
      <point x="176.0" y="229.0" type="curve" smooth="yes"/>
      <point x="176.0" y="82.0"/>
      <point x="238.0" y="46.0"/>
      <point x="288.0" y="46.0" type="curve" smooth="yes"/>
      <point x="300.0" y="46.0"/>
      <point x="334.0" y="56.0"/>
    </contour>
  </outline>
</glyph>
<glyph name="r" format="2">
  <advance width="428"/>
  <unicode hex="0072"/>
  <anchor x="191" y="646" name="above"/>
  <anchor x="135" y="-110" name="below"/>
  <anchor x="134" y="7" name="cedilla"/>
  <anchor x="136" y="185" name="middle"/>
  <anchor x="349" y="580" name="right"/>
  <outline>
    <contour>
      <point x="228" y="268" type="line" smooth="yes"/>
      <point x="228" y="122" type="line" smooth="yes"/>
      <point x="228" y="39"/>
      <point x="239" y="36"/>
      <point x="300" y="32" type="curve"/>
      <point x="306" y="26"/>
      <point x="306" y="4"/>
      <point x="300" y="-2" type="curve"/>
      <point x="257" y="-1"/>
      <point x="216" y="0"/>
      <point x="163" y="0" type="curve" smooth="yes"/>
      <point x="110" y="0"/>
      <point x="68" y="-1"/>
      <point x="26" y="-2" type="curve"/>
      <point x="20" y="4"/>
      <point x="20" y="26"/>
      <point x="26" y="32" type="curve"/>
      <point x="87" y="37"/>
      <point x="98" y="39"/>
      <point x="98" y="122" type="curve" smooth="yes"/>
      <point x="98" y="309" type="line" smooth="yes"/>
      <point x="98" y="366"/>
      <point x="88" y="375"/>
      <point x="33" y="380" type="curve"/>
      <point x="31" y="386"/>
      <point x="29" y="405"/>
      <point x="31" y="411" type="curve"/>
      <point x="97" y="418"/>
      <point x="150" y="432"/>
      <point x="197" y="444" type="curve"/>
      <point x="211" y="444"/>
      <point x="219" y="436"/>
      <point x="220" y="427" type="curve" smooth="yes"/>
      <point x="220" y="427"/>
      <point x="225" y="378"/>
      <point x="227" y="348" type="curve"/>
      <point x="231" y="348" type="line"/>
      <point x="277" y="414"/>
      <point x="315" y="444"/>
      <point x="350" y="444" type="curve" smooth="yes"/>
      <point x="386" y="444"/>
      <point x="416" y="414"/>
      <point x="416" y="388" type="curve" smooth="yes"/>
      <point x="416" y="346"/>
      <point x="388" y="316"/>
      <point x="358" y="316" type="curve" smooth="yes"/>
      <point x="336" y="316"/>
      <point x="319" y="324"/>
      <point x="312" y="332" type="curve" smooth="yes"/>
      <point x="304" y="342"/>
      <point x="293" y="351"/>
      <point x="284" y="351" type="curve" smooth="yes"/>
      <point x="269" y="351"/>
      <point x="260" y="344"/>
      <point x="252" y="334" type="curve" smooth="yes"/>
      <point x="239" y="318"/>
      <point x="228" y="304"/>
      <point x="228" y="268" type="curve" smooth="yes"/>
    </contour>
  </outline>
</glyph>
<glyph name="s" format="2">
  <advance width="427"/>
  <unicode hex="0073"/>
  <anchor x="196.0" y="-110.0" name="below"/>
  <anchor x="194.0" y="1.0" name="cedilla"/>
  <anchor x="290.0" y="13.0" name="ogonek"/>
  <anchor x="206.0" y="645.0" name="above"/>
  <anchor x="366.0" y="580.0" name="right"/>
  <outline>
    <contour>
      <point x="48.0" y="146.0" type="curve"/>
      <point x="64.0" y="150.0"/>
      <point x="72.0" y="151.0"/>
      <point x="88.0" y="148.0" type="curve"/>
      <point x="109.0" y="74.5"/>
      <point x="156.9" y="29.0"/>
      <point x="202.0" y="29.0" type="curve" smooth="yes"/>
      <point x="229.0" y="29.0"/>
      <point x="261.0" y="45.9"/>
      <point x="261.0" y="78.0" type="curve" smooth="yes"/>
      <point x="261.0" y="102.0"/>
      <point x="250.0" y="138.0"/>
      <point x="210.0" y="156.0" type="curve" smooth="yes"/>
      <point x="179.5" y="169.7"/>
      <point x="125.0" y="205.0"/>
      <point x="94.0" y="239.0" type="curve" smooth="yes"/>
      <point x="74.5" y="260.4"/>
      <point x="63.0" y="284.3"/>
      <point x="63.0" y="314.0" type="curve" smooth="yes"/>
      <point x="63.0" y="341.0"/>
      <point x="74.0" y="368.6"/>
      <point x="97.0" y="392.0" type="curve" smooth="yes"/>
      <point x="128.6" y="424.2"/>
      <point x="179.3" y="444.0"/>
      <point x="232.0" y="444.0" type="curve" smooth="yes"/>
      <point x="287.0" y="444.0"/>
      <point x="312.0" y="434.0"/>
      <point x="344.0" y="420.0" type="curve"/>
      <point x="353.0" y="388.0"/>
      <point x="357.0" y="350.0"/>
      <point x="357.0" y="314.0" type="curve"/>
      <point x="347.0" y="307.0"/>
      <point x="336.0" y="306.0"/>
      <point x="318.0" y="309.0" type="curve"/>
      <point x="293.0" y="370.0"/>
      <point x="259.0" y="402.0"/>
      <point x="224.0" y="402.0" type="curve" smooth="yes"/>
      <point x="195.0" y="402.0"/>
      <point x="176.0" y="383.0"/>
      <point x="176.0" y="360.0" type="curve" smooth="yes"/>
      <point x="176.0" y="330.9"/>
      <point x="190.0" y="299.4"/>
      <point x="230.0" y="282.0" type="curve" smooth="yes"/>
      <point x="276.0" y="262.0"/>
      <point x="317.5" y="237.3"/>
      <point x="346.4" y="205.0" type="curve" smooth="yes"/>
      <point x="368.6" y="180.2"/>
      <point x="377.0" y="152.9"/>
      <point x="377.0" y="119.0" type="curve" smooth="yes"/>
      <point x="377.0" y="31.9"/>
      <point x="281.0" y="-10.0"/>
      <point x="204.0" y="-10.0" type="curve" smooth="yes"/>
      <point x="147.8" y="-10.0"/>
      <point x="83.5" y="5.5"/>
      <point x="65.0" y="12.0" type="curve"/>
      <point x="56.5" y="49.5"/>
      <point x="52.0" y="96.5"/>
    </contour>
  </outline>
</glyph>
<glyph name="t" format="2">
  <advance width="358"/>
  <unicode hex="0074"/>
  <anchor x="163.0" y="-110.0" name="below"/>
  <anchor x="165.0" y="-3.0" name="cedilla"/>
  <anchor x="237.0" y="15.0" name="ogonek"/>
  <anchor x="127.0" y="215.0" name="middle"/>
  <anchor x="279.0" y="580.0" name="right"/>
  <outline>
    <contour>
      <point x="63.0" y="434.0" type="curve" smooth="yes"/>
      <point x="91.0" y="434.1" type="line"/>
      <point x="91.0" y="513.5"/>
      <point x="95.0" y="540.5"/>
      <point x="102.0" y="550.0" type="curve" smooth="yes"/>
      <point x="108.8" y="559.2"/>
      <point x="138.0" y="565.0"/>
      <point x="155.0" y="572.1" type="curve" smooth="yes"/>
      <point x="170.7" y="578.7"/>
      <point x="208.0" y="589.8"/>
      <point x="215.3" y="589.8" type="curve" smooth="yes"/>
      <point x="220.0" y="589.8"/>
      <point x="223.0" y="587.4"/>
      <point x="223.0" y="581.0" type="curve" smooth="yes"/>
      <point x="223.0" y="581.0"/>
      <point x="220.0" y="534.6"/>
      <point x="218.0" y="468.0" type="curve" smooth="yes"/>
      <point x="217.0" y="434.0" type="line"/>
      <point x="334.0" y="434.0" type="line" smooth="yes"/>
      <point x="339.0" y="434.0"/>
      <point x="342.0" y="432.0"/>
      <point x="342.0" y="428.0" type="curve" smooth="yes"/>
      <point x="342.0" y="397.0" type="line" smooth="yes"/>
      <point x="342.0" y="388.0"/>
      <point x="328.0" y="384.0"/>
      <point x="318.0" y="384.0" type="curve" smooth="yes"/>
      <point x="217.0" y="384.0" type="line"/>
      <point x="217.0" y="284.0"/>
      <point x="218.0" y="177.0"/>
      <point x="218.0" y="127.0" type="curve" smooth="yes"/>
      <point x="218.0" y="77.0"/>
      <point x="240.0" y="60.0"/>
      <point x="262.0" y="60.0" type="curve" smooth="yes"/>
      <point x="281.0" y="60.0"/>
      <point x="306.0" y="64.0"/>
      <point x="319.0" y="74.0" type="curve"/>
      <point x="331.0" y="64.0"/>
      <point x="337.0" y="58.0"/>
      <point x="337.0" y="46.0" type="curve"/>
      <point x="317.0" y="18.0"/>
      <point x="256.3" y="-10.0"/>
      <point x="201.0" y="-10.0" type="curve" smooth="yes"/>
      <point x="177.4" y="-10.0"/>
      <point x="140.5" y="-1.3"/>
      <point x="118.0" y="18.0" type="curve" smooth="yes"/>
      <point x="96.6" y="36.3"/>
      <point x="88.0" y="70.0"/>
      <point x="88.0" y="105.0" type="curve" smooth="yes"/>
      <point x="88.0" y="155.0"/>
      <point x="88.7" y="283.3"/>
      <point x="91.0" y="384.0" type="curve"/>
      <point x="26.0" y="384.0" type="line" smooth="yes"/>
      <point x="22.0" y="384.0"/>
      <point x="21.0" y="385.0"/>
      <point x="21.0" y="390.0" type="curve" smooth="yes"/>
      <point x="21.0" y="419.0" type="line"/>
      <point x="33.7" y="430.0"/>
      <point x="49.0" y="433.9"/>
    </contour>
  </outline>
</glyph>
<glyph name="u" format="2">
  <advance width="598"/>
  <unicode hex="0075"/>
  <anchor x="239.0" y="-110.0" name="below"/>
  <anchor x="213.0" y="0.0" name="cedilla"/>
  <anchor x="293.0" y="7.0" name="ogonek"/>
  <anchor x="252.0" y="215.0" name="middle"/>
  <anchor x="255.0" y="645.0" name="above"/>
  <outline>
    <contour>
      <point x="510.0" y="133.0" type="line" smooth="yes"/>
      <point x="510.0" y="76.0"/>
      <point x="520.5" y="60.1"/>
      <point x="575.0" y="55.0" type="curve"/>
      <point x="577.0" y="49.0"/>
      <point x="579.0" y="29.0"/>
      <point x="577.0" y="23.0" type="curve"/>
      <point x="508.0" y="14.0"/>
      <point x="448.0" y="0.0"/>
      <point x="411.0" y="-10.0" type="curve"/>
      <point x="397.0" y="-10.0"/>
      <point x="388.8" y="-5.0"/>
      <point x="388.0" y="7.0" type="curve" smooth="yes"/>
      <point x="388.0" y="7.0"/>
      <point x="385.7" y="25.8"/>
      <point x="383.5" y="51.0" type="curve"/>
      <point x="326.0" y="18.8"/>
      <point x="253.3" y="-10.0"/>
      <point x="217.0" y="-10.0" type="curve" smooth="yes"/>
      <point x="131.0" y="-10.0"/>
      <point x="89.0" y="43.5"/>
      <point x="89.0" y="150.0" type="curve" smooth="yes"/>
      <point x="89.0" y="306.0" type="line" smooth="yes"/>
      <point x="89.0" y="390.0"/>
      <point x="68.0" y="400.0"/>
      <point x="22.0" y="402.0" type="curve"/>
      <point x="16.0" y="408.0"/>
      <point x="16.0" y="430.0"/>
      <point x="22.0" y="436.0" type="curve"/>
      <point x="65.0" y="435.0"/>
      <point x="102.5" y="434.0"/>
      <point x="154.0" y="434.0" type="curve" smooth="yes"/>
      <point x="172.3" y="434.0"/>
      <point x="193.0" y="435.0"/>
      <point x="211.0" y="436.0" type="curve"/>
      <point x="217.0" y="430.0"/>
      <point x="221.0" y="419.0"/>
      <point x="221.0" y="402.0" type="curve" smooth="yes"/>
      <point x="221.0" y="378.0"/>
      <point x="219.0" y="390.0"/>
      <point x="219.0" y="306.0" type="curve" smooth="yes"/>
      <point x="219.0" y="139.0" type="line" smooth="yes"/>
      <point x="219.0" y="68.5"/>
      <point x="249.0" y="64.0"/>
      <point x="289.0" y="64.0" type="curve" smooth="yes"/>
      <point x="306.5" y="64.0"/>
      <point x="340.2" y="65.9"/>
      <point x="380.8" y="91.0" type="curve"/>
      <point x="380.3" y="101.1"/>
      <point x="380.0" y="111.1"/>
      <point x="380.0" y="120.7" type="curve" smooth="yes"/>
      <point x="380.0" y="306.0" type="line" smooth="yes"/>
      <point x="380.0" y="390.0"/>
      <point x="364.0" y="397.0"/>
      <point x="313.0" y="402.0" type="curve"/>
      <point x="307.0" y="408.0"/>
      <point x="307.0" y="430.0"/>
      <point x="313.0" y="436.0" type="curve"/>
      <point x="352.0" y="435.0"/>
      <point x="417.3" y="434.0"/>
      <point x="445.0" y="434.0" type="curve" smooth="yes"/>
      <point x="464.0" y="434.0"/>
      <point x="484.0" y="435.0"/>
      <point x="502.0" y="436.0" type="curve"/>
      <point x="508.0" y="430.0"/>
      <point x="512.0" y="419.0"/>
      <point x="512.0" y="402.0" type="curve" smooth="yes"/>
      <point x="512.0" y="378.0"/>
      <point x="510.0" y="390.0"/>
      <point x="510.0" y="306.0" type="curve" smooth="yes"/>
    </contour>
  </outline>
</glyph>
<glyph name="v" format="2">
  <advance width="529"/>
  <unicode hex="0076"/>
  <anchor x="241.0" y="-110.0" name="below"/>
  <anchor x="247.0" y="267.0" name="middle"/>
  <anchor x="256.0" y="646.0" name="above"/>
  <anchor x="460.0" y="580.0" name="right"/>
  <outline>
    <contour>
      <point x="342.0" y="402.0" type="curve"/>
      <point x="336.0" y="408.0"/>
      <point x="336.0" y="430.0"/>
      <point x="342.0" y="436.0" type="curve"/>
      <point x="369.0" y="435.0"/>
      <point x="406.0" y="434.0"/>
      <point x="443.0" y="434.0" type="curve" smooth="yes"/>
      <point x="465.0" y="434.0"/>
      <point x="497.0" y="435.0"/>
      <point x="519.0" y="436.0" type="curve"/>
      <point x="525.0" y="430.0"/>
      <point x="525.0" y="408.0"/>
      <point x="519.0" y="402.0" type="curve"/>
      <point x="466.0" y="397.0"/>
      <point x="453.3" y="369.4"/>
      <point x="433.4" y="324.0" type="curve" smooth="yes"/>
      <point x="296.0" y="11.0" type="line" smooth="yes"/>
      <point x="287.0" y="-9.6"/>
      <point x="267.0" y="-12.0"/>
      <point x="257.0" y="-12.0" type="curve" smooth="yes"/>
      <point x="244.0" y="-12.0"/>
      <point x="227.0" y="-6.0"/>
      <point x="221.0" y="9.0" type="curve" smooth="yes"/>
      <point x="90.4" y="325.0" type="line" smooth="yes"/>
      <point x="69.6" y="375.4"/>
      <point x="67.5" y="395.2"/>
      <point x="10.0" y="402.0" type="curve"/>
      <point x="4.0" y="408.0"/>
      <point x="4.0" y="430.0"/>
      <point x="10.0" y="436.0" type="curve"/>
      <point x="47.0" y="435.0"/>
      <point x="98.0" y="434.0"/>
      <point x="133.0" y="434.0" type="curve" smooth="yes"/>
      <point x="182.1" y="434.0"/>
      <point x="222.0" y="435.0"/>
      <point x="259.0" y="436.0" type="curve"/>
      <point x="265.0" y="430.0"/>
      <point x="265.0" y="408.0"/>
      <point x="259.0" y="402.0" type="curve"/>
      <point x="196.8" y="396.6"/>
      <point x="210.8" y="379.3"/>
      <point x="227.9" y="331.0" type="curve" smooth="yes"/>
      <point x="291.1" y="153.0" type="line" smooth="yes"/>
      <point x="293.6" y="146.0"/>
      <point x="297.6" y="138.8"/>
      <point x="301.6" y="148.0" type="curve" smooth="yes"/>
      <point x="380.7" y="331.0" type="line" smooth="yes"/>
      <point x="402.8" y="382.1"/>
      <point x="396.0" y="398.0"/>
    </contour>
  </outline>
</glyph>
<glyph name="w" format="2">
  <advance width="777"/>
  <unicode hex="0077"/>
  <anchor x="345" y="646" name="above"/>
  <anchor x="352" y="-110" name="below"/>
  <anchor x="719" y="580" name="right"/>
  <outline>
    <contour>
      <point x="482" y="331" type="line" smooth="yes"/>
      <point x="548" y="164" type="line" smooth="yes"/>
      <point x="552" y="154"/>
      <point x="558" y="153"/>
      <point x="562" y="165" type="curve" smooth="yes"/>
      <point x="620" y="322" type="line" smooth="yes"/>
      <point x="638" y="372"/>
      <point x="634" y="398"/>
      <point x="580" y="402" type="curve"/>
      <point x="574" y="408"/>
      <point x="574" y="430"/>
      <point x="580" y="436" type="curve"/>
      <point x="617" y="435"/>
      <point x="660" y="434"/>
      <point x="697" y="434" type="curve" smooth="yes"/>
      <point x="723" y="434"/>
      <point x="741" y="435"/>
      <point x="763" y="436" type="curve"/>
      <point x="769" y="430"/>
      <point x="769" y="408"/>
      <point x="763" y="402" type="curve"/>
      <point x="707" y="397"/>
      <point x="690" y="359"/>
      <point x="672" y="316" type="curve" smooth="yes"/>
      <point x="550" y="11" type="line" smooth="yes"/>
      <point x="542" y="-10"/>
      <point x="525" y="-12"/>
      <point x="515" y="-12" type="curve" smooth="yes"/>
      <point x="502" y="-12"/>
      <point x="483" y="-9"/>
      <point x="476" y="9" type="curve" smooth="yes"/>
      <point x="380" y="258" type="line"/>
      <point x="286" y="11" type="line" smooth="yes"/>
      <point x="278" y="-10"/>
      <point x="259" y="-12"/>
      <point x="249" y="-12" type="curve" smooth="yes"/>
      <point x="236" y="-12"/>
      <point x="223" y="-10"/>
      <point x="216" y="9" type="curve" smooth="yes"/>
      <point x="94" y="325" type="line" smooth="yes"/>
      <point x="75" y="376"/>
      <point x="72" y="395"/>
      <point x="14" y="402" type="curve"/>
      <point x="8" y="408"/>
      <point x="8" y="430"/>
      <point x="14" y="436" type="curve"/>
      <point x="51" y="435"/>
      <point x="102" y="434"/>
      <point x="137" y="434" type="curve" smooth="yes"/>
      <point x="188" y="434"/>
      <point x="231" y="435"/>
      <point x="268" y="436" type="curve"/>
      <point x="274" y="430"/>
      <point x="274" y="408"/>
      <point x="268" y="402" type="curve"/>
      <point x="206" y="397"/>
      <point x="216" y="379"/>
      <point x="232" y="331" type="curve" smooth="yes"/>
      <point x="289" y="161" type="line" smooth="yes"/>
      <point x="293" y="151"/>
      <point x="297" y="153"/>
      <point x="300" y="160" type="curve" smooth="yes"/>
      <point x="395" y="424" type="line"/>
      <point x="414" y="422"/>
      <point x="433" y="422"/>
      <point x="451" y="423" type="curve"/>
      <point x="451" y="423"/>
      <point x="463" y="379"/>
      <point x="482" y="331" type="curve" smooth="yes"/>
    </contour>
  </outline>
</glyph>
<glyph name="x" format="2">
  <advance width="561"/>
  <unicode hex="0078"/>
  <anchor x="224.0" y="-110.0" name="below"/>
  <anchor x="94.0" y="8.0" name="cedilla"/>
  <anchor x="237.0" y="215.0" name="middle"/>
  <anchor x="256.0" y="646.0" name="above"/>
  <anchor x="469.0" y="580.0" name="right"/>
  <outline>
    <contour>
      <point x="183.0" y="73.0" type="line" smooth="yes"/>
      <point x="160.6" y="41.5"/>
      <point x="191.5" y="35.5"/>
      <point x="210.0" y="32.0" type="curve"/>
      <point x="216.0" y="26.0"/>
      <point x="216.0" y="4.0"/>
      <point x="210.0" y="-2.0" type="curve"/>
      <point x="190.0" y="-1.0"/>
      <point x="142.9" y="0.0"/>
      <point x="100.0" y="0.0" type="curve" smooth="yes"/>
      <point x="67.6" y="0.0"/>
      <point x="37.0" y="-1.0"/>
      <point x="17.0" y="-2.0" type="curve"/>
      <point x="11.0" y="4.0"/>
      <point x="11.0" y="26.0"/>
      <point x="17.0" y="32.0" type="curve"/>
      <point x="46.5" y="36.0"/>
      <point x="90.5" y="47.4"/>
      <point x="116.0" y="79.0" type="curve" smooth="yes"/>
      <point x="208.0" y="193.0" type="line" smooth="yes"/>
      <point x="213.7" y="200.1"/>
      <point x="214.0" y="203.7"/>
      <point x="211.0" y="208.0" type="curve" smooth="yes"/>
      <point x="122.0" y="335.0" type="line" smooth="yes"/>
      <point x="94.3" y="374.5"/>
      <point x="74.0" y="402.0"/>
      <point x="29.0" y="402.0" type="curve"/>
      <point x="23.0" y="408.0"/>
      <point x="23.0" y="430.0"/>
      <point x="29.0" y="436.0" type="curve"/>
      <point x="49.0" y="435.0"/>
      <point x="105.9" y="434.0"/>
      <point x="155.0" y="434.0" type="curve" smooth="yes"/>
      <point x="209.6" y="434.0"/>
      <point x="275.0" y="435.0"/>
      <point x="295.0" y="436.0" type="curve"/>
      <point x="301.0" y="430.0"/>
      <point x="301.0" y="408.0"/>
      <point x="295.0" y="402.0" type="curve"/>
      <point x="257.0" y="398.0"/>
      <point x="244.0" y="395.6"/>
      <point x="265.0" y="360.0" type="curve" smooth="yes"/>
      <point x="309.8" y="284.2" type="line" smooth="yes"/>
      <point x="313.9" y="277.2"/>
      <point x="318.8" y="277.3"/>
      <point x="322.2" y="282.2" type="curve" smooth="yes"/>
      <point x="376.0" y="359.0" type="line" smooth="yes"/>
      <point x="396.1" y="387.6"/>
      <point x="388.0" y="399.0"/>
      <point x="352.0" y="402.0" type="curve"/>
      <point x="346.0" y="408.0"/>
      <point x="346.0" y="430.0"/>
      <point x="352.0" y="436.0" type="curve"/>
      <point x="372.0" y="435.0"/>
      <point x="413.0" y="434.0"/>
      <point x="452.0" y="434.0" type="curve" smooth="yes"/>
      <point x="484.8" y="434.0"/>
      <point x="516.0" y="435.0"/>
      <point x="536.0" y="436.0" type="curve"/>
      <point x="542.0" y="430.0"/>
      <point x="542.0" y="408.0"/>
      <point x="536.0" y="402.0" type="curve"/>
      <point x="505.0" y="398.5"/>
      <point x="468.7" y="386.6"/>
      <point x="441.0" y="353.0" type="curve" smooth="yes"/>
      <point x="352.0" y="245.0" type="line" smooth="yes"/>
      <point x="349.0" y="241.0"/>
      <point x="348.5" y="238.2"/>
      <point x="354.0" y="230.0" type="curve" smooth="yes"/>
      <point x="442.0" y="99.0" type="line" smooth="yes"/>
      <point x="474.3" y="50.9"/>
      <point x="508.0" y="37.5"/>
      <point x="545.0" y="32.0" type="curve"/>
      <point x="551.0" y="26.0"/>
      <point x="551.0" y="4.0"/>
      <point x="545.0" y="-2.0" type="curve"/>
      <point x="525.0" y="-1.0"/>
      <point x="463.3" y="0.0"/>
      <point x="411.0" y="0.0" type="curve" smooth="yes"/>
      <point x="358.0" y="0.0"/>
      <point x="295.0" y="-1.0"/>
      <point x="275.0" y="-2.0" type="curve"/>
      <point x="269.0" y="4.0"/>
      <point x="269.0" y="26.0"/>
      <point x="275.0" y="32.0" type="curve"/>
      <point x="309.5" y="37.0"/>
      <point x="320.3" y="39.6"/>
      <point x="303.0" y="72.0" type="curve" smooth="yes"/>
      <point x="254.8" y="162.5" type="line" smooth="yes"/>
      <point x="252.1" y="167.5"/>
      <point x="248.5" y="165.2"/>
      <point x="245.0" y="160.2" type="curve" smooth="yes"/>
    </contour>
  </outline>
</glyph>
<glyph name="z" format="2">
  <advance width="452"/>
  <unicode hex="007A"/>
  <anchor x="207.0" y="-110.0" name="below"/>
  <anchor x="208.0" y="4.0" name="cedilla"/>
  <anchor x="207.0" y="215.0" name="middle"/>
  <anchor x="220.0" y="646.0" name="above"/>
  <anchor x="399.0" y="580.0" name="right"/>
  <outline>
    <contour>
      <point x="61.0" y="446.0" type="curve" smooth="yes"/>
      <point x="78.5" y="442.6"/>
      <point x="87.9" y="436.0"/>
      <point x="120.0" y="436.0" type="curve" smooth="yes"/>
      <point x="313.0" y="436.0" type="line" smooth="yes"/>
      <point x="342.0" y="436.0"/>
      <point x="410.0" y="438.0"/>
      <point x="415.0" y="438.0" type="curve" smooth="yes"/>
      <point x="422.0" y="438.0"/>
      <point x="427.0" y="435.0"/>
      <point x="427.0" y="431.0" type="curve" smooth="yes"/>
      <point x="427.0" y="427.0"/>
      <point x="424.3" y="419.2"/>
      <point x="409.0" y="394.0" type="curve" smooth="yes"/>
      <point x="348.7" y="294.8"/>
      <point x="248.8" y="136.7"/>
      <point x="175.3" y="42.0" type="curve"/>
      <point x="176.0" y="39.0" type="line"/>
      <point x="272.0" y="39.0" type="line" smooth="yes"/>
      <point x="324.0" y="39.0"/>
      <point x="344.5" y="57.2"/>
      <point x="370.0" y="110.0" type="curve" smooth="yes"/>
      <point x="384.0" y="139.0" type="line"/>
      <point x="396.0" y="139.0"/>
      <point x="417.5" y="136.7"/>
      <point x="424.0" y="133.0" type="curve"/>
      <point x="417.0" y="83.0"/>
      <point x="404.0" y="31.0"/>
      <point x="392.0" y="-3.0" type="curve"/>
      <point x="40.0" y="0.0" type="line" smooth="yes"/>
      <point x="25.0" y="0.0"/>
      <point x="17.0" y="5.0"/>
      <point x="17.0" y="12.0" type="curve" smooth="yes"/>
      <point x="17.0" y="17.0"/>
      <point x="17.4" y="20.4"/>
      <point x="26.0" y="32.0" type="curve" smooth="yes"/>
      <point x="102.4" y="134.9"/>
      <point x="199.9" y="282.2"/>
      <point x="267.8" y="395.0" type="curve"/>
      <point x="266.0" y="396.8" type="line"/>
      <point x="164.0" y="394.0" type="line" smooth="yes"/>
      <point x="134.0" y="393.0"/>
      <point x="103.0" y="371.0"/>
      <point x="83.0" y="298.0" type="curve"/>
      <point x="71.4" y="295.4"/>
      <point x="48.8" y="297.3"/>
      <point x="40.0" y="301.0" type="curve"/>
      <point x="48.0" y="350.0"/>
      <point x="54.0" y="395.0"/>
      <point x="55.0" y="440.0" type="curve" smooth="yes"/>
      <point x="55.0" y="442.4"/>
      <point x="58.6" y="446.0"/>
    </contour>
  </outline>
</glyph>
<glyph name="braceleft" format="2">
  <advance width="307"/>
  <unicode hex="007B"/>
  <outline>
    <contour>
      <point x="208.0" y="552.0" type="curve" smooth="yes"/>
      <point x="216.0" y="386.0" type="line" smooth="yes"/>
      <point x="220.3" y="297.0"/>
      <point x="178.2" y="268.2"/>
      <point x="111.0" y="249.0" type="curve"/>
      <point x="111.0" y="245.0" type="line"/>
      <point x="178.8" y="216.8"/>
      <point x="220.4" y="177.3"/>
      <point x="216.0" y="95.0" type="curve" smooth="yes"/>
      <point x="208.0" y="-54.0" type="line" smooth="yes"/>
      <point x="203.5" y="-138.0"/>
      <point x="244.0" y="-188.0"/>
      <point x="288.0" y="-188.0" type="curve"/>
      <point x="294.0" y="-194.0"/>
      <point x="294.0" y="-206.0"/>
      <point x="288.0" y="-212.0" type="curve"/>
      <point x="187.0" y="-212.0"/>
      <point x="101.0" y="-179.0"/>
      <point x="106.0" y="-49.0" type="curve" smooth="yes"/>
      <point x="112.0" y="121.0" type="line" smooth="yes"/>
      <point x="114.0" y="182.0"/>
      <point x="87.5" y="222.0"/>
      <point x="14.0" y="231.0" type="curve"/>
      <point x="6.0" y="239.0"/>
      <point x="5.0" y="254.0"/>
      <point x="14.0" y="263.0" type="curve"/>
      <point x="88.0" y="270.0"/>
      <point x="112.0" y="320.0"/>
      <point x="112.0" y="370.0" type="curve"/>
      <point x="106.0" y="554.0" type="line" smooth="yes"/>
      <point x="102.0" y="667.0"/>
      <point x="198.0" y="707.0"/>
      <point x="288.0" y="707.0" type="curve"/>
      <point x="294.0" y="701.0"/>
      <point x="294.0" y="689.0"/>
      <point x="288.0" y="683.0" type="curve"/>
      <point x="250.0" y="672.0"/>
      <point x="203.0" y="654.9"/>
    </contour>
  </outline>
</glyph>
<glyph name="bar" format="2">
  <advance width="220"/>
  <unicode hex="007C"/>
  <outline>
    <contour>
      <point x="140" y="-233" type="line"/>
      <point x="80" y="-233" type="line"/>
      <point x="80" y="698" type="line"/>
      <point x="140" y="698" type="line"/>
    </contour>
  </outline>
</glyph>
<glyph name="braceright" format="2">
  <advance width="307"/>
  <unicode hex="007D"/>
  <outline>
    <contour>
      <point x="99" y="-56" type="line" smooth="yes"/>
      <point x="91" y="110" type="line" smooth="yes"/>
      <point x="87" y="199"/>
      <point x="129" y="228"/>
      <point x="196" y="247" type="curve"/>
      <point x="196" y="251" type="line"/>
      <point x="128" y="279"/>
      <point x="87" y="319"/>
      <point x="91" y="401" type="curve" smooth="yes"/>
      <point x="99" y="550" type="line" smooth="yes"/>
      <point x="104" y="634"/>
      <point x="63" y="684"/>
      <point x="19" y="684" type="curve"/>
      <point x="13" y="690"/>
      <point x="13" y="702"/>
      <point x="19" y="708" type="curve"/>
      <point x="120" y="708"/>
      <point x="206" y="675"/>
      <point x="201" y="545" type="curve" smooth="yes"/>
      <point x="195" y="375" type="line" smooth="yes"/>
      <point x="193" y="314"/>
      <point x="220" y="274"/>
      <point x="293" y="265" type="curve"/>
      <point x="301" y="257"/>
      <point x="302" y="242"/>
      <point x="293" y="233" type="curve"/>
      <point x="219" y="226"/>
      <point x="195" y="176"/>
      <point x="195" y="126" type="curve"/>
      <point x="201" y="-58" type="line" smooth="yes"/>
      <point x="205" y="-171"/>
      <point x="109" y="-211"/>
      <point x="19" y="-211" type="curve"/>
      <point x="13" y="-205"/>
      <point x="13" y="-193"/>
      <point x="19" y="-187" type="curve"/>
      <point x="57" y="-176"/>
      <point x="104" y="-159"/>
      <point x="99" y="-56" type="curve" smooth="yes"/>
    </contour>
  </outline>
</glyph>
<glyph name="asciitilde" format="2">
  <advance width="473"/>
  <unicode hex="007E"/>
  <outline>
    <contour>
      <point x="152.0" y="268.0" type="curve" smooth="yes"/>
      <point x="124.0" y="268.0"/>
      <point x="70.0" y="261.0"/>
      <point x="46.0" y="204.0" type="curve"/>
      <point x="36.0" y="207.0" type="line"/>
      <point x="28.0" y="216.0"/>
      <point x="22.0" y="230.0"/>
      <point x="20.0" y="236.0" type="curve"/>
      <point x="49.0" y="323.5"/>
      <point x="128.0" y="341.0"/>
      <point x="167.0" y="341.0" type="curve" smooth="yes"/>
      <point x="200.0" y="341.0"/>
      <point x="241.3" y="330.7"/>
      <point x="263.0" y="309.0" type="curve" smooth="yes"/>
      <point x="282.5" y="289.5"/>
      <point x="307.0" y="280.0"/>
      <point x="318.0" y="280.0" type="curve" smooth="yes"/>
      <point x="346.0" y="280.0"/>
      <point x="400.0" y="287.0"/>
      <point x="424.0" y="344.0" type="curve"/>
      <point x="434.0" y="341.0" type="line"/>
      <point x="442.0" y="332.0"/>
      <point x="448.0" y="318.0"/>
      <point x="450.0" y="312.0" type="curve"/>
      <point x="421.0" y="223.5"/>
      <point x="342.0" y="207.0"/>
      <point x="303.0" y="207.0" type="curve" smooth="yes"/>
      <point x="278.0" y="207.0"/>
      <point x="237.0" y="220.0"/>
      <point x="211.0" y="244.0" type="curve" smooth="yes"/>
      <point x="190.1" y="263.3"/>
      <point x="175.0" y="268.0"/>
    </contour>
  </outline>
</glyph>
<glyph name="exclamdown" format="2">
  <advance width="266"/>
  <unicode hex="00A1"/>
  <outline>
    <contour>
      <point x="133.0" y="-224.0" type="curve" smooth="yes"/>
      <point x="96.0" y="-224.0"/>
      <point x="61.0" y="-200.0"/>
      <point x="61.0" y="-149.0" type="curve" smooth="yes"/>
      <point x="61.0" y="-114.0"/>
      <point x="69.0" y="-76.0"/>
      <point x="75.0" y="-43.0" type="curve" smooth="yes"/>
      <point x="91.3" y="54.9"/>
      <point x="104.0" y="155.0"/>
      <point x="105.0" y="204.0" type="curve" smooth="yes"/>
      <point x="105.4" y="223.0"/>
      <point x="109.9" y="246.0"/>
      <point x="133.0" y="246.0" type="curve" smooth="yes"/>
      <point x="159.1" y="246.0"/>
      <point x="162.0" y="226.0"/>
      <point x="163.0" y="192.0" type="curve" smooth="yes"/>
      <point x="164.3" y="144.3"/>
      <point x="178.2" y="24.4"/>
      <point x="191.0" y="-46.0" type="curve" smooth="yes"/>
      <point x="198.0" y="-81.0"/>
      <point x="205.0" y="-110.0"/>
      <point x="205.0" y="-149.0" type="curve" smooth="yes"/>
      <point x="205.0" y="-205.0"/>
      <point x="164.0" y="-224.0"/>
    </contour>
    <contour>
      <point x="206.0" y="376.0" type="curve" smooth="yes"/>
      <point x="206.0" y="337.0"/>
      <point x="172.0" y="305.0"/>
      <point x="132.0" y="305.0" type="curve" smooth="yes"/>
      <point x="92.0" y="305.0"/>
      <point x="60.0" y="335.0"/>
      <point x="60.0" y="374.0" type="curve" smooth="yes"/>
      <point x="60.0" y="412.0"/>
      <point x="94.0" y="444.0"/>
      <point x="134.0" y="444.0" type="curve" smooth="yes"/>
      <point x="174.0" y="444.0"/>
      <point x="206.0" y="414.0"/>
    </contour>
  </outline>
</glyph>
<glyph name="cent" format="2">
  <advance width="540"/>
  <unicode hex="00A2"/>
  <outline>
    <contour>
      <point x="262.0" y="584.0" type="line"/>
      <point x="296.0" y="584.0" type="line"/>
      <point x="296.0" y="514.7" type="line"/>
      <point x="395.6" y="509.9"/>
      <point x="445.0" y="454.0"/>
      <point x="445.0" y="411.0" type="curve" smooth="yes"/>
      <point x="445.0" y="380.0"/>
      <point x="422.0" y="355.0"/>
      <point x="390.0" y="355.0" type="curve" smooth="yes"/>
      <point x="358.0" y="355.0"/>
      <point x="331.0" y="375.0"/>
      <point x="328.0" y="402.0" type="curve" smooth="yes"/>
      <point x="325.7" y="426.3"/>
      <point x="316.5" y="454.7"/>
      <point x="296.0" y="466.9" type="curve"/>
      <point x="296.0" y="136.5" type="line"/>
      <point x="306.6" y="133.5"/>
      <point x="317.7" y="132.0"/>
      <point x="329.0" y="132.0" type="curve" smooth="yes"/>
      <point x="358.0" y="132.0"/>
      <point x="392.0" y="152.0"/>
      <point x="432.0" y="189.0" type="curve"/>
      <point x="443.0" y="189.0"/>
      <point x="445.0" y="170.0"/>
      <point x="445.0" y="158.0" type="curve"/>
      <point x="410.8" y="108.4"/>
      <point x="351.3" y="69.4"/>
      <point x="296.0" y="62.2" type="curve"/>
      <point x="296.0" y="-12.0" type="line"/>
      <point x="262.0" y="-12.0" type="line"/>
      <point x="262.0" y="61.3" type="line"/>
      <point x="199.6" y="63.5"/>
      <point x="158.3" y="78.9"/>
      <point x="122.0" y="113.0" type="curve" smooth="yes"/>
      <point x="83.2" y="149.5"/>
      <point x="60.0" y="207.4"/>
      <point x="60.0" y="272.0" type="curve" smooth="yes"/>
      <point x="60.0" y="411.6"/>
      <point x="152.5" y="504.0"/>
      <point x="262.0" y="514.1" type="curve"/>
    </contour>
    <contour>
      <point x="262.0" y="151.8" type="curve"/>
      <point x="262.0" y="472.2" type="line"/>
      <point x="215.9" y="464.9"/>
      <point x="190.0" y="410.1"/>
      <point x="190.0" y="307.0" type="curve" smooth="yes"/>
      <point x="190.0" y="233.6"/>
      <point x="219.5" y="179.2"/>
    </contour>
  </outline>
</glyph>
<glyph name="sterling" format="2">
  <advance width="540"/>
  <unicode hex="00A3"/>
  <outline>
    <contour>
      <point x="82.0" y="292.0" type="line" smooth="yes"/>
      <point x="59.0" y="292.0"/>
      <point x="54.0" y="296.0"/>
      <point x="54.0" y="303.0" type="curve" smooth="yes"/>
      <point x="54.0" y="319.0" type="line" smooth="yes"/>
      <point x="54.0" y="329.0"/>
      <point x="65.0" y="339.0"/>
      <point x="101.0" y="339.0" type="curve" smooth="yes"/>
      <point x="132.0" y="339.0" type="line"/>
      <point x="132.0" y="363.0" type="line" smooth="yes"/>
      <point x="132.0" y="459.0"/>
      <point x="168.0" y="512.0"/>
      <point x="218.0" y="560.0" type="curve"/>
      <point x="259.0" y="597.0"/>
      <point x="315.0" y="614.0"/>
      <point x="369.0" y="614.0" type="curve" smooth="yes"/>
      <point x="392.0" y="614.0"/>
      <point x="463.0" y="609.0"/>
      <point x="463.0" y="562.0" type="curve" smooth="yes"/>
      <point x="463.0" y="528.0"/>
      <point x="440.0" y="505.0"/>
      <point x="406.0" y="505.0" type="curve" smooth="yes"/>
      <point x="388.0" y="505.0"/>
      <point x="372.0" y="517.0"/>
      <point x="358.0" y="531.0" type="curve" smooth="yes"/>
      <point x="342.0" y="548.0"/>
      <point x="343.0" y="574.0"/>
      <point x="321.0" y="574.0" type="curve" smooth="yes"/>
      <point x="274.0" y="574.0"/>
      <point x="262.0" y="502.0"/>
      <point x="262.0" y="414.0" type="curve" smooth="yes"/>
      <point x="262.0" y="339.0" type="line"/>
      <point x="352.0" y="339.0" type="line" smooth="yes"/>
      <point x="371.0" y="339.0"/>
      <point x="383.0" y="334.0"/>
      <point x="383.0" y="328.0" type="curve" smooth="yes"/>
      <point x="383.0" y="312.0" type="line" smooth="yes"/>
      <point x="383.0" y="298.0"/>
      <point x="355.0" y="292.0"/>
      <point x="335.0" y="292.0" type="curve" smooth="yes"/>
      <point x="261.7" y="292.0" type="line"/>
      <point x="257.8" y="183.8"/>
      <point x="208.5" y="138.1"/>
      <point x="171.4" y="109.0" type="curve"/>
      <point x="239.8" y="108.9"/>
      <point x="270.6" y="93.0"/>
      <point x="294.5" y="80.0" type="curve" smooth="yes"/>
      <point x="310.8" y="71.2"/>
      <point x="324.5" y="64.0"/>
      <point x="345.0" y="64.0" type="curve" smooth="yes"/>
      <point x="375.0" y="64.0"/>
      <point x="419.0" y="85.0"/>
      <point x="445.0" y="120.0" type="curve"/>
      <point x="454.1" y="118.2"/>
      <point x="463.5" y="112.0"/>
      <point x="468.0" y="105.0" type="curve"/>
      <point x="449.0" y="53.0"/>
      <point x="402.0" y="-10.0"/>
      <point x="327.0" y="-10.0" type="curve" smooth="yes"/>
      <point x="283.2" y="-10.0"/>
      <point x="243.5" y="11.0"/>
      <point x="215.0" y="29.3" type="curve" smooth="yes"/>
      <point x="192.3" y="43.9"/>
      <point x="170.0" y="52.0"/>
      <point x="151.0" y="52.0" type="curve" smooth="yes"/>
      <point x="116.0" y="52.0"/>
      <point x="113.0" y="38.0"/>
      <point x="113.0" y="25.0" type="curve" smooth="yes"/>
      <point x="113.0" y="-4.0"/>
      <point x="81.5" y="-18.0"/>
      <point x="52.0" y="-18.0" type="curve" smooth="yes"/>
      <point x="29.5" y="-18.0"/>
      <point x="18.0" y="-2.0"/>
      <point x="18.0" y="15.0" type="curve" smooth="yes"/>
      <point x="18.0" y="44.0"/>
      <point x="53.0" y="78.0"/>
      <point x="84.0" y="94.0" type="curve" smooth="yes"/>
      <point x="88.3" y="96.2"/>
      <point x="92.7" y="98.1"/>
      <point x="97.1" y="99.7" type="curve"/>
      <point x="115.0" y="120.6"/>
      <point x="132.0" y="165.0"/>
      <point x="132.0" y="284.0" type="curve" smooth="yes"/>
      <point x="132.0" y="292.0" type="line"/>
    </contour>
  </outline>
</glyph>
<glyph name="currency" format="2">
  <advance width="463"/>
  <unicode hex="00A4"/>
  <outline>
    <contour>
      <point x="114" y="300" type="line" smooth="yes"/>
      <point x="114" y="230"/>
      <point x="164" y="177"/>
      <point x="230" y="177" type="curve" smooth="yes"/>
      <point x="297" y="177"/>
      <point x="346" y="231"/>
      <point x="346" y="299" type="curve" smooth="yes"/>
      <point x="346" y="371"/>
      <point x="290" y="422"/>
      <point x="232" y="422" type="curve" smooth="yes"/>
      <point x="167" y="422"/>
      <point x="114" y="369"/>
      <point x="114" y="300" type="curve" smooth="yes"/>
    </contour>
    <contour>
      <point x="230" y="122" type="line" smooth="yes"/>
      <point x="192" y="122"/>
      <point x="159" y="131"/>
      <point x="130" y="147" type="curve"/>
      <point x="116" y="129"/>
      <point x="95" y="103"/>
      <point x="84" y="89" type="curve"/>
      <point x="23" y="148" type="line"/>
      <point x="76" y="191" type="line"/>
      <point x="48" y="226"/>
      <point x="33" y="261"/>
      <point x="33" y="299" type="curve" smooth="yes"/>
      <point x="33" y="338"/>
      <point x="48" y="374"/>
      <point x="77" y="409" type="curve"/>
      <point x="61" y="421"/>
      <point x="40" y="437"/>
      <point x="25" y="450" type="curve"/>
      <point x="80" y="507" type="line"/>
      <point x="130" y="452" type="line"/>
      <point x="160" y="468"/>
      <point x="193" y="477"/>
      <point x="232" y="477" type="curve" smooth="yes"/>
      <point x="272" y="477"/>
      <point x="302" y="467"/>
      <point x="331" y="451" type="curve"/>
      <point x="347" y="470"/>
      <point x="371" y="498"/>
      <point x="382" y="512" type="curve"/>
      <point x="440" y="451" type="line"/>
      <point x="385" y="406" type="line"/>
      <point x="413" y="372"/>
      <point x="427" y="337"/>
      <point x="427" y="299" type="curve" smooth="yes"/>
      <point x="427" y="263"/>
      <point x="412" y="228"/>
      <point x="386" y="193" type="curve"/>
      <point x="402" y="180"/>
      <point x="423" y="162"/>
      <point x="438" y="149" type="curve"/>
      <point x="384" y="91" type="line"/>
      <point x="333" y="149" type="line"/>
      <point x="303" y="132"/>
      <point x="269" y="122"/>
      <point x="230" y="122" type="curve" smooth="yes"/>
    </contour>
  </outline>
</glyph>
<glyph name="yen" format="2">
  <advance width="540"/>
  <unicode hex="00A5"/>
  <outline>
    <contour>
      <point x="478" y="177" type="line"/>
      <point x="478" y="135" type="line"/>
      <point x="349" y="135" type="line"/>
      <point x="349" y="122" type="line" smooth="yes"/>
      <point x="349" y="39"/>
      <point x="366" y="35"/>
      <point x="446" y="32" type="curve"/>
      <point x="452" y="26"/>
      <point x="452" y="4"/>
      <point x="446" y="-2" type="curve"/>
      <point x="396" y="-1"/>
      <point x="352" y="0"/>
      <point x="292" y="0" type="curve" smooth="yes"/>
      <point x="226" y="0"/>
      <point x="171" y="-1"/>
      <point x="122" y="-2" type="curve"/>
      <point x="116" y="4"/>
      <point x="116" y="26"/>
      <point x="122" y="32" type="curve"/>
      <point x="202" y="35"/>
      <point x="219" y="39"/>
      <point x="219" y="122" type="curve" smooth="yes"/>
      <point x="219" y="135" type="line"/>
      <point x="98" y="135" type="line"/>
      <point x="98" y="177" type="line"/>
      <point x="219" y="177" type="line"/>
      <point x="219" y="245" type="line"/>
      <point x="98" y="245" type="line"/>
      <point x="98" y="287" type="line"/>
      <point x="216" y="287" type="line"/>
      <point x="213" y="297"/>
      <point x="207" y="309"/>
      <point x="195" y="332" type="curve" smooth="yes"/>
      <point x="108" y="492" type="line"/>
      <point x="82" y="543"/>
      <point x="56" y="565"/>
      <point x="14" y="568" type="curve"/>
      <point x="8" y="574"/>
      <point x="7" y="596"/>
      <point x="13" y="602" type="curve"/>
      <point x="43" y="601"/>
      <point x="111" y="600"/>
      <point x="150" y="600" type="curve" smooth="yes"/>
      <point x="190" y="600"/>
      <point x="229" y="601"/>
      <point x="269" y="602" type="curve"/>
      <point x="275" y="596"/>
      <point x="275" y="574"/>
      <point x="269" y="568" type="curve"/>
      <point x="213" y="565"/>
      <point x="211" y="555"/>
      <point x="223" y="531" type="curve" smooth="yes"/>
      <point x="298" y="373" type="line" smooth="yes"/>
      <point x="310" y="348"/>
      <point x="319" y="347"/>
      <point x="329" y="370" type="curve" smooth="yes"/>
      <point x="398" y="531" type="line" smooth="yes"/>
      <point x="410" y="560"/>
      <point x="392" y="565"/>
      <point x="348" y="568" type="curve"/>
      <point x="342" y="574"/>
      <point x="342" y="596"/>
      <point x="348" y="602" type="curve"/>
      <point x="388" y="601"/>
      <point x="426" y="600"/>
      <point x="449" y="600" type="curve" smooth="yes"/>
      <point x="472" y="600"/>
      <point x="502" y="601"/>
      <point x="532" y="602" type="curve"/>
      <point x="538" y="596"/>
      <point x="538" y="574"/>
      <point x="532" y="568" type="curve"/>
      <point x="487" y="564"/>
      <point x="463" y="549"/>
      <point x="445" y="510" type="curve"/>
      <point x="367" y="351" type="line" smooth="yes"/>
      <point x="353" y="323"/>
      <point x="350" y="312"/>
      <point x="349" y="287" type="curve"/>
      <point x="478" y="287" type="line"/>
      <point x="478" y="245" type="line"/>
      <point x="349" y="245" type="line"/>
      <point x="349" y="177" type="line"/>
    </contour>
  </outline>
</glyph>
<glyph name="brokenbar" format="2">
  <advance width="220"/>
  <unicode hex="00A6"/>
  <outline>
    <contour>
      <point x="140" y="674" type="line"/>
      <point x="140" y="312" type="line"/>
      <point x="80" y="312" type="line"/>
      <point x="80" y="674" type="line"/>
    </contour>
    <contour>
      <point x="140" y="161" type="line"/>
      <point x="140" y="-201" type="line"/>
      <point x="80" y="-201" type="line"/>
      <point x="80" y="161" type="line"/>
    </contour>
  </outline>
</glyph>
